<!DOCTYPE svg PUBLIC "-//W3C//DTD SVG 1.1//EN" "http://www.w3.org/Graphics/SVG/1.1/DTD/svg11.dtd">
<!-- Uploaded to: SVG Repo, www.svgrepo.com, Transformed by: SVG Repo Mixer Tools -->
<svg version="1.1" id="Layer_1" xmlns="http://www.w3.org/2000/svg" xmlns:xlink="http://www.w3.org/1999/xlink" viewBox="-128 -128 768.00 768.00" xml:space="preserve" width="800px" height="800px" fill="#000000">
<g id="SVGRepo_bgCarrier" stroke-width="0">
<rect x="-128" y="-128" width="768.00" height="768.00" rx="76.8" fill="#646464" strokewidth="0"/>
</g>
<g id="SVGRepo_tracerCarrier" stroke-linecap="round" stroke-linejoin="round"/>
<g id="SVGRepo_iconCarrier"> <path style="fill:#d41c1c;" d="M368,512H144c-17.6,0-32-14.4-32-32V32c0-17.6,14.4-32,32-32h224c17.6,0,32,14.4,32,32v448 C400,497.6,385.6,512,368,512z"/> <rect x="135.456" y="50.672" style="fill:#333333;" width="241.28" height="372"/> <g> <path style="fill:#999999;" d="M256.176,489.456c-12.496,0-22.656-10.176-22.656-22.672s10.16-22.672,22.656-22.672 s22.672,10.176,22.672,22.672S268.672,489.456,256.176,489.456z M256.176,452.112c-8.08,0-14.656,6.576-14.656,14.672 s6.576,14.672,14.656,14.672c8.096,0,14.672-6.576,14.672-14.672S264.272,452.112,256.176,452.112z"/> <circle style="fill:#999999;" cx="256.16" cy="25.328" r="7.792"/> <circle style="fill:#999999;" cx="312.816" cy="25.328" r="7.792"/> <circle style="fill:#999999;" cx="337.44" cy="25.328" r="7.792"/> </g> <rect x="170" y="99.664" style="fill:#FFFFFF;" width="128" height="16"/> <rect x="214" y="137.664" style="fill:#0BA4E0;" width="128" height="16"/> <rect x="170" y="185.664" style="fill:#FFFFFF;" width="128" height="16"/> <rect x="214" y="223.664" style="fill:#0BA4E0;" width="128" height="16"/> <rect x="170" y="271.664" style="fill:#FFFFFF;" width="128" height="16"/> <rect x="214" y="309.664" style="fill:#0BA4E0;" width="128" height="16"/> <rect x="170" y="357.664" style="fill:#FFFFFF;" width="128" height="16"/> </g>
</svg>