<?xml version="1.0" encoding="UTF-8"?>
<svg version="1.1" xmlns="http://www.w3.org/2000/svg" width="498" height="167">
<path d="M0 0 C164.34 0 328.68 0 498 0 C498 55.11 498 110.22 498 167 C333.66 167 169.32 167 0 167 C0 111.89 0 56.78 0 0 Z " fill="#020202" transform="translate(0,0)"/>
<path d="M0 0 C164.34 0 328.68 0 498 0 C498 55.11 498 110.22 498 167 C333.66 167 169.32 167 0 167 C0 111.89 0 56.78 0 0 Z M9.69140625 11.03515625 C4.68053032 16.8561045 2.88676023 23.30566579 2.85955811 30.89982605 C2.85384796 31.85987549 2.84813782 32.81992493 2.84225464 33.80906677 C2.84113678 34.85071487 2.84001892 35.89236298 2.83886719 36.96557617 C2.83390228 38.07190399 2.82893738 39.17823181 2.82382202 40.31808472 C2.80922333 43.97638574 2.80240176 47.63464339 2.796875 51.29296875 C2.79112115 53.84019471 2.78536344 56.38742066 2.77960205 58.93464661 C2.77043991 63.59445468 2.76413732 68.25424979 2.7611053 72.91406459 C2.756631 79.75111286 2.73910775 86.58796058 2.7101047 93.42494792 C2.68579028 99.36496092 2.67815644 105.30492457 2.67642975 111.2449894 C2.67341041 113.7626689 2.66540626 116.2803477 2.65224457 118.79799461 C2.63510968 122.32796612 2.63708289 125.85745447 2.64355469 129.38745117 C2.6343399 130.41897812 2.62512512 131.45050507 2.6156311 132.51329041 C2.67039244 142.09206776 4.29170981 150.25149864 11.03515625 157.30859375 C17.74614804 163.0856503 24.92381181 164.15325409 33.55265331 164.13142776 C34.30844123 164.1334804 35.06422915 164.13553303 35.84291974 164.13764787 C38.38391819 164.14331732 40.92486242 164.14186068 43.46586609 164.14044189 C45.30271604 164.14302556 47.13956542 164.14603872 48.97641402 164.1494453 C54.03091587 164.15751836 59.08540352 164.15930504 64.13991106 164.16004276 C69.58860364 164.16189278 75.03728885 164.16943984 80.48597717 164.17617798 C92.40332683 164.1897639 104.32067313 164.1957864 116.23802924 164.20018864 C123.6780789 164.20295056 131.11812726 164.20718782 138.55817604 164.21169281 C159.1541406 164.2238857 179.75010411 164.23418505 200.3460722 164.2375679 C201.66443559 164.23778747 202.98279898 164.23800703 204.34111278 164.23823325 C205.6759933 164.23845389 207.01087381 164.23867438 208.34575433 164.2388947 C211.02371577 164.23933725 213.70167722 164.23978437 216.37963867 164.24023438 C217.04361649 164.24034377 217.70759431 164.24045316 218.39169267 164.24056586 C239.92020216 164.24419633 261.44867797 164.26011634 282.97717456 164.28342474 C305.74270679 164.30802735 328.5082225 164.32173422 351.27376872 164.32293582 C363.68191261 164.32385284 376.0900124 164.32961196 388.49814415 164.34775543 C399.06353868 164.36314988 409.62887548 164.36828072 420.1942791 164.36001733 C425.5848305 164.35610856 430.97526564 164.35705162 436.36580276 164.37107468 C441.3025061 164.38379968 446.23900563 164.38262829 451.17570863 164.37048396 C452.95971108 164.36852455 454.7437279 164.37161666 456.52771016 164.38032833 C473.82698086 164.51053151 473.82698086 164.51053151 488.30859375 155.96484375 C493.31946968 150.1438955 495.11323977 143.69433421 495.14044189 136.10017395 C495.14615204 135.14012451 495.15186218 134.18007507 495.15774536 133.19093323 C495.15886322 132.14928513 495.15998108 131.10763702 495.16113281 130.03442383 C495.16609772 128.92809601 495.17106262 127.82176819 495.17617798 126.68191528 C495.19077667 123.02361426 495.19759824 119.36535661 495.203125 115.70703125 C495.20887885 113.15980529 495.21463656 110.61257934 495.22039795 108.06535339 C495.22956009 103.40554532 495.23586268 98.74575021 495.2388947 94.08593541 C495.243369 87.24888714 495.26089225 80.41203942 495.2898953 73.57505208 C495.31420972 67.63503908 495.32184356 61.69507543 495.32357025 55.7550106 C495.32658959 53.2373311 495.33459374 50.7196523 495.34775543 48.20200539 C495.36489032 44.67203388 495.36291711 41.14254553 495.35644531 37.61254883 C495.3656601 36.58102188 495.37487488 35.54949493 495.3843689 34.48670959 C495.32960756 24.90793224 493.70829019 16.74850136 486.96484375 9.69140625 C480.25385196 3.9143497 473.07618819 2.84674591 464.44734669 2.86857224 C463.69155877 2.8665196 462.93577085 2.86446697 462.15708026 2.86235213 C459.61608181 2.85668268 457.07513758 2.85813932 454.53413391 2.85955811 C452.69728396 2.85697444 450.86043458 2.85396128 449.02358598 2.8505547 C443.96908413 2.84248164 438.91459648 2.84069496 433.86008894 2.83995724 C428.41139636 2.83810722 422.96271115 2.83056016 417.51402283 2.82382202 C405.59667317 2.8102361 393.67932687 2.8042136 381.76197076 2.79981136 C374.3219211 2.79704944 366.88187274 2.79281218 359.44182396 2.78830719 C338.8458594 2.7761143 318.24989589 2.76581495 297.6539278 2.7624321 C296.33556441 2.76221253 295.01720102 2.76199297 293.65888722 2.76176675 C292.3240067 2.76154611 290.98912619 2.76132562 289.65424567 2.7611053 C286.97628423 2.76066275 284.29832278 2.76021563 281.62036133 2.75976562 C280.95638351 2.75965623 280.29240569 2.75954684 279.60830733 2.75943414 C258.07979784 2.75580367 236.55132203 2.73988366 215.02282544 2.71657526 C192.25729321 2.69197265 169.4917775 2.67826578 146.72623128 2.67706418 C134.31808739 2.67614716 121.9099876 2.67038804 109.50185585 2.65224457 C98.93646132 2.63685012 88.37112452 2.63171928 77.8057209 2.63998267 C72.4151695 2.64389144 67.02473436 2.64294838 61.63419724 2.62892532 C56.6974939 2.61620032 51.76099437 2.61737171 46.82429137 2.62951604 C45.04028892 2.63147545 43.2562721 2.62838334 41.47228984 2.61967167 C24.17301914 2.48946849 24.17301914 2.48946849 9.69140625 11.03515625 Z " fill="#B1B3B5" transform="translate(0,0)"/>
<path d="M0 0 C0.92683594 -0.00515625 1.85367188 -0.0103125 2.80859375 -0.015625 C5.73893433 0.26701778 7.85474012 1.13734105 10.5625 2.25 C12.82830161 2.56109059 12.82830161 2.56109059 15.0625 2.5 C15.7946875 2.50515625 16.526875 2.5103125 17.28125 2.515625 C19.63231542 2.35034986 19.63231542 2.35034986 21.91015625 1.25390625 C25.21779865 0.00197091 27.96949829 -0.05099999 31.5 -0.0625 C33.27697266 -0.08763672 33.27697266 -0.08763672 35.08984375 -0.11328125 C39.62100964 0.36073273 42.92750164 1.68724576 46.2421875 4.85546875 C47.34895833 6.3203125 48.45572917 7.78515625 49.5625 9.25 C48.82 9.745 48.0775 10.24 47.3125 10.75 C42.73765803 14.90894725 40.37423117 19.52612591 40.0625 25.75 C40.36842532 31.48363262 42.32956721 36.00750433 46.38671875 40.08203125 C48.07032913 41.54024957 49.77390223 42.92362412 51.5625 44.25 C49.27004483 53.28882325 44.5126713 60.9907006 37.5625 67.25 C33.89945896 68.47101368 30.3811262 68.6824356 26.5625 68.25 C25.94117188 67.92128906 25.31984375 67.59257813 24.6796875 67.25390625 C21.89944651 65.9356001 19.69037131 65.98453785 16.625 66 C15.60535156 65.99484375 14.58570313 65.9896875 13.53515625 65.984375 C10.48469477 66.25695237 8.35654197 67.04925469 5.5625 68.25 C-0.85829679 69.07848991 -0.85829679 69.07848991 -4.26171875 67.29296875 C-13.80360478 59.85244189 -19.63456524 47.01200299 -21.4375 35.25 C-21.55572522 32.59130737 -21.62253215 29.97037814 -21.625 27.3125 C-21.63724609 26.62220703 -21.64949219 25.93191406 -21.66210938 25.22070312 C-21.68262012 18.00775885 -19.80160374 12.94757988 -15.4375 7.25 C-10.68421091 2.61170984 -6.71404885 -0.03724854 0 0 Z " fill="#FDFDFD" transform="translate(63.4375,58.75)"/>
<path d="M0 0 C3.31024716 2.72175877 5.88852251 5.46454502 7.8125 9.3125 C7.96394564 11.91037529 8.04386981 14.46358821 8.0625 17.0625 C8.083125 17.76632813 8.10375 18.47015625 8.125 19.1953125 C8.17160729 25.46399356 6.53625003 29.46562497 2.1875 34.125 C-1.56324517 37.00803547 -5.52845887 37.62088018 -10.1875 37.3125 C-13.59494551 36.01147535 -15.62422978 34.87577022 -18.1875 32.3125 C-18.5175 37.9225 -18.8475 43.5325 -19.1875 49.3125 C-21.8275 49.3125 -24.4675 49.3125 -27.1875 49.3125 C-27.1875 32.8125 -27.1875 16.3125 -27.1875 -0.6875 C-24.8775 -0.6875 -22.5675 -0.6875 -20.1875 -0.6875 C-20.1875 0.9625 -20.1875 2.6125 -20.1875 4.3125 C-19.5275 4.3125 -18.8675 4.3125 -18.1875 4.3125 C-17.8575 3.3225 -17.5275 2.3325 -17.1875 1.3125 C-11.30610242 -1.8634547 -6.23840528 -3.30268515 0 0 Z " fill="#FBFBFB" transform="translate(221.1875,90.6875)"/>
<path d="M0 0 C5.70853798 2.08581195 8.61017976 5.1508685 11.25 10.5625 C12.87919061 18.02962361 13.22794659 25.61648644 9.27734375 32.37890625 C6.5153293 35.88421511 3.15094224 37.61635259 -1 39 C-6.72117607 39.53973359 -9.49625695 38.53865525 -14 35 C-14.33 34.67 -14.66 34.34 -15 34 C-15.33 39.61 -15.66 45.22 -16 51 C-18.31 51 -20.62 51 -23 51 C-23 34.5 -23 18 -23 1 C-20.69 1 -18.38 1 -16 1 C-15.67 2.32 -15.34 3.64 -15 5 C-14.21625 4.360625 -13.4325 3.72125 -12.625 3.0625 C-8.46650081 -0.20489222 -5.19546594 -0.53311684 0 0 Z " fill="#FAFAFA" transform="translate(259,89)"/>
<path d="M0 0 C4.49668949 4.49668949 5.71510688 9.84099755 6.375 16 C5.74642234 21.86672478 4.73638273 27.40848262 0.125 31.4375 C-5.48593677 35.14071827 -10.28316888 36.60643308 -17 35.5 C-21.43314847 33.571542 -25.74641523 30.88197038 -28 26.5 C-30.26938632 19.21407548 -31.07737167 12.65026796 -28.11328125 5.4296875 C-25.73066616 1.29982134 -22.22753534 -1.88124018 -17.609375 -3.1640625 C-11.42693133 -3.96000585 -5.10736049 -3.92288753 0 0 Z " fill="#F9F9F9" transform="translate(388,92.5)"/>
<path d="M0 0 C1.23556641 0.01740234 1.23556641 0.01740234 2.49609375 0.03515625 C3.32238281 0.04417969 4.14867187 0.05320312 5 0.0625 C5.63808594 0.07410156 6.27617187 0.08570312 6.93359375 0.09765625 C7.33674805 1.22147705 7.73990234 2.34529785 8.15527344 3.50317383 C9.66838153 7.72087002 11.18180263 11.93845383 12.6953125 16.15600586 C13.34708901 17.97238204 13.99878356 19.78878764 14.65039062 21.60522461 C15.28344349 23.36990802 15.91662074 25.13454682 16.54992676 26.8991394 C17.1670595 28.61884136 17.78384383 30.33866839 18.40026855 32.05862427 C20.33600669 37.4543252 22.30071358 42.83826586 24.31347656 48.20581055 C24.93359375 50.09765625 24.93359375 50.09765625 24.93359375 52.09765625 C22.29359375 52.09765625 19.65359375 52.09765625 16.93359375 52.09765625 C16.28668453 50.49392315 15.64110611 48.88965319 14.99609375 47.28515625 C14.63644531 46.39183594 14.27679688 45.49851563 13.90625 44.578125 C13.19745889 42.77056535 12.54756905 40.93958216 11.93359375 39.09765625 C5.33359375 38.76765625 -1.26640625 38.43765625 -8.06640625 38.09765625 C-8.39640625 40.07765625 -8.72640625 42.05765625 -9.06640625 44.09765625 C-9.94638314 46.82421676 -11.00902895 49.43122654 -12.06640625 52.09765625 C-14.70640625 52.09765625 -17.34640625 52.09765625 -20.06640625 52.09765625 C-19.44123917 47.56476439 -18.28578303 43.52506423 -16.73828125 39.22265625 C-16.50739807 38.57627197 -16.27651489 37.9298877 -16.03863525 37.26391602 C-15.3026211 35.20676358 -14.55968146 33.15219483 -13.81640625 31.09765625 C-13.33286689 29.75016729 -12.84979041 28.40251213 -12.3671875 27.0546875 C-11.41176059 24.38802651 -10.45233704 21.72285285 -9.49023438 19.05859375 C-8.52443759 16.38020569 -7.57096759 13.69786021 -6.62695312 11.01171875 C-6.39832581 10.36340088 -6.16969849 9.71508301 -5.93414307 9.04711914 C-5.30605729 7.26386082 -4.68077385 5.47961621 -4.05566406 3.6953125 C-2.69692698 0.12745402 -2.69692698 0.12745402 0 0 Z " fill="#F9F8F9" transform="translate(164.06640625,74.90234375)"/>
<path d="M0 0 C3.52421089 2.14023966 5.54936377 4.64765937 7.375 8.375 C7.625 11.25 7.625 11.25 7.375 13.375 C4.735 13.375 2.095 13.375 -0.625 13.375 C-0.893125 12.59125 -1.16125 11.8075 -1.4375 11 C-2.47314432 8.09385077 -2.47314432 8.09385077 -5.625 6.375 C-10.51131474 5.73343806 -15.06976494 5.45599747 -19.375 8 C-20.83583469 10.38104813 -20.83583469 10.38104813 -20.8125 13.4375 C-19.88010615 16.59992055 -19.88010615 16.59992055 -16.875 18 C-14.43602527 18.86348795 -11.96281136 19.56995492 -9.48046875 20.30078125 C4.39742525 24.40863787 4.39742525 24.40863787 8.375 30.375 C9.1196583 34.87159051 9.34898029 39.3840697 7.3125 43.546875 C3.84467962 47.95703787 -0.12042307 50.38471144 -5.625 51.375 C-14.46994585 52.14365502 -20.38621006 51.76603195 -27.4375 46.125 C-30.05955006 42.82870849 -30.38082562 40.52596454 -30.625 36.375 C-25.2835784 35.93717856 -25.2835784 35.93717856 -22.625 36.375 C-20.8125 38.75 -20.8125 38.75 -19.625 41.375 C-16.26619635 43.61420243 -15.10923396 43.62103334 -11.1875 43.5625 C-10.24003906 43.55605469 -9.29257812 43.54960938 -8.31640625 43.54296875 C-5.9389406 43.39459281 -3.90120963 43.04763878 -1.625 42.375 C-1.398125 41.116875 -1.17125 39.85875 -0.9375 38.5625 C-0.74607422 37.50095703 -0.74607422 37.50095703 -0.55078125 36.41796875 C-0.43256314 34.30007735 -0.43256314 34.30007735 -1.87890625 32.7109375 C-6.01704083 29.54484795 -11.15769568 28.4199813 -16.1875 27.5 C-20.75175205 26.55240442 -24.31870366 24.69045505 -27.625 21.375 C-30.216433 17.180172 -30.28447366 13.17496652 -29.625 8.375 C-27.64718486 4.1820319 -25.12652272 1.22162507 -20.94140625 -0.9296875 C-14.33237247 -2.91351214 -6.34055839 -2.83124371 0 0 Z " fill="#F7F7F7" transform="translate(321.625,76.625)"/>
<path d="M0 0 C5.66610682 2.25663129 8.30875782 5.10189064 10.9921875 10.46875 C10.9921875 13.76875 10.9921875 17.06875 10.9921875 20.46875 C2.4121875 20.46875 -6.1678125 20.46875 -15.0078125 20.46875 C-13.75406371 26.65865147 -13.75406371 26.65865147 -10.0078125 30.46875 C-6.63838331 31.09313504 -3.38940172 31.00062248 -0.0078125 30.46875 C2.17996216 28.5312494 2.17996216 28.5312494 3.9921875 26.46875 C7.7421875 26.21875 7.7421875 26.21875 10.9921875 26.46875 C10.77305883 30.30350164 10.05190356 31.41039113 7.2421875 34.15625 C1.59487159 38.17453247 -3.12436628 39.42511217 -10.0078125 38.46875 C-14.83133148 36.72246622 -18.24438255 33.76741881 -21.0078125 29.46875 C-23.65410644 23.77921802 -24.1637302 17.24518565 -22.3203125 11.22265625 C-18.04821467 1.80624063 -10.19119099 -2.6965019 0 0 Z " fill="#F8F8F8" transform="translate(444.0078125,89.53125)"/>
<path d="M0 0 C14.88888889 0 14.88888889 0 19 4 C21.56281121 8.25355471 21.53801065 12.15790411 21 17 C19.1295692 22.31596123 18.09551556 22.94269066 13 26 C8.71 26 4.42 26 0 26 C0 17.42 0 8.84 0 0 Z " fill="#E5E5E5" transform="translate(148,36)"/>
<path d="M0 0 C2.64 0 5.28 0 8 0 C8 2.97 8 5.94 8 9 C10.31 9 12.62 9 15 9 C15 10.98 15 12.96 15 15 C12.69 15 10.38 15 8 15 C8.33 23.25 8.66 31.5 9 40 C10.98 40 12.96 40 15 40 C15 41.98 15 43.96 15 46 C13.43997572 46.1363128 11.87642824 46.23259126 10.3125 46.3125 C9.44238281 46.37050781 8.57226562 46.42851563 7.67578125 46.48828125 C5 46 5 46 2.1875 44.34375 C-1.33216457 38.96369131 -0.52331022 33.45667155 -0.3125 27.1875 C-0.27866211 25.28967773 -0.27866211 25.28967773 -0.24414062 23.35351562 C-0.18529078 20.23447381 -0.1031137 17.11784098 0 14 C-1.65 14 -3.3 14 -5 14 C-5 12.35 -5 10.7 -5 9 C-3.35 9 -1.7 9 0 9 C0 6.03 0 3.06 0 0 Z " fill="#FCFCFC" transform="translate(339,81)"/>
<path d="M0 0 C3.56943288 3.56943288 4.29368601 6.60836174 4.5 11.5 C4.32007069 16.57954292 3.37343004 19.22969584 0 23 C-3.21929573 24.60964787 -6.51887712 24.60686242 -10 24 C-13.21954645 21.46546343 -14.70432435 19.88702695 -16 16 C-16.52707085 10.97986616 -16.52810047 7.09531949 -14.3125 2.5 C-9.69669786 -2.49005636 -6.22359175 -2.71574913 0 0 Z " fill="#060606" transform="translate(382,97)"/>
<path d="M0 0 C3.36323351 0.72116118 4.94692216 2.81170774 7.00390625 5.4296875 C8.84898169 9.11983838 8.35675555 13.39358674 8.00390625 17.4296875 C6.46162159 21.54244659 5.66719218 22.98749688 2.00390625 25.4296875 C-3.10544399 26.0889585 -3.10544399 26.0889585 -5.99609375 25.4296875 C-9.0945994 23.02815622 -10.75847661 20.14253891 -11.99609375 16.4296875 C-12.34465866 11.02693142 -12.41317327 7.85923502 -8.99609375 3.4296875 C-8.60421875 2.8315625 -8.21234375 2.2334375 -7.80859375 1.6171875 C-5.30433425 -0.02353424 -2.94350173 -0.09757464 0 0 Z " fill="#070707" transform="translate(254.99609375,95.5703125)"/>
<path d="M0 0 C3.94237155 2.36542293 5.85997429 4.54353587 7 9 C7.47650325 14.24153573 6.83336099 17.54757559 4 22 C1.52782062 24.64876362 0.19382778 24.97180687 -3.4375 25.5 C-7.90694779 24.87270908 -9.24125167 23.48900524 -12 20 C-13.57353809 15.27938572 -14.15401836 9.73464066 -12.17578125 5.046875 C-8.79272474 -0.13460932 -6.01171262 -0.50946717 0 0 Z " fill="#060606" transform="translate(215,96)"/>
<path d="M0 0 C2.64 0 5.28 0 8 0 C8.33 0.99 8.66 1.98 9 3 C10.0828125 2.2575 10.0828125 2.2575 11.1875 1.5 C14.14848659 -0.07919285 15.71253029 -0.28178312 19 0 C19 2.31 19 4.62 19 7 C17.3603125 7.4021875 17.3603125 7.4021875 15.6875 7.8125 C11.62239547 9.04766792 11.62239547 9.04766792 9 12 C8.49335383 14.90087655 8.49335383 14.90087655 8.48828125 18.19921875 C8.45283203 19.40771484 8.41738281 20.61621094 8.38085938 21.86132812 C8.34702148 23.7552832 8.34702148 23.7552832 8.3125 25.6875 C8.27833984 26.96173828 8.24417969 28.23597656 8.20898438 29.54882812 C8.12639216 32.69913103 8.05727665 35.84915157 8 39 C5.36 39 2.72 39 0 39 C0 26.13 0 13.26 0 0 Z " fill="#EBEBEB" transform="translate(400,89)"/>
<path d="M0 0 C0.99 0 1.98 0 3 0 C3 8.58 3 17.16 3 26 C1.68 25.67 0.36 25.34 -1 25 C-1.99 25.66 -2.98 26.32 -4 27 C-7.55997359 27.65578461 -8.76896541 27.15402306 -11.8125 25.125 C-14.48170343 21.31185225 -14.73317718 18.95596029 -14.48046875 14.38671875 C-14 12 -14 12 -11.9375 8.8125 C-9 7 -9 7 -5.25 7.125 C-2 8 -2 8 -1 9 C-0.67 6.03 -0.34 3.06 0 0 Z " fill="#F1F0F0" transform="translate(311,35)"/>
<path d="M0 0 C2.80307706 2.88076049 3.43144182 5.02583651 3.4375 9 C3.33925832 12.51084753 3.24591446 13.6639169 1.125 16.5625 C-2.45405934 18.98362838 -4.64694482 19.43530552 -9 19 C-11.86255164 16.67901219 -13.79780735 14.71698021 -14.23828125 10.9765625 C-14.4393457 4.60599407 -14.4393457 4.60599407 -12.1875 1.5 C-7.94130426 -1.41167708 -4.90300303 -1.13819713 0 0 Z " fill="#EAEAEA" transform="translate(344,43)"/>
<path d="M0 0 C2.76414863 2.85372752 3.4515138 5.00405691 3.5 8.9375 C3.37228261 12.69683366 3.08239008 13.87516655 0.9375 17.125 C-2.74894297 19.4780487 -4.70135466 19.70341469 -9 19 C-11.89911246 16.71122701 -13.79737091 14.72068634 -14.23828125 10.9765625 C-14.4393457 4.60599407 -14.4393457 4.60599407 -12.1875 1.5 C-7.94130426 -1.41167708 -4.90300303 -1.13819713 0 0 Z " fill="#EAE9EA" transform="translate(269,43)"/>
<path d="M0 0 C4.28834613 2.46182833 4.28834613 2.46182833 6 5 C6.7505893 8.14451426 6.68543359 10.84700549 6 14 C4.20606332 16.87029869 3.01736724 18.49131638 0 20 C-3.895203 20.5193604 -5.54795388 20.29481269 -8.875 18.125 C-11.46702882 14.31319292 -11.7278056 11.91332651 -11.484375 7.3828125 C-11 5 -11 5 -8.875 1.875 C-5.42771321 -0.37323052 -4.03117621 -0.82268902 0 0 Z " fill="#EEEDED" transform="translate(185,42)"/>
<path d="M0 0 C2.875 2.125 2.875 2.125 5 5 C5 6.98 5 8.96 5 11 C0.71 11 -3.58 11 -8 11 C-7.34 12.32 -6.68 13.64 -6 15 C-2.16774573 15.08912219 1.26562152 14.87867729 5 14 C3.63016497 17.16115776 3.0109362 17.9927092 0 20 C-3.85833276 20.50326079 -5.50857943 20.31669325 -8.8125 18.1875 C-11.64070525 15.35929475 -11.94644011 13.57844683 -12.3125 9.625 C-11.94884973 5.40665686 -10.95115008 3.95115008 -8 1 C-5.11138291 -0.44430855 -3.20352299 -0.37688506 0 0 Z " fill="#ECEBEB" transform="translate(431,42)"/>
<path d="M0 0 C2 2 2 2 2.1953125 5.6953125 C2.182009 7.17200108 2.15814835 8.64862358 2.125 10.125 C2.11597656 10.87910156 2.10695313 11.63320313 2.09765625 12.41015625 C2.0740687 14.27357254 2.03819719 16.13682593 2 18 C1.01 18 0.02 18 -1 18 C-1 17.34 -1 16.68 -1 16 C-1.66 16 -2.32 16 -3 16 C-3 16.66 -3 17.32 -3 18 C-6.25 18.75 -6.25 18.75 -10 19 C-12.5 17.375 -12.5 17.375 -14 15 C-14 11.86045016 -13.46673327 10.52058711 -11.375 8.1875 C-8.1686245 6.58431225 -5.53249148 6.79620241 -2 7 C-2 5.68 -2 4.36 -2 3 C-4.31 3 -6.62 3 -9 3 C-9 3.66 -9 4.32 -9 5 C-10.32 5 -11.64 5 -13 5 C-12.8125 3.125 -12.8125 3.125 -12 1 C-7.91007846 -1.52612801 -4.56922846 -1.03454229 0 0 Z " fill="#E9E9E9" transform="translate(290,43)"/>
<path d="M0 0 C0.66255127 6.36049219 -1.02763803 10.03454754 -5 15 C-9.53198533 19.1104053 -11.9203884 20.13216547 -18 20 C-18.63967221 14.88262231 -17.27570701 12.02060273 -14.50390625 7.8984375 C-10.48189324 2.821299 -6.56948219 -0.17288111 0 0 Z " fill="#F9F9F9" transform="translate(96,37)"/>
<path d="M0 0 C8 0 8 0 11 2 C13.21925086 5.32887629 13.75890933 7.13936508 13.4765625 11.0625 C12.60276841 14.61497432 10.9838283 16.01078114 8 18 C5.36 18 2.72 18 0 18 C0 12.06 0 6.12 0 0 Z " fill="#0C0C0C" transform="translate(152,40)"/>
<path d="M0 0 C1.32 0 2.64 0 4 0 C5.45184478 4.53701494 6.23509196 8.18061476 6 13 C6.66 13 7.32 13 8 13 C8.12375 11.96875 8.2475 10.9375 8.375 9.875 C8.93889814 6.37883154 9.78682059 3.31602373 11 0 C12.32 0 13.64 0 15 0 C15.99 3.63 16.98 7.26 18 11 C19.83836919 7.32326162 20.93651813 3.95007553 22 0 C22.99 0 23.98 0 25 0 C24.31195504 6.19240462 22.71951285 12.01955594 21 18 C19.35 17.67 17.7 17.34 16 17 C15.01 13.37 14.02 9.74 13 6 C11.68 9.96 10.36 13.92 9 18 C7.68 18 6.36 18 5 18 C2.89603589 12.06682122 1.24028238 6.17222879 0 0 Z " fill="#F5F5F5" transform="translate(194,43)"/>
<path d="M0 0 C1.32 0 2.64 0 4 0 C4.33 2.97 4.66 5.94 5 9 C5.66 8.34 6.32 7.68 7 7 C12.09638554 6.45783133 12.09638554 6.45783133 14.6796875 8.0078125 C16.7746505 11.16885135 16.31196267 14.53340377 16.1875 18.1875 C16.16719727 19.31188477 16.16719727 19.31188477 16.14648438 20.45898438 C16.11118539 22.30629767 16.05737917 24.15324066 16 26 C15.01 26 14.02 26 13 26 C12.93941406 25.07316406 12.87882812 24.14632812 12.81640625 23.19140625 C12.73261719 21.99386719 12.64882813 20.79632813 12.5625 19.5625 C12.48128906 18.36753906 12.40007812 17.17257813 12.31640625 15.94140625 C12.32343886 13.11429756 12.32343886 13.11429756 11 12 C8.5 11.83333333 8.5 11.83333333 6 12 C4.05909174 13.94090826 4.60080565 17.47293902 4.4375 20.0625 C4.35371094 21.35285156 4.26992188 22.64320312 4.18359375 23.97265625 C4.12300781 24.97167969 4.06242187 25.97070312 4 27 C2.68 27 1.36 27 0 27 C0 18.09 0 9.18 0 0 Z " fill="#E1E0E1" transform="translate(398,35)"/>
<path d="M0 0 C2.12261076 2.12261076 2.58711498 3.26899902 3.5078125 6.0625 C3.77207031 6.85914062 4.03632813 7.65578125 4.30859375 8.4765625 C4.57800781 9.30929688 4.84742188 10.14203125 5.125 11 C5.40214844 11.83273438 5.67929688 12.66546875 5.96484375 13.5234375 C8 19.71913485 8 19.71913485 8 22 C3.05 22 -1.9 22 -7 22 C-6.2291387 16.60397092 -5.33641881 12.6324443 -3.5 7.625 C-3.0565625 6.40039062 -2.613125 5.17578125 -2.15625 3.9140625 C-1 1 -1 1 0 0 Z " fill="#101010" transform="translate(166,85)"/>
<path d="M0 0 C2.52775351 3.79163027 2.22443035 6.80874031 2.125 11.1875 C2.11597656 11.93708984 2.10695312 12.68667969 2.09765625 13.45898438 C2.07412578 15.30612654 2.03825561 17.15310412 2 19 C0.68 19 -0.64 19 -2 19 C-2.33 14.05 -2.66 9.1 -3 4 C-4.65 4 -6.3 4 -8 4 C-9.87824891 5.87824891 -9.39102397 9.03935276 -9.5625 11.5625 C-9.68818359 13.35880859 -9.68818359 13.35880859 -9.81640625 15.19140625 C-9.87699219 16.11824219 -9.93757812 17.04507813 -10 18 C-11.32 18 -12.64 18 -14 18 C-14 12.06 -14 6.12 -14 0 C-13.01 0 -12.02 0 -11 0 C-11 0.66 -11 1.32 -11 2 C-10.34 2 -9.68 2 -9 2 C-9 1.34 -9 0.68 -9 0 C-5.85135005 -1.57432497 -3.35512575 -0.71895552 0 0 Z " fill="#E4E4E4" transform="translate(238,43)"/>
<path d="M0 0 C1.32 0 2.64 0 4 0 C4.33 0.66 4.66 1.32 5 2 C5.66 1.34 6.32 0.68 7 0 C12.09638554 -0.54216867 12.09638554 -0.54216867 14.6796875 1.0078125 C16.7746505 4.16885135 16.31196267 7.53340377 16.1875 11.1875 C16.16719727 12.31188477 16.16719727 12.31188477 16.14648438 13.45898438 C16.11118539 15.30629767 16.05737917 17.15324066 16 19 C15.01 19 14.02 19 13 19 C12.93941406 18.07316406 12.87882812 17.14632812 12.81640625 16.19140625 C12.73261719 14.99386719 12.64882813 13.79632813 12.5625 12.5625 C12.48128906 11.36753906 12.40007812 10.17257813 12.31640625 8.94140625 C12.32343886 6.11429756 12.32343886 6.11429756 11 5 C8.5 4.83333333 8.5 4.83333333 6 5 C4.05909174 6.94090826 4.60080565 10.47293902 4.4375 13.0625 C4.35371094 14.35285156 4.26992188 15.64320312 4.18359375 16.97265625 C4.12300781 17.97167969 4.06242187 18.97070312 4 20 C2.68 20 1.36 20 0 20 C0 13.4 0 6.8 0 0 Z " fill="#F3F2F2" transform="translate(352,42)"/>
<path d="M0 0 C6.93 0 13.86 0 21 0 C18.65408749 1.56394167 16.66255669 2.6243912 14.125 3.75 C7.82200413 6.87258511 4.89650402 11.65527691 2 18 C1.34 19.32 0.68 20.64 0 22 C0 14.74 0 7.48 0 0 Z " fill="#47704C" transform="translate(0,0)"/>
<path d="M0 0 C0.33 0 0.66 0 1 0 C1 7.26 1 14.52 1 22 C-5.93 22 -12.86 22 -20 22 C-17.65881361 20.43920907 -15.7207175 19.41672301 -13.1875 18.3125 C-6.85598662 15.14674331 -3.3790945 10.73042606 -1.125 4.0625 C-0.73303418 2.71314639 -0.35167104 1.36041164 0 0 Z " fill="#47704C" transform="translate(497,145)"/>
<path d="M0 0 C2 4 2 4 2.82421875 5.9296875 C5.52054808 12.00557892 9.12845261 16.20322232 15.23046875 19.03515625 C17.12927881 19.75771229 19.06266196 20.38820904 21 21 C21 21.33 21 21.66 21 22 C14.07 22 7.14 22 0 22 C0 14.74 0 7.48 0 0 Z " fill="#47704C" transform="translate(0,145)"/>
<path d="M0 0 C6.93 0 13.86 0 21 0 C21 7.26 21 14.52 21 22 C19 18 19 18 18.17578125 16.0703125 C15.47945192 9.99442108 11.87154739 5.79677768 5.76953125 2.96484375 C3.87072119 2.24228771 1.93733804 1.61179096 0 1 C0 0.67 0 0.34 0 0 Z " fill="#47704C" transform="translate(477,0)"/>
<path d="M0 0 C3.65475485 1.15057097 5.14647399 1.9768486 7.375 5.0625 C7.705 6.7125 8.035 8.3625 8.375 10.0625 C2.105 10.0625 -4.165 10.0625 -10.625 10.0625 C-9.625 5.0625 -9.625 5.0625 -7 2.1875 C-3.625 0.0625 -3.625 0.0625 0 0 Z " fill="#0E0E0E" transform="translate(439.625,94.9375)"/>
<path d="M0 0 C1.32 0 2.64 0 4 0 C4 1.65 4 3.3 4 5 C5.32 5 6.64 5 8 5 C8 5.99 8 6.98 8 8 C6.68 8 5.36 8 4 8 C4.33 11.63 4.66 15.26 5 19 C5.99 19.33 6.98 19.66 8 20 C8 20.99 8 21.98 8 23 C5.125 23.125 5.125 23.125 2 23 C0 21 0 21 -0.1953125 17.9609375 C-0.16050781 16.18589844 -0.16050781 16.18589844 -0.125 14.375 C-0.10695313 13.18648437 -0.08890625 11.99796875 -0.0703125 10.7734375 C-0.04710937 9.85820313 -0.02390625 8.94296875 0 8 C-0.99 8 -1.98 8 -3 8 C-3 6.68 -3 5.36 -3 4 C-2.01 4 -1.02 4 0 4 C0 2.68 0 1.36 0 0 Z " fill="#E7E7E7" transform="translate(385,38)"/>
<path d="M0 0 C1.32 0 2.64 0 4 0 C4 8.91 4 17.82 4 27 C2.68 27 1.36 27 0 27 C0 18.09 0 9.18 0 0 Z " fill="#E0E0E0" transform="translate(246,35)"/>
<path d="M0 0 C3 -0.3125 3 -0.3125 6 0 C8 2 8 2 8.265625 3.875 C8.26046875 4.57625 8.2553125 5.2775 8.25 6 C8.25515625 6.70125 8.2603125 7.4025 8.265625 8.125 C8 10 8 10 6 12 C3 12.3125 3 12.3125 0 12 C-2.31332486 8.53001271 -2.33957563 7.07490752 -2 3 C-1.34 2.01 -0.68 1.02 0 0 Z " fill="#0B0B0B" transform="translate(179,46)"/>
<path d="M0 0 C0.99 0.103125 1.98 0.20625 3 0.3125 C5.31282587 3.78173881 5.42478586 5.23455575 5 9.3125 C3.8125 11.1875 3.8125 11.1875 2 12.3125 C-0.5625 12.625 -0.5625 12.625 -3 12.3125 C-5 10.3125 -5 10.3125 -5.265625 8.4375 C-5.26046875 7.73625 -5.2553125 7.035 -5.25 6.3125 C-5.25515625 5.61125 -5.2603125 4.91 -5.265625 4.1875 C-4.77591168 0.73070012 -3.27162459 0.34079423 0 0 Z " fill="#0B0B0B" transform="translate(306,45.6875)"/>
<path d="M0 0 C0.99 0.103125 1.98 0.20625 3 0.3125 C5 3.3125 5 3.3125 4.75 6.875 C4 10.3125 4 10.3125 2 12.3125 C-0.5 12.5625 -0.5 12.5625 -3 12.3125 C-5 10.3125 -5 10.3125 -5.265625 8.4375 C-5.26046875 7.73625 -5.2553125 7.035 -5.25 6.3125 C-5.25515625 5.61125 -5.2603125 4.91 -5.265625 4.1875 C-4.77591168 0.73070012 -3.27162459 0.34079423 0 0 Z " fill="#080808" transform="translate(339,45.6875)"/>
<path d="M0 0 C0.99 0.103125 1.98 0.20625 3 0.3125 C5 3.3125 5 3.3125 4.75 6.875 C4 10.3125 4 10.3125 2 12.3125 C-0.5 12.5625 -0.5 12.5625 -3 12.3125 C-5 10.3125 -5 10.3125 -5.265625 8.4375 C-5.26046875 7.73625 -5.2553125 7.035 -5.25 6.3125 C-5.25515625 5.61125 -5.2603125 4.91 -5.265625 4.1875 C-4.77591168 0.73070012 -3.27162459 0.34079423 0 0 Z " fill="#080808" transform="translate(264,45.6875)"/>
<path d="M0 0 C3.0625 0.3125 3.0625 0.3125 4.7421875 1.3203125 C6.8371505 4.48135135 6.37446267 7.84590377 6.25 11.5 C6.23646484 12.24958984 6.22292969 12.99917969 6.20898438 13.77148438 C6.17368539 15.61879767 6.11987917 17.46574066 6.0625 19.3125 C5.0725 19.3125 4.0825 19.3125 3.0625 19.3125 C3.00191406 18.38566406 2.94132812 17.45882812 2.87890625 16.50390625 C2.79511719 15.30636719 2.71132813 14.10882813 2.625 12.875 C2.54378906 11.68003906 2.46257812 10.48507813 2.37890625 9.25390625 C2.38593886 6.42679756 2.38593886 6.42679756 1.0625 5.3125 C-0.93708364 5.27169217 -2.93795254 5.26995644 -4.9375 5.3125 C-4.9375 1.17134902 -4.08283705 0.43434437 0 0 Z " fill="#F2F2F2" transform="translate(407.9375,41.6875)"/>
<path d="M0 0 C1.32 0 2.64 0 4 0 C4.95946595 4.61965088 4.96102244 8.68129125 4.5625 13.375 C4.46066406 14.62023438 4.35882813 15.86546875 4.25390625 17.1484375 C4.12822266 18.55996094 4.12822266 18.55996094 4 20 C2.68 20 1.36 20 0 20 C0 13.4 0 6.8 0 0 Z " fill="#D8D7D8" transform="translate(352,42)"/>
<path d="M0 0 C0.99 0 1.98 0 3 0 C3 0.66 3 1.32 3 2 C3.99 2.33 4.98 2.66 6 3 C5.67 3.66 5.34 4.32 5 5 C4.77049681 7.204364 4.58924067 9.41392173 4.4375 11.625 C4.35371094 12.81351563 4.26992187 14.00203125 4.18359375 15.2265625 C4.12300781 16.14179687 4.06242188 17.05703125 4 18 C2.68 18 1.36 18 0 18 C0 12.06 0 6.12 0 0 Z M5 0 C5.99 0.495 5.99 0.495 7 1 C6.01 1.495 6.01 1.495 5 2 C5 1.34 5 0.68 5 0 Z " fill="#FAFAFA" transform="translate(224,43)"/>
<path d="M0 0 C-0.33 1.65 -0.66 3.3 -1 5 C-3.375 5.625 -3.375 5.625 -6 6 C-6.66 5.34 -7.32 4.68 -8 4 C-8 3.01 -8 2.02 -8 1 C-5.29120665 -0.35439668 -2.99066732 -0.06501451 0 0 Z " fill="#181819" transform="translate(288,53)"/>
<path d="M0 0 C1.67542976 0.28604898 3.34385343 0.61781233 5 1 C5.33 2.32 5.66 3.64 6 5 C3.03 5 0.06 5 -3 5 C-1 1 -1 1 0 0 Z " fill="#151515" transform="translate(426,45)"/>
</svg>
