<?xml version="1.0" encoding="UTF-8"?>
<svg version="1.1" xmlns="http://www.w3.org/2000/svg" width="850" height="443">
<path d="M0 0 C2.07361608 0.02149331 4.14377079 0.00002129 6.21728516 -0.02539062 C20.17916428 -0.05397343 33.13262565 3.02039325 45.57275391 9.52148438 C46.53181641 10.02035156 47.49087891 10.51921875 48.47900391 11.03320312 C58.23573413 16.23941535 58.23573413 16.23941535 62.57275391 19.52148438 C62.57275391 20.18148437 62.57275391 20.84148437 62.57275391 21.52148438 C63.17087891 21.81023437 63.76900391 22.09898437 64.38525391 22.39648438 C66.57275391 23.52148438 66.57275391 23.52148438 69.57275391 25.52148438 C69.57275391 26.18148437 69.57275391 26.84148437 69.57275391 27.52148438 C70.23275391 27.52148438 70.89275391 27.52148438 71.57275391 27.52148438 C71.57275391 28.18148437 71.57275391 28.84148437 71.57275391 29.52148438 C72.21212891 29.78960937 72.85150391 30.05773437 73.51025391 30.33398438 C75.57275391 31.52148438 75.57275391 31.52148438 76.57275391 34.52148438 C77.0281226 41.6935413 77.0281226 41.6935413 75.19775391 45.02148438 C73.57275391 46.52148438 73.57275391 46.52148438 71.57275391 46.52148438 C71.23244141 47.38773438 71.23244141 47.38773438 70.88525391 48.27148438 C69.22427169 51.11888247 67.2575083 52.6421563 64.57275391 54.52148438 C63.91275391 54.52148438 63.25275391 54.52148438 62.57275391 54.52148438 C62.57275391 55.18148437 62.57275391 55.84148437 62.57275391 56.52148438 C60.59790435 57.9123083 58.64466831 59.16614227 56.57275391 60.39648438 C55.45900391 61.07453125 54.34525391 61.75257813 53.19775391 62.45117188 C34.66532502 73.22341624 14.91457784 77.52994419 -6.42724609 76.52148438 C-7.91224609 76.02648437 -7.91224609 76.02648437 -9.42724609 75.52148438 C-9.42724609 74.86148438 -9.42724609 74.20148438 -9.42724609 73.52148438 C-10.08724609 73.52148438 -10.74724609 73.52148438 -11.42724609 73.52148438 C-11.42724609 64.61148438 -11.42724609 55.70148438 -11.42724609 46.52148438 C-12.08724609 46.19148438 -12.74724609 45.86148438 -13.42724609 45.52148438 C-13.42724609 46.18148437 -13.42724609 46.84148437 -13.42724609 47.52148438 C-14.08724609 47.52148438 -14.74724609 47.52148438 -15.42724609 47.52148438 C-15.65412109 48.24335938 -15.88099609 48.96523437 -16.11474609 49.70898438 C-17.69059737 53.08580855 -19.63601226 55.07915477 -22.42724609 57.52148438 C-23.08724609 57.52148438 -23.74724609 57.52148438 -24.42724609 57.52148438 C-24.75724609 58.84148437 -25.08724609 60.16148437 -25.42724609 61.52148438 C-26.08724609 61.52148438 -26.74724609 61.52148438 -27.42724609 61.52148438 C-27.42724609 62.18148437 -27.42724609 62.84148437 -27.42724609 63.52148438 C-28.08724609 63.52148438 -28.74724609 63.52148438 -29.42724609 63.52148438 C-29.42724609 64.18148437 -29.42724609 64.84148437 -29.42724609 65.52148438 C-30.08724609 65.52148438 -30.74724609 65.52148438 -31.42724609 65.52148438 C-31.73662109 66.14023438 -32.04599609 66.75898438 -32.36474609 67.39648438 C-33.05224609 68.77148438 -33.73974609 70.14648438 -34.42724609 71.52148438 C-35.08724609 71.52148438 -35.74724609 71.52148438 -36.42724609 71.52148438 C-36.42724609 72.18148437 -36.42724609 72.84148437 -36.42724609 73.52148438 C-37.08724609 73.52148438 -37.74724609 73.52148438 -38.42724609 73.52148438 C-38.73662109 74.14023438 -39.04599609 74.75898438 -39.36474609 75.39648438 C-40.05224609 76.77148438 -40.73974609 78.14648438 -41.42724609 79.52148438 C-42.08724609 79.52148438 -42.74724609 79.52148438 -43.42724609 79.52148438 C-43.42724609 80.18148437 -43.42724609 80.84148437 -43.42724609 81.52148438 C-44.08724609 81.52148438 -44.74724609 81.52148438 -45.42724609 81.52148438 C-45.73662109 82.14023438 -46.04599609 82.75898438 -46.36474609 83.39648438 C-47.05224609 84.77148438 -47.73974609 86.14648438 -48.42724609 87.52148438 C-49.08724609 87.52148438 -49.74724609 87.52148438 -50.42724609 87.52148438 C-50.42724609 88.18148437 -50.42724609 88.84148437 -50.42724609 89.52148438 C-51.08724609 89.52148438 -51.74724609 89.52148438 -52.42724609 89.52148438 C-52.42724609 90.18148437 -52.42724609 90.84148437 -52.42724609 91.52148438 C-53.08724609 91.52148438 -53.74724609 91.52148438 -54.42724609 91.52148438 C-54.75724609 93.17148438 -55.08724609 94.82148438 -55.42724609 96.52148438 C-56.08724609 96.52148438 -56.74724609 96.52148438 -57.42724609 96.52148438 C-56.93224609 97.47023438 -56.43724609 98.41898437 -55.92724609 99.39648438 C-54.42724609 102.52148438 -54.42724609 102.52148438 -54.42724609 104.52148438 C-53.10724609 105.18148437 -51.78724609 105.84148437 -50.42724609 106.52148438 C-50.42724609 107.18148437 -50.42724609 107.84148437 -50.42724609 108.52148438 C-49.76724609 108.52148438 -49.10724609 108.52148438 -48.42724609 108.52148438 C-45.42724609 111.98302284 -45.42724609 111.98302284 -45.42724609 114.52148438 C-44.76724609 114.52148438 -44.10724609 114.52148438 -43.42724609 114.52148438 C-43.42724609 115.18148437 -43.42724609 115.84148437 -43.42724609 116.52148438 C-42.76724609 116.52148438 -42.10724609 116.52148438 -41.42724609 116.52148438 C-38.42724609 119.98302284 -38.42724609 119.98302284 -38.42724609 122.52148438 C-37.76724609 122.52148438 -37.10724609 122.52148438 -36.42724609 122.52148438 C-36.42724609 123.18148437 -36.42724609 123.84148437 -36.42724609 124.52148438 C-35.76724609 124.52148438 -35.10724609 124.52148438 -34.42724609 124.52148438 C-29.42724609 129.99767485 -29.42724609 129.99767485 -29.42724609 132.52148438 C-28.76724609 132.52148438 -28.10724609 132.52148438 -27.42724609 132.52148438 C-27.42724609 133.18148437 -27.42724609 133.84148437 -27.42724609 134.52148438 C-26.76724609 134.52148438 -26.10724609 134.52148438 -25.42724609 134.52148438 C-25.09724609 135.84148437 -24.76724609 137.16148437 -24.42724609 138.52148438 C-23.76724609 138.52148438 -23.10724609 138.52148438 -22.42724609 138.52148438 C-22.42724609 139.18148437 -22.42724609 139.84148437 -22.42724609 140.52148438 C-21.76724609 140.52148438 -21.10724609 140.52148438 -20.42724609 140.52148438 C-20.42724609 141.18148437 -20.42724609 141.84148437 -20.42724609 142.52148438 C-19.76724609 142.52148438 -19.10724609 142.52148438 -18.42724609 142.52148438 C-18.42724609 143.18148437 -18.42724609 143.84148437 -18.42724609 144.52148438 C-17.76724609 144.52148438 -17.10724609 144.52148438 -16.42724609 144.52148438 C-16.01474609 145.49085938 -15.60224609 146.46023438 -15.17724609 147.45898438 C-13.77825442 150.64408537 -13.77825442 150.64408537 -11.23974609 151.39648438 C-10.64162109 151.43773437 -10.04349609 151.47898437 -9.42724609 151.52148438 C-9.42724609 149.21148437 -9.42724609 146.90148437 -9.42724609 144.52148438 C-10.08724609 144.52148438 -10.74724609 144.52148438 -11.42724609 144.52148438 C-11.42724609 136.60148438 -11.42724609 128.68148437 -11.42724609 120.52148438 C-7.92459782 118.77016024 -6.91742435 118.27643255 -3.32958984 118.21289062 C-2.5380249 118.19009033 -1.74645996 118.16729004 -0.9309082 118.14379883 C-0.08407471 118.12406006 0.76275879 118.10432129 1.63525391 118.08398438 C22.55769217 117.2679351 42.00628639 112.98781974 60.88134766 103.77929688 C64.07787581 102.2854187 67.14436312 101.31878456 70.57275391 100.52148438 C70.57275391 99.86148438 70.57275391 99.20148438 70.57275391 98.52148438 C72.61962891 97.11914062 72.61962891 97.11914062 75.32275391 95.58398438 C77.92714268 94.09521828 80.39515249 92.6578344 82.77587891 90.83007812 C84.57275391 89.52148438 84.57275391 89.52148438 86.57275391 89.52148438 C86.90275391 88.53148437 87.23275391 87.54148437 87.57275391 86.52148438 C89.46204939 84.48104525 90.82446684 83.59016082 93.61572266 83.33398438 C95.6023831 83.33398438 97.58857214 83.42227529 99.57275391 83.52148438 C99.74402334 85.50025805 99.90950021 87.47953326 100.07275391 89.45898438 C100.16556641 90.56113281 100.25837891 91.66328125 100.35400391 92.79882812 C100.78523254 100.13741537 100.56065024 107.27958005 99.76025391 114.58398438 C99.69 115.33486328 99.61974609 116.08574219 99.54736328 116.859375 C98.97696321 122.13899804 97.61456934 126.63477096 95.57275391 131.52148438 C95.09902344 132.79958984 95.09902344 132.79958984 94.61572266 134.10351562 C92.13955431 140.55964407 88.99576256 146.5198092 85.57275391 152.52148438 C84.91275391 152.52148438 84.25275391 152.52148438 83.57275391 152.52148438 C83.26337891 153.30523437 82.95400391 154.08898437 82.63525391 154.89648438 C81.57275391 157.52148437 81.57275391 157.52148437 80.57275391 159.52148438 C79.91275391 159.52148438 79.25275391 159.52148438 78.57275391 159.52148438 C78.57275391 160.18148437 78.57275391 160.84148437 78.57275391 161.52148438 C77.91275391 161.52148438 77.25275391 161.52148438 76.57275391 161.52148438 C76.32525391 162.09382812 76.07775391 162.66617188 75.82275391 163.25585938 C74.37959191 165.87159049 72.69059168 167.66921893 70.57275391 169.77148438 C69.52087891 170.83109375 69.52087891 170.83109375 68.44775391 171.91210938 C66.57275391 173.52148438 66.57275391 173.52148438 64.57275391 173.52148438 C64.57275391 174.18148437 64.57275391 174.84148437 64.57275391 175.52148438 C63.93337891 175.62460937 63.29400391 175.72773438 62.63525391 175.83398438 C61.95462891 176.06085938 61.27400391 176.28773438 60.57275391 176.52148438 C60.24275391 177.51148438 59.91275391 178.50148438 59.57275391 179.52148438 C57.56884766 180.98632812 57.56884766 180.98632812 55.01025391 182.45898438 C54.18396484 182.94238281 53.35767578 183.42578125 52.50634766 183.92382812 C29.12004832 196.6601749 0.75082564 202.39837208 -25.37744141 194.96679688 C-37.56468907 191.27472746 -50.87313084 186.17765646 -60.42724609 177.52148438 C-60.42724609 176.86148438 -60.42724609 176.20148438 -60.42724609 175.52148438 C-61.47912109 175.18117188 -61.47912109 175.18117188 -62.55224609 174.83398438 C-68.47026781 172.13227881 -72.56769512 167.6297136 -76.42724609 162.52148438 C-76.42724609 161.86148438 -76.42724609 161.20148438 -76.42724609 160.52148438 C-77.08724609 160.52148438 -77.74724609 160.52148438 -78.42724609 160.52148438 C-78.42724609 159.53148437 -78.42724609 158.54148437 -78.42724609 157.52148438 C-79.08724609 157.52148438 -79.74724609 157.52148438 -80.42724609 157.52148438 C-80.42724609 156.86148438 -80.42724609 156.20148438 -80.42724609 155.52148438 C-81.08724609 155.52148438 -81.74724609 155.52148438 -82.42724609 155.52148438 C-85.42724609 149.89648438 -85.42724609 149.89648438 -85.42724609 146.52148438 C-86.08724609 146.52148438 -86.74724609 146.52148438 -87.42724609 146.52148438 C-87.42724609 145.53148437 -87.42724609 144.54148437 -87.42724609 143.52148438 C-88.08724609 143.52148438 -88.74724609 143.52148438 -89.42724609 143.52148438 C-90.07618846 141.45996048 -90.72127249 139.3972218 -91.36474609 137.33398438 C-91.72439453 136.18542969 -92.08404297 135.036875 -92.45458984 133.85351562 C-93.26480645 131.07795431 -93.91858917 128.36460889 -94.42724609 125.52148438 C-95.08724609 125.52148438 -95.74724609 125.52148438 -96.42724609 125.52148438 C-96.42724609 122.55148438 -96.42724609 119.58148438 -96.42724609 116.52148438 C-97.08724609 116.52148438 -97.74724609 116.52148438 -98.42724609 116.52148438 C-99.72735312 110.56781964 -99.57429589 104.64400233 -99.55224609 98.58398438 C-99.55611328 97.52501953 -99.55998047 96.46605469 -99.56396484 95.375 C-99.54558034 80.63981862 -99.54558034 80.63981862 -97.42724609 78.52148438 C-97.05963878 76.19330474 -96.72483028 73.85964588 -96.42724609 71.52148438 C-95.76724609 71.52148438 -95.10724609 71.52148438 -94.42724609 71.52148438 C-94.42724609 69.87148437 -94.42724609 68.22148437 -94.42724609 66.52148438 C-93.76724609 66.52148438 -93.10724609 66.52148438 -92.42724609 66.52148438 C-92.09724609 63.55148438 -91.76724609 60.58148438 -91.42724609 57.52148438 C-90.76724609 57.52148438 -90.10724609 57.52148438 -89.42724609 57.52148438 C-89.28287109 56.92335937 -89.13849609 56.32523438 -88.98974609 55.70898438 C-88.5400022 53.95998033 -87.99832268 52.23471415 -87.42724609 50.52148438 C-86.76724609 50.52148438 -86.10724609 50.52148438 -85.42724609 50.52148438 C-85.30349609 49.94398438 -85.17974609 49.36648437 -85.05224609 48.77148438 C-84.42075785 46.49812671 -83.53866419 44.59613148 -82.42724609 42.52148438 C-81.76724609 42.52148438 -81.10724609 42.52148438 -80.42724609 42.52148438 C-80.42724609 41.86148438 -80.42724609 41.20148438 -80.42724609 40.52148438 C-79.76724609 40.52148438 -79.10724609 40.52148438 -78.42724609 40.52148438 C-78.42724609 39.53148437 -78.42724609 38.54148438 -78.42724609 37.52148438 C-77.76724609 37.52148438 -77.10724609 37.52148438 -76.42724609 37.52148438 C-76.11787109 36.90273437 -75.80849609 36.28398437 -75.48974609 35.64648438 C-74.80224609 34.27148438 -74.11474609 32.89648438 -73.42724609 31.52148438 C-72.76724609 31.52148438 -72.10724609 31.52148438 -71.42724609 31.52148438 C-71.42724609 30.86148438 -71.42724609 30.20148438 -71.42724609 29.52148438 C-66.95665786 25.52148438 -66.95665786 25.52148438 -64.42724609 25.52148438 C-64.42724609 24.86148438 -64.42724609 24.20148438 -64.42724609 23.52148438 C-57.26850877 17.25166311 -49.17674874 12.59338986 -40.55224609 8.64648438 C-39.7881543 8.28997803 -39.0240625 7.93347168 -38.23681641 7.56616211 C-25.85454697 2.13581326 -13.43834505 -0.16469336 0 0 Z " fill="#DE2539" transform="translate(139.42724609375,111.478515625)"/>
<path d="M0 0 C0.76699219 0.433125 1.53398438 0.86625 2.32421875 1.3125 C2.32421875 1.9725 2.32421875 2.6325 2.32421875 3.3125 C2.96359375 3.580625 3.60296875 3.84875 4.26171875 4.125 C6.32421875 5.3125 6.32421875 5.3125 7.32421875 8.3125 C7.98421875 8.3125 8.64421875 8.3125 9.32421875 8.3125 C10.61328125 9.95703125 10.61328125 9.95703125 11.94921875 12.125 C12.39523437 12.83269531 12.84125 13.54039062 13.30078125 14.26953125 C14.32421875 16.3125 14.32421875 16.3125 14.32421875 19.3125 C14.98421875 19.3125 15.64421875 19.3125 16.32421875 19.3125 C16.32421875 20.9625 16.32421875 22.6125 16.32421875 24.3125 C16.98421875 24.3125 17.64421875 24.3125 18.32421875 24.3125 C24.34796822 40.63736727 24.58412512 63.50067702 20.32421875 80.3125 C19.37557635 82.00892429 18.3827929 83.68240842 17.32421875 85.3125 C16.62842421 87.50380534 16.62842421 87.50380534 16.32421875 89.3125 C15.66421875 89.3125 15.00421875 89.3125 14.32421875 89.3125 C14.13859375 90.4571875 14.13859375 90.4571875 13.94921875 91.625 C13.32421875 94.3125 13.32421875 94.3125 11.32421875 97.3125 C10.66421875 97.3125 10.00421875 97.3125 9.32421875 97.3125 C9.32421875 97.9725 9.32421875 98.6325 9.32421875 99.3125 C8.66421875 99.3125 8.00421875 99.3125 7.32421875 99.3125 C6.99357422 100.20582031 6.99357422 100.20582031 6.65625 101.1171875 C4.8963765 104.01762417 3.00867071 104.88833133 0.01171875 106.4375 C-0.93316406 106.93507813 -1.87804687 107.43265625 -2.8515625 107.9453125 C-13.28271527 112.99497152 -24.12581204 114.06083845 -35.23828125 110.4375 C-38.44028468 109.28937128 -40.83014184 108.20959294 -43.67578125 106.3125 C-43.67578125 105.6525 -43.67578125 104.9925 -43.67578125 104.3125 C-44.33578125 104.3125 -44.99578125 104.3125 -45.67578125 104.3125 C-45.67578125 103.6525 -45.67578125 102.9925 -45.67578125 102.3125 C-46.33578125 102.3125 -46.99578125 102.3125 -47.67578125 102.3125 C-47.67578125 118.8125 -47.67578125 135.3125 -47.67578125 152.3125 C-52.64030942 153.96734272 -57.79058288 153.49706179 -62.98828125 153.5 C-64.68114258 153.51836914 -64.68114258 153.51836914 -66.40820312 153.53710938 C-68.05079102 153.54000977 -68.05079102 153.54000977 -69.7265625 153.54296875 C-70.72341064 153.54707764 -71.72025879 153.55118652 -72.74731445 153.55541992 C-75.67578125 153.3125 -75.67578125 153.3125 -81.67578125 151.3125 C-81.18078125 75.0825 -81.18078125 75.0825 -80.67578125 -2.6875 C-77.52743782 -3.73694781 -75.28834698 -3.81665506 -71.984375 -3.8203125 C-70.87513672 -3.82160156 -69.76589844 -3.82289063 -68.62304688 -3.82421875 C-66.88571289 -3.81841797 -66.88571289 -3.81841797 -65.11328125 -3.8125 C-63.95119141 -3.81636719 -62.78910156 -3.82023438 -61.59179688 -3.82421875 C-59.92987305 -3.82228516 -59.92987305 -3.82228516 -58.234375 -3.8203125 C-57.21657959 -3.81918457 -56.19878418 -3.81805664 -55.15014648 -3.81689453 C-52.67578125 -3.6875 -52.67578125 -3.6875 -50.67578125 -2.6875 C-50.67578125 0.9425 -50.67578125 4.5725 -50.67578125 8.3125 C-50.01578125 8.3125 -49.35578125 8.3125 -48.67578125 8.3125 C-48.43472656 7.55324219 -48.19367187 6.79398438 -47.9453125 6.01171875 C-46.48088328 2.89811692 -45.247011 1.93278353 -42.36328125 0.125 C-41.60402344 -0.36355469 -40.84476563 -0.85210937 -40.0625 -1.35546875 C-27.83214887 -8.18124573 -12.10977278 -6.07598356 0 0 Z M-47.67578125 26.3125 C-48.62623269 29.16385433 -48.80228334 30.93170809 -48.80517578 33.88818359 C-48.80832794 34.81279388 -48.8114801 35.73740417 -48.81472778 36.69003296 C-48.81270355 37.68693146 -48.81067932 38.68382996 -48.80859375 39.7109375 C-48.80955048 40.7380484 -48.8105072 41.7651593 -48.81149292 42.82339478 C-48.8121737 44.99717266 -48.8103265 47.17095258 -48.80615234 49.34472656 C-48.8008136 52.66736442 -48.80609516 55.98986642 -48.8125 59.3125 C-48.81183899 61.42447946 -48.81055734 63.53645884 -48.80859375 65.6484375 C-48.81061798 66.64128754 -48.81264221 67.63413757 -48.81472778 68.65707397 C-48.81157562 69.58798859 -48.80842346 70.5189032 -48.80517578 71.47802734 C-48.80438019 72.29282562 -48.80358459 73.1076239 -48.80276489 73.94711304 C-48.62451318 78.85220626 -48.62451318 78.85220626 -46.14453125 82.82421875 C-39.61509975 86.72374034 -33.59029624 89.09838087 -25.92578125 87.6875 C-20.68676183 86.24540058 -17.7383106 84.03453033 -14.86328125 79.375 C-13.70772438 76.39487965 -13.39763704 74.46480109 -13.67578125 71.3125 C-13.01578125 71.3125 -12.35578125 71.3125 -11.67578125 71.3125 C-11.67578125 69.3325 -11.67578125 67.3525 -11.67578125 65.3125 C-11.01578125 65.3125 -10.35578125 65.3125 -9.67578125 65.3125 C-9.58766211 61.97933723 -9.53501928 58.64647953 -9.48828125 55.3125 C-9.46314453 54.37792969 -9.43800781 53.44335938 -9.41210938 52.48046875 C-9.34742684 46.31406672 -10.1793998 41.95247291 -12.67578125 36.3125 C-13.17578125 34.91666667 -13.67578125 33.52083333 -14.17578125 32.125 C-16.29036096 26.56605335 -18.14954482 23.00822509 -23.67578125 20.3125 C-32.23898787 17.17265757 -41.34608989 20.17461747 -47.67578125 26.3125 Z " fill="#434443" transform="translate(665.67578125,184.6875)"/>
<path d="M0 0 C1.62820679 0.00749268 1.62820679 0.00749268 3.28930664 0.01513672 C17.07198859 0.30974701 29.63214566 3.34962827 40.9375 11.5 C41.9275 12.16 42.9175 12.82 43.9375 13.5 C43.9375 14.16 43.9375 14.82 43.9375 15.5 C44.576875 15.768125 45.21625 16.03625 45.875 16.3125 C47.9375 17.5 47.9375 17.5 48.9375 20.5 C49.5975 20.5 50.2575 20.5 50.9375 20.5 C56.67781891 30.87357631 56.67781891 30.87357631 55.9375 36.5 C56.5975 36.5 57.2575 36.5 57.9375 36.5 C57.9375 40.13 57.9375 43.76 57.9375 47.5 C58.5975 47.5 59.2575 47.5 59.9375 47.5 C59.9375 50.14 59.9375 52.78 59.9375 55.5 C57.0155231 56.96098845 54.43856525 56.61134901 51.1796875 56.59765625 C50.18511032 56.59553383 50.18511032 56.59553383 49.17044067 56.59336853 C47.05108137 56.58776754 44.93182741 56.575215 42.8125 56.5625 C41.37630361 56.55748512 39.94010556 56.55292219 38.50390625 56.54882812 C34.98173655 56.53779782 31.45962855 56.52053259 27.9375 56.5 C26.46894019 52.27982285 25.61026704 48.59150556 25.3125 44.125 C25.20035156 42.53558594 25.20035156 42.53558594 25.0859375 40.9140625 C25.03695312 40.11742187 24.98796875 39.32078125 24.9375 38.5 C24.2775 38.5 23.6175 38.5 22.9375 38.5 C22.9375 37.51 22.9375 36.52 22.9375 35.5 C22.2775 35.5 21.6175 35.5 20.9375 35.5 C18.3125 33.125 18.3125 33.125 15.9375 30.5 C15.9375 29.84 15.9375 29.18 15.9375 28.5 C7.20847832 26.09199402 -3.25380653 24.26838904 -11.75 28.25 C-14.54728209 29.92001916 -16.28833611 31.7401895 -18.0625 34.5 C-18.7225 34.5 -19.3825 34.5 -20.0625 34.5 C-20.0625 35.16 -20.0625 35.82 -20.0625 36.5 C-20.7225 36.5 -21.3825 36.5 -22.0625 36.5 C-23.0525 39.8 -24.0425 43.1 -25.0625 46.5 C-25.7225 46.5 -26.3825 46.5 -27.0625 46.5 C-27.0625 49.14 -27.0625 51.78 -27.0625 54.5 C-27.7225 54.5 -28.3825 54.5 -29.0625 54.5 C-29.0625 70.34 -29.0625 86.18 -29.0625 102.5 C-28.4025 102.5 -27.7425 102.5 -27.0625 102.5 C-27.0625 104.81 -27.0625 107.12 -27.0625 109.5 C-26.4025 109.5 -25.7425 109.5 -25.0625 109.5 C-24.55634702 110.76839526 -24.05780901 112.03983102 -23.5625 113.3125 C-23.2840625 114.02019531 -23.005625 114.72789062 -22.71875 115.45703125 C-22.0625 117.5 -22.0625 117.5 -22.0625 120.5 C-21.4025 120.5 -20.7425 120.5 -20.0625 120.5 C-17.4375 122.875 -17.4375 122.875 -15.0625 125.5 C-15.0625 126.16 -15.0625 126.82 -15.0625 127.5 C-4.81343404 131.46738037 5.91568136 132.09911964 16.36328125 128.44921875 C18.29195992 127.51850299 18.29195992 127.51850299 18.9375 124.5 C19.5975 124.5 20.2575 124.5 20.9375 124.5 C20.9375 123.84 20.9375 123.18 20.9375 122.5 C21.5975 122.5 22.2575 122.5 22.9375 122.5 C22.9375 121.18 22.9375 119.86 22.9375 118.5 C23.5975 118.5 24.2575 118.5 24.9375 118.5 C25.01097656 117.03626953 25.01097656 117.03626953 25.0859375 115.54296875 C25.16070312 114.27066406 25.23546875 112.99835938 25.3125 111.6875 C25.38210938 110.42292969 25.45171875 109.15835938 25.5234375 107.85546875 C25.9375 104.5 25.9375 104.5 27.9375 101.5 C31.01025391 101.15942383 31.01025391 101.15942383 34.9140625 101.20703125 C35.59931 101.21127609 36.2845575 101.21552094 36.99057007 101.21989441 C39.18161129 101.23670247 41.37173632 101.27435595 43.5625 101.3125 C45.04686173 101.32754421 46.53123785 101.34123307 48.015625 101.35351562 C51.65654833 101.3866121 55.29693478 101.43840793 58.9375 101.5 C59.2675 103.15 59.5975 104.8 59.9375 106.5 C59.2775 106.5 58.6175 106.5 57.9375 106.5 C57.9375 110.79 57.9375 115.08 57.9375 119.5 C57.2775 119.5 56.6175 119.5 55.9375 119.5 C55.94652344 120.11746094 55.95554687 120.73492187 55.96484375 121.37109375 C55.69763092 129.00408641 53.05523339 132.99871057 47.9375 138.5 C47.133125 139.386875 46.32875 140.27375 45.5 141.1875 C31.85304112 153.50304826 14.62446915 157.4399383 -3.53515625 156.84375 C-18.60440253 155.94236377 -33.28639835 150.27610165 -44.0625 139.5 C-44.0625 138.84 -44.0625 138.18 -44.0625 137.5 C-44.7225 137.5 -45.3825 137.5 -46.0625 137.5 C-46.0625 136.84 -46.0625 136.18 -46.0625 135.5 C-46.7225 135.5 -47.3825 135.5 -48.0625 135.5 C-51.0625 131.11538462 -51.0625 131.11538462 -51.0625 128.5 C-51.7225 128.5 -52.3825 128.5 -53.0625 128.5 C-53.0625 127.51 -53.0625 126.52 -53.0625 125.5 C-53.7225 125.5 -54.3825 125.5 -55.0625 125.5 C-55.0625 124.18 -55.0625 122.86 -55.0625 121.5 C-55.7225 121.5 -56.3825 121.5 -57.0625 121.5 C-59.87695277 114.76978685 -60.50254862 108.64775593 -60.77124023 101.44165039 C-60.90125728 97.33030923 -60.90125728 97.33030923 -61.6484375 93.30078125 C-62.0625 91.5 -62.0625 91.5 -61.6015625 89.44067383 C-60.87885409 85.49818162 -60.8874156 81.64870376 -60.8515625 77.6484375 C-60.82347624 75.89191805 -60.79481167 74.13540776 -60.765625 72.37890625 C-60.72456561 69.63428178 -60.68764319 66.88982517 -60.66113281 64.14501953 C-60.45578003 44.54091008 -60.45578003 44.54091008 -57.0625 35.5 C-56.4025 35.5 -55.7425 35.5 -55.0625 35.5 C-55.0625 34.18 -55.0625 32.86 -55.0625 31.5 C-54.4025 31.5 -53.7425 31.5 -53.0625 31.5 C-53.0625 30.51 -53.0625 29.52 -53.0625 28.5 C-52.4025 28.5 -51.7425 28.5 -51.0625 28.5 C-50.93875 27.736875 -50.815 26.97375 -50.6875 26.1875 C-50.0625 23.5 -50.0625 23.5 -48.0625 20.5 C-47.4025 20.5 -46.7425 20.5 -46.0625 20.5 C-46.0625 19.84 -46.0625 19.18 -46.0625 18.5 C-45.4025 18.5 -44.7425 18.5 -44.0625 18.5 C-43.82660156 17.9121875 -43.59070313 17.324375 -43.34765625 16.71875 C-38.63497725 8.5825747 -26.6328284 4.46105062 -18.03125 1.921875 C-11.98110052 0.31038423 -6.24061669 -0.03809721 0 0 Z " fill="#3F403F" transform="translate(323.0625,140.5)"/>
<path d="M0 0 C1.13743652 0.00064453 2.27487305 0.00128906 3.44677734 0.00195312 C12.54124464 0.16239045 20.04928601 1.68201334 28.3125 5.5 C28.3125 6.16 28.3125 6.82 28.3125 7.5 C29.488125 7.9640625 29.488125 7.9640625 30.6875 8.4375 C33.3125 9.5 33.3125 9.5 35.3125 10.5 C35.3125 11.16 35.3125 11.82 35.3125 12.5 C35.910625 12.726875 36.50875 12.95375 37.125 13.1875 C39.94490835 14.87944501 40.90847086 16.55153881 42.3125 19.5 C42.3125 20.82 42.3125 22.14 42.3125 23.5 C42.9725 23.5 43.6325 23.5 44.3125 23.5 C44.3125 25.15 44.3125 26.8 44.3125 28.5 C44.9725 28.5 45.6325 28.5 46.3125 28.5 C46.32058685 29.33192368 46.32867371 30.16384735 46.33700562 31.02098083 C46.41520246 38.89144284 46.5025673 46.76173961 46.60002708 54.63198757 C46.64980472 58.67739422 46.69613512 62.72277708 46.734375 66.76831055 C46.77146355 70.67824602 46.81788467 74.58797295 46.87056351 78.49772835 C46.88898308 79.98348363 46.90413605 81.4692834 46.91584396 82.95510674 C46.97921028 90.7242934 47.33006051 97.95322451 49.3125 105.5 C49.4375 109.0625 49.4375 109.0625 49.3125 111.5 C49.9725 111.5 50.6325 111.5 51.3125 111.5 C51.3125 112.49 51.3125 113.48 51.3125 114.5 C40.4225 114.5 29.5325 114.5 18.3125 114.5 C18.3125 113.51 18.3125 112.52 18.3125 111.5 C17.6525 111.5 16.9925 111.5 16.3125 111.5 C16.3125 107.54 16.3125 103.58 16.3125 99.5 C15.6525 99.5 14.9925 99.5 14.3125 99.5 C14.3125 100.16 14.3125 100.82 14.3125 101.5 C13.6525 101.5 12.9925 101.5 12.3125 101.5 C12.23128906 102.07621094 12.15007812 102.65242188 12.06640625 103.24609375 C10.36293615 108.3388515 4.72106089 112.26203339 0.078125 114.6484375 C-10.94655086 118.83449864 -21.58442969 118.35147154 -32.6875 114.5 C-35.81333827 113.01234893 -38.77116243 111.36321567 -41.6875 109.5 C-41.6875 108.84 -41.6875 108.18 -41.6875 107.5 C-43.0075 106.84 -44.3275 106.18 -45.6875 105.5 C-45.6875 104.84 -45.6875 104.18 -45.6875 103.5 C-46.3475 103.5 -47.0075 103.5 -47.6875 103.5 C-51.72898298 97.53451315 -51.20257128 91.18434066 -51.1875 84.1875 C-51.21585937 83.00220703 -51.24421875 81.81691406 -51.2734375 80.59570312 C-51.29041015 72.94527978 -50.20437452 67.74349284 -45.6875 61.5 C-45.0275 61.5 -44.3675 61.5 -43.6875 61.5 C-43.6875 60.84 -43.6875 60.18 -43.6875 59.5 C-42 58.09765625 -42 58.09765625 -39.6875 56.5625 C-38.945 56.05847656 -38.2025 55.55445313 -37.4375 55.03515625 C-31.50366773 51.72266181 -25.29890389 49.932998 -18.625 48.8125 C-17.87492676 48.68512451 -17.12485352 48.55774902 -16.35205078 48.42651367 C-6.19743521 46.89313998 4.0744464 47.23302749 14.3125 47.5 C14.00089539 45.29154015 13.68817654 43.08323749 13.375 40.875 C13.20097656 39.64523438 13.02695312 38.41546875 12.84765625 37.1484375 C12.37475699 33.92443816 11.86098998 30.71187824 11.3125 27.5 C2.71119531 24.15504817 -3.83944251 23.5506475 -12.6875 26.5 C-12.77 27.5725 -12.8525 28.645 -12.9375 29.75 C-13.77488338 33.93691688 -14.32450682 34.99804311 -17.6875 37.5 C-20.89550781 37.86230469 -20.89550781 37.86230469 -24.640625 37.671875 C-25.63095734 37.63009125 -25.63095734 37.63009125 -26.64129639 37.58746338 C-28.74147841 37.49439412 -30.83885714 37.37262922 -32.9375 37.25 C-34.36449363 37.18169336 -35.79157854 37.11526583 -37.21875 37.05078125 C-40.70965461 36.88894575 -44.19862632 36.70135423 -47.6875 36.5 C-47.71462808 35.06390719 -47.73395401 33.62766563 -47.75 32.19140625 C-47.76160156 31.39162354 -47.77320313 30.59184082 -47.78515625 29.76782227 C-47.66702732 27.02457312 -46.94254042 24.93164081 -45.6875 22.5 C-45.0275 22.5 -44.3675 22.5 -43.6875 22.5 C-43.605 21.96375 -43.5225 21.4275 -43.4375 20.875 C-42.39857002 17.58505507 -40.79944041 15.21535195 -38.6875 12.5 C-36.4375 11.625 -36.4375 11.625 -34.6875 11.5 C-34.6875 10.84 -34.6875 10.18 -34.6875 9.5 C-32.90149431 8.55175986 -31.10829755 7.61706271 -29.3125 6.6875 C-28.31476563 6.16542969 -27.31703125 5.64335937 -26.2890625 5.10546875 C-17.49068787 1.18341672 -9.61925757 -0.05090302 0 0 Z M-15.6875 70.5 C-15.6875 71.16 -15.6875 71.82 -15.6875 72.5 C-16.3475 72.5 -17.0075 72.5 -17.6875 72.5 C-17.6875 73.49 -17.6875 74.48 -17.6875 75.5 C-18.3475 75.5 -19.0075 75.5 -19.6875 75.5 C-19.6875 79.46 -19.6875 83.42 -19.6875 87.5 C-19.0275 87.5 -18.3675 87.5 -17.6875 87.5 C-17.6875 88.49 -17.6875 89.48 -17.6875 90.5 C-12.99830588 94.18871671 -8.67349925 94.05200225 -2.921875 93.921875 C3.45200032 93.09049996 8.23512946 89.36148026 12.3125 84.5 C14.69346012 80.8474877 14.54886148 77.59898416 14.5 73.3125 C14.49033203 71.43498047 14.49033203 71.43498047 14.48046875 69.51953125 C14.65581406 66.6210669 14.65581406 66.6210669 13.3125 65.5 C-2.13844349 64.4061891 -2.13844349 64.4061891 -15.6875 70.5 Z " fill="#424342" transform="translate(444.6875,179.5)"/>
<path d="M0 0 C0.75152344 0.36867187 1.50304687 0.73734375 2.27734375 1.1171875 C5.21982168 2.66966052 7.94955966 4.34648898 10 7 C10 7.66 10 8.32 10 9 C10.66 9 11.32 9 12 9 C12 9.66 12 10.32 12 11 C12.66 11 13.32 11 14 11 C16.29648649 13.5614657 17 14.47967572 17 18 C17.66 18 18.32 18 19 18 C19 19.32 19 20.64 19 22 C19.66 22 20.32 22 21 22 C21.46246708 23.33190519 21.91969155 24.6656307 22.375 26 C22.63023437 26.7425 22.88546875 27.485 23.1484375 28.25 C23.42945313 29.1575 23.71046875 30.065 24 31 C24.35835937 32.11246094 24.71671875 33.22492188 25.0859375 34.37109375 C26.50219595 40.17081494 26.29821754 46.10013744 26.26074219 52.03637695 C26.25000443 54.06166392 26.26069231 56.08606778 26.2734375 58.11132812 C26.27085937 59.40619141 26.26828125 60.70105469 26.265625 62.03515625 C26.26336914 63.2044165 26.26111328 64.37367676 26.25878906 65.57836914 C25.97856129 69.2834562 25.13149321 72.46849944 24 76 C23.7421875 76.82886719 23.484375 77.65773438 23.21875 78.51171875 C22.9815625 79.22972656 22.744375 79.94773437 22.5 80.6875 C22.2628125 81.41324219 22.025625 82.13898438 21.78125 82.88671875 C20.99404022 85.01612122 20.05251051 86.99024933 19 89 C18.34 89 17.68 89 17 89 C16.773125 89.721875 16.54625 90.44375 16.3125 91.1875 C14.73664872 94.56432417 12.79123384 96.55767039 10 99 C9.34 99 8.68 99 8 99 C8 99.66 8 100.32 8 101 C6.35 101.66 4.7 102.32 3 103 C3 103.66 3 104.32 3 105 C0.83514843 105.79661673 -1.33198125 106.58704361 -3.5 107.375 C-5.30984375 108.03628906 -5.30984375 108.03628906 -7.15625 108.7109375 C-21.78161484 113.75934395 -36.49132386 113.47623219 -51 108 C-54.5215733 106.23244976 -57.77470049 104.25770965 -61 102 C-62.485 101.01 -62.485 101.01 -64 100 C-64 99.34 -64 98.68 -64 98 C-65.485 97.505 -65.485 97.505 -67 97 C-68.1875 94.4375 -68.1875 94.4375 -69 92 C-69.66 92 -70.32 92 -71 92 C-71.84114171 90.56705502 -72.67265687 89.12845595 -73.5 87.6875 C-73.9640625 86.88699219 -74.428125 86.08648437 -74.90625 85.26171875 C-76 83 -76 83 -76 80 C-76.66 80 -77.32 80 -78 80 C-78 77.36 -78 74.72 -78 72 C-78.66 72 -79.32 72 -80 72 C-80.06058594 71.28972656 -80.12117187 70.57945312 -80.18359375 69.84765625 C-80.30927734 68.46900391 -80.30927734 68.46900391 -80.4375 67.0625 C-80.55931641 65.68771484 -80.55931641 65.68771484 -80.68359375 64.28515625 C-80.76044976 62.03840268 -80.76044976 62.03840268 -82 61 C-82.09975032 58.48863896 -82.13882183 56.01096585 -82.125 53.5 C-82.12886719 52.79746094 -82.13273438 52.09492188 -82.13671875 51.37109375 C-82.12661378 46.12661378 -82.12661378 46.12661378 -81 45 C-80.79300437 43.50503158 -80.63320741 42.0033408 -80.5 40.5 C-80.11111111 36.11111111 -80.11111111 36.11111111 -79 35 C-78.63239269 32.67182036 -78.29758419 30.3381615 -78 28 C-77.34 28 -76.68 28 -76 28 C-75.87625 26.9275 -75.7525 25.855 -75.625 24.75 C-75.10356064 21.62136385 -74.59911746 19.66519576 -73 17 C-72.34 17 -71.68 17 -71 17 C-71 16.01 -71 15.02 -71 14 C-70.34 14 -69.68 14 -69 14 C-68.690625 13.38125 -68.38125 12.7625 -68.0625 12.125 C-67.375 10.75 -66.6875 9.375 -66 8 C-65.34 8 -64.68 8 -64 8 C-64 7.34 -64 6.68 -64 6 C-62.68 5.67 -61.36 5.34 -60 5 C-60 4.34 -60 3.68 -60 3 C-58.14985947 2.03391677 -56.29466527 1.0775093 -54.4375 0.125 C-53.40496094 -0.40867188 -52.37242187 -0.94234375 -51.30859375 -1.4921875 C-36.2209998 -8.36799773 -14.65344446 -7.6433764 0 0 Z M-39.9375 23.75 C-46.25210533 29.8719061 -48.06379022 37.73489234 -48.30078125 46.23828125 C-48.31531254 48.59631263 -48.31891826 50.95443258 -48.3125 53.3125 C-48.32861328 54.48490234 -48.34472656 55.65730469 -48.36132812 56.86523438 C-48.3653609 64.08793763 -47.55984578 70.23088833 -45 77 C-44.34 77 -43.68 77 -43 77 C-42.814375 77.7425 -42.62875 78.485 -42.4375 79.25 C-40.37792196 83.19006234 -37.95076024 84.02461988 -34 86 C-33.34 86.33 -32.68 86.66 -32 87 C-26.99426773 87.41915955 -22.46595235 87.6323716 -17.8125 85.625 C-17.214375 85.08875 -16.61625 84.5525 -16 84 C-16 83.34 -16 82.68 -16 82 C-15.01 81.67 -14.02 81.34 -13 81 C-10.63019987 78.04622502 -10.63019987 78.04622502 -11 74 C-10.34 74 -9.68 74 -9 74 C-6.92581121 69.73319988 -6.7671238 66.22596288 -6.8046875 61.51171875 C-6.80893234 60.4569207 -6.80893234 60.4569207 -6.81326294 59.3808136 C-6.82439849 57.14953108 -6.84949003 54.91865983 -6.875 52.6875 C-6.8850384 51.16862562 -6.89416274 49.6497449 -6.90234375 48.13085938 C-6.92431587 44.42044079 -6.95879953 40.71026058 -7 37 C-7.66 37 -8.32 37 -9 37 C-9 35.35 -9 33.7 -9 32 C-9.66 32 -10.32 32 -11 32 C-11.061875 31.278125 -11.12375 30.55625 -11.1875 29.8125 C-12.55814945 25.06794422 -16.00504304 22.66330464 -20 20 C-26.89510331 17.98192098 -34.3340128 19.22684614 -39.9375 23.75 Z " fill="#434443" transform="translate(780,185)"/>
<path d="M0 0 C0.09765625 6.15234375 0.09765625 6.15234375 0 8 C-0.33 8.33 -0.66 8.66 -1 9 C-1.20699563 10.49496842 -1.36679259 11.9966592 -1.5 13.5 C-1.88888889 17.88888889 -1.88888889 17.88888889 -3 19 C-3.23192865 20.51469448 -3.41215238 22.03754562 -3.5625 23.5625 C-3.64628906 24.38878906 -3.73007812 25.21507812 -3.81640625 26.06640625 C-3.90728516 27.02353516 -3.90728516 27.02353516 -4 28 C-5.07378906 27.97679687 -6.14757812 27.95359375 -7.25390625 27.9296875 C-8.69009715 27.91091376 -10.12629565 27.8927153 -11.5625 27.875 C-12.26697266 27.85824219 -12.97144531 27.84148437 -13.69726562 27.82421875 C-18.51891822 27.77977956 -22.42297438 28.47231996 -27 30 C-27 30.66 -27 31.32 -27 32 C-27.64874084 32.54609924 -28.29748169 33.09219849 -28.96588135 33.65484619 C-31.70783176 36.81606565 -31.57437116 39.52849945 -31.54589844 43.52246094 C-31.55623611 44.27406998 -31.56657379 45.02567902 -31.57722473 45.80006409 C-31.60666554 48.27838608 -31.60815211 50.75589184 -31.609375 53.234375 C-31.62435586 54.95503295 -31.64108281 56.67567651 -31.65948486 58.39630127 C-31.7031815 62.92051858 -31.72316251 67.44454191 -31.73822021 71.96893311 C-31.75778302 76.58747845 -31.79975393 81.20581404 -31.83984375 85.82421875 C-31.91517113 94.88278334 -31.96337581 103.94119616 -32 113 C-42.89 113 -53.78 113 -65 113 C-65 76.04 -65 39.08 -65 1 C-62.25475448 -0.37262276 -60.03780705 -0.1296881 -56.96875 -0.1328125 C-55.76605469 -0.13410156 -54.56335938 -0.13539063 -53.32421875 -0.13671875 C-52.06222656 -0.13285156 -50.80023437 -0.12898437 -49.5 -0.125 C-47.60701172 -0.13080078 -47.60701172 -0.13080078 -45.67578125 -0.13671875 C-44.47308594 -0.13542969 -43.27039063 -0.13414062 -42.03125 -0.1328125 C-40.92330078 -0.13168457 -39.81535156 -0.13055664 -38.67382812 -0.12939453 C-36 0 -36 0 -34 1 C-34 5.29 -34 9.58 -34 14 C-30.75150023 12.27773504 -30.75150023 12.27773504 -30 9 C-29.34 9 -28.68 9 -28 9 C-28 8.01 -28 7.02 -28 6 C-27.34 6 -26.68 6 -26 6 C-25.67 5.01 -25.34 4.02 -25 3 C-18.59748174 -1.48176278 -7.34166424 -3.67083212 0 0 Z " fill="#474847" transform="translate(576,181)"/>
<path d="M0 0 C0.17126944 1.97877367 0.3367463 3.95804889 0.5 5.9375 C0.5928125 7.03964844 0.685625 8.14179688 0.78125 9.27734375 C1.21247863 16.615931 0.98789633 23.75809568 0.1875 31.0625 C0.11724609 31.81337891 0.04699219 32.56425781 -0.02539062 33.33789062 C-0.59579069 38.61751366 -1.95818457 43.11328658 -4 48 C-4.31582031 48.85207031 -4.63164062 49.70414063 -4.95703125 50.58203125 C-7.4331996 57.03815969 -10.57699135 62.99832483 -14 69 C-14.66 69 -15.32 69 -16 69 C-16.309375 69.78375 -16.61875 70.5675 -16.9375 71.375 C-18 74 -18 74 -19 76 C-19.66 76 -20.32 76 -21 76 C-21 76.66 -21 77.32 -21 78 C-21.66 78 -22.32 78 -23 78 C-23.24492187 78.57234375 -23.48984375 79.1446875 -23.7421875 79.734375 C-25.21110099 82.38024402 -26.95348244 84.14853139 -29.125 86.25 C-29.84945312 86.95640625 -30.57390625 87.6628125 -31.3203125 88.390625 C-32.15175781 89.18726563 -32.15175781 89.18726563 -33 90 C-33.66 89.67 -34.32 89.34 -35 89 C-34.07380859 88.12601563 -34.07380859 88.12601563 -33.12890625 87.234375 C-16.92876287 71.55204442 -2.64683002 49.43878258 -1.90942383 26.13793945 C-1.8659079 22.82041617 -1.86359218 19.50527296 -1.875 16.1875 C-1.87113281 15.04345703 -1.86726563 13.89941406 -1.86328125 12.72070312 C-1.86457031 11.63080078 -1.86585938 10.54089844 -1.8671875 9.41796875 C-1.86887939 7.92946411 -1.86887939 7.92946411 -1.87060547 6.41088867 C-1.84001755 3.98776893 -1.84001755 3.98776893 -3 2 C-6.95820859 2.56545837 -9.6659053 3.80902348 -13 6 C-10.7550766 -0.7347702 -6.22920273 -0.31146014 0 0 Z " fill="#EDD2D5" transform="translate(239,195)"/>
<path d="M0 0 C0.66 0 1.32 0 2 0 C0.9749792 3.23275789 -0.14254121 6.32665695 -1.5 9.4375 C-4.8701623 17.44163547 -5.33185844 24.15807338 -5.37109375 32.80859375 C-5.38012222 34.04811295 -5.3891507 35.28763214 -5.39845276 36.56471252 C-5.41293443 39.18626502 -5.4218368 41.80785348 -5.42553711 44.42944336 C-5.43193112 48.39288678 -5.48652471 52.35523557 -5.53710938 56.31835938 C-5.65344324 74.44236135 -4.38046854 88.65619268 6 104 C7.0079169 105.66189088 8.00992531 107.3274182 9 109 C8.34 109 7.68 109 7 109 C7 108.34 7 107.68 7 107 C6.34 107 5.68 107 5 107 C2 102.61538462 2 102.61538462 2 100 C1.34 100 0.68 100 0 100 C0 99.01 0 98.02 0 97 C-0.66 97 -1.32 97 -2 97 C-2 95.68 -2 94.36 -2 93 C-2.66 93 -3.32 93 -4 93 C-6.81445277 86.26978685 -7.44004862 80.14775593 -7.70874023 72.94165039 C-7.83875728 68.83030923 -7.83875728 68.83030923 -8.5859375 64.80078125 C-9 63 -9 63 -8.5390625 60.94067383 C-7.81635409 56.99818162 -7.8249156 53.14870376 -7.7890625 49.1484375 C-7.76097624 47.39191805 -7.73231167 45.63540776 -7.703125 43.87890625 C-7.66206561 41.13428178 -7.62514319 38.38982517 -7.59863281 35.64501953 C-7.39328003 16.04091008 -7.39328003 16.04091008 -4 7 C-3.34 7 -2.68 7 -2 7 C-2 5.68 -2 4.36 -2 3 C-1.34 3 -0.68 3 0 3 C0 2.01 0 1.02 0 0 Z " fill="#BBBBBB" transform="translate(270,169)"/>
<path d="M0 0 C0.66 0 1.32 0 2 0 C8.02374947 16.32486727 8.25990637 39.18817702 4 56 C3.0513576 57.69642429 2.05857415 59.36990842 1 61 C0.30420546 63.19130534 0.30420546 63.19130534 0 65 C-0.66 65 -1.32 65 -2 65 C-2.185625 66.1446875 -2.185625 66.1446875 -2.375 67.3125 C-3 70 -3 70 -5 73 C-5.66 73 -6.32 73 -7 73 C-7 73.66 -7 74.32 -7 75 C-7.66 74.67 -8.32 74.34 -9 74 C-8.62488281 73.42894531 -8.24976563 72.85789062 -7.86328125 72.26953125 C0.75968423 58.60745244 3.18256179 46.30727671 3.25 30.375 C3.2809375 28.58255859 3.2809375 28.58255859 3.3125 26.75390625 C3.34451287 19.36693602 2.54129814 12.77688161 0.64746094 5.63134766 C0 3 0 3 0 0 Z " fill="#E2E2E2" transform="translate(682,209)"/>
<path d="M0 0 C4.23799143 4.23799143 4 10.35301795 4 16 C13.57 16 23.14 16 33 16 C33 13.69 33 11.38 33 9 C33.66 9 34.32 9 35 9 C35 11.64 35 14.28 35 17 C32.0780231 18.46098845 29.50106525 18.11134901 26.2421875 18.09765625 C25.24761032 18.09553383 25.24761032 18.09553383 24.23294067 18.09336853 C22.11358137 18.08776754 19.99432741 18.075215 17.875 18.0625 C16.43880361 18.05748512 15.00260556 18.05292219 13.56640625 18.04882812 C10.04423655 18.03779782 6.52212855 18.02053259 3 18 C1.53144019 13.77982285 0.67276704 10.09150556 0.375 5.625 C0.30023438 4.56539062 0.22546875 3.50578125 0.1484375 2.4140625 C0.09945313 1.61742187 0.05046875 0.82078125 0 0 Z " fill="#BCBCBC" transform="translate(348,179)"/>
<path d="M0 0 C0.66 0 1.32 0 2 0 C1.79503906 0.9178125 1.59007812 1.835625 1.37890625 2.78125 C1.10949219 4.0084375 0.84007812 5.235625 0.5625 6.5 C0.29566406 7.7065625 0.02882813 8.913125 -0.24609375 10.15625 C-1.98497787 19.02185607 -2.12209991 27.47749093 -2.0625 36.5 C-2.05798828 37.799375 -2.05347656 39.09875 -2.04882812 40.4375 C-2.0371092 43.62504825 -2.02070219 46.81249955 -2 50 C-2.66 50 -3.32 50 -4 50 C-5.30010703 44.04633527 -5.14704979 38.12251795 -5.125 32.0625 C-5.12886719 31.00353516 -5.13273437 29.94457031 -5.13671875 28.85351562 C-5.11833424 14.11833424 -5.11833424 14.11833424 -3 12 C-2.63239269 9.67182036 -2.29758419 7.3381615 -2 5 C-1.34 5 -0.68 5 0 5 C0 3.35 0 1.7 0 0 Z " fill="#EDE4E5" transform="translate(45,178)"/>
<path d="M0 0 C3.07275391 -0.34057617 3.07275391 -0.34057617 6.9765625 -0.29296875 C7.66181 -0.28872391 8.3470575 -0.28447906 9.05307007 -0.28010559 C11.24411129 -0.26329753 13.43423632 -0.22564405 15.625 -0.1875 C17.10936173 -0.17245579 18.59373785 -0.15876693 20.078125 -0.14648438 C23.71904833 -0.1133879 27.35943478 -0.06159207 31 0 C31.495 2.475 31.495 2.475 32 5 C31.34 5 30.68 5 30 5 C30 9.29 30 13.58 30 18 C29.34 18 28.68 18 28 18 C28.33 12.39 28.66 6.78 29 1 C19.76 1 10.52 1 1 1 C0.67 4.63 0.34 8.26 0 12 C-0.66 13.65 -1.32 15.3 -2 17 C-2.33 17 -2.66 17 -3 17 C-2.88597936 14.72858891 -2.75841495 12.45785448 -2.625 10.1875 C-2.55539062 8.92292969 -2.48578125 7.65835938 -2.4140625 6.35546875 C-2 3 -2 3 0 0 Z " fill="#C7C7C7" transform="translate(351,242)"/>
<path d="M0 0 C4.2967595 0.57342494 7.18479721 2.10158964 10.8125 4.4375 C11.78832031 5.05496094 12.76414063 5.67242187 13.76953125 6.30859375 C14.50558594 6.86675781 15.24164063 7.42492187 16 8 C16 8.66 16 9.32 16 10 C16.8971875 10.433125 16.8971875 10.433125 17.8125 10.875 C20 12 20 12 23 14 C23 14.66 23 15.32 23 16 C23.66 16 24.32 16 25 16 C25 16.66 25 17.32 25 18 C25.639375 18.268125 26.27875 18.53625 26.9375 18.8125 C29 20 29 20 30 23 C30.45933014 30.23444976 30.45933014 30.23444976 28.5 33.5 C28.005 33.995 27.51 34.49 27 35 C26.34 34.67 25.68 34.34 25 34 C25.66 33.01 26.32 32.02 27 31 C27.83419917 27.82876955 27.79767088 25.1805864 27 22 C22.30722094 15.13769495 14.84678157 10.57232257 8.015625 6.04296875 C5.22136548 4.14996651 2.60332831 2.14533536 0 0 Z " fill="#ECDCDE" transform="translate(186,123)"/>
<path d="M0 0 C8.56971521 0.55889447 16.24616723 4.8457592 23 10 C23 10.66 23 11.32 23 12 C23.639375 12.268125 24.27875 12.53625 24.9375 12.8125 C27 14 27 14 28 17 C28.66 17 29.32 17 30 17 C30.84584998 18.55575978 31.67618399 20.1199612 32.5 21.6875 C32.9640625 22.55761719 33.428125 23.42773438 33.90625 24.32421875 C35.04818792 27.11788829 35.21504208 29.01629113 35 32 C33.20040916 29.30061374 31.78311717 26.63482711 30.3125 23.75 C23.58835441 11.45210481 12.8860376 5.66090722 0 1 C0 0.67 0 0.34 0 0 Z " fill="#E1E1E1" transform="translate(344,144)"/>
<path d="M0 0 C0.66 0 1.32 0 2 0 C1.34 4.29 0.68 8.58 0 13 C9.57 13 19.14 13 29 13 C29.33 11.02 29.66 9.04 30 7 C31.5625 5.125 31.5625 5.125 33 4 C32.51631398 10.28791827 32.51631398 10.28791827 30.38769531 13.22363281 C27.11657226 15.65724133 25.08513655 15.37721033 21.046875 15.171875 C20.05654266 15.13009125 20.05654266 15.13009125 19.04620361 15.08746338 C16.94602159 14.99439412 14.84864286 14.87262922 12.75 14.75 C11.32300637 14.68169336 9.89592146 14.61526583 8.46875 14.55078125 C4.97784539 14.38894575 1.48887368 14.20135423 -2 14 C-2.02712808 12.56390719 -2.04645401 11.12766563 -2.0625 9.69140625 C-2.07410156 8.89162354 -2.08570313 8.09184082 -2.09765625 7.26782227 C-1.97952732 4.52457312 -1.25504042 2.43164081 0 0 Z " fill="#B1B1B1" transform="translate(399,202)"/>
<path d="M0 0 C1.55977064 3.11954128 1.12104126 6.42959384 1.09765625 9.8515625 C1.0962413 10.62559418 1.09482635 11.39962585 1.09336853 12.19711304 C1.08776403 14.67311442 1.07521083 17.14902588 1.0625 19.625 C1.05748558 21.30208203 1.05292257 22.97916547 1.04882812 24.65625 C1.03779315 28.77086806 1.02052554 32.88541878 1 37 C0.34 37 -0.32 37 -1 37 C-1.09087891 35.93458984 -1.09087891 35.93458984 -1.18359375 34.84765625 C-1.26738281 33.92855469 -1.35117187 33.00945312 -1.4375 32.0625 C-1.51871094 31.14597656 -1.59992187 30.22945312 -1.68359375 29.28515625 C-1.76044976 27.03840268 -1.76044976 27.03840268 -3 26 C-3.09975032 23.48863896 -3.13882183 21.01096585 -3.125 18.5 C-3.12886719 17.79746094 -3.13273438 17.09492188 -3.13671875 16.37109375 C-3.12661378 11.12661378 -3.12661378 11.12661378 -2 10 C-1.79300437 8.50503158 -1.63320741 7.0033408 -1.5 5.5 C-1.11111111 1.11111111 -1.11111111 1.11111111 0 0 Z " fill="#CCCCCC" transform="translate(701,220)"/>
<path d="M0 0 C0.33 0 0.66 0 1 0 C1.15855469 0.94359375 1.31710937 1.8871875 1.48046875 2.859375 C3.84882619 15.89188335 7.84295656 26.37468693 16 37 C15.01 37.495 15.01 37.495 14 38 C14 37.34 14 36.68 14 36 C13.34 36 12.68 36 12 36 C9 31.61538462 9 31.61538462 9 29 C8.34 29 7.68 29 7 29 C7 28.01 7 27.02 7 26 C6.34 26 5.68 26 5 26 C5 24.68 5 23.36 5 22 C4.34 22 3.68 22 3 22 C-0.0517291 14.49783264 -0.33608711 8.05364285 0 0 Z " fill="#DCDCDC" transform="translate(263,240)"/>
<path d="M0 0 C2.99815247 2.84559161 5.38538933 5.80180745 7.75 9.1875 C12.89563541 16.36455944 18.66159202 22.85966727 25 29 C17.97630571 26.72762832 13.33345518 21.73545538 9 16 C9 15.34 9 14.68 9 14 C8.34 14 7.68 14 7 14 C7 13.01 7 12.02 7 11 C6.34 11 5.68 11 5 11 C5 10.34 5 9.68 5 9 C4.34 9 3.68 9 3 9 C0 3.375 0 3.375 0 0 Z " fill="#EEE4E5" transform="translate(54,258)"/>
<path d="M0 0 C-1.5159375 0.7425 -1.5159375 0.7425 -3.0625 1.5 C-6.97575741 3.71698656 -9.44892787 6.58962424 -12.2890625 10.02734375 C-14.62226307 12.71744943 -17.19744283 14.81263831 -20 17 C-20.33 16.01 -20.66 15.02 -21 14 C-20.34 14 -19.68 14 -19 14 C-18.5359375 13.071875 -18.5359375 13.071875 -18.0625 12.125 C-17.375 10.75 -16.6875 9.375 -16 8 C-15.34 8 -14.68 8 -14 8 C-14 7.34 -14 6.68 -14 6 C-12.68 5.67 -11.36 5.34 -10 5 C-10 4.34 -10 3.68 -10 3 C-3.375 -1.125 -3.375 -1.125 0 0 Z " fill="#B1B1B1" transform="translate(730,185)"/>
<path d="M0 0 C0.33 0 0.66 0 1 0 C0.72962375 7.35423405 -0.26918654 12.62151248 -4 19 C-4.66 19 -5.32 19 -6 19 C-6.226875 19.721875 -6.45375 20.44375 -6.6875 21.1875 C-8.24831013 24.53209313 -10.3031287 26.51603959 -13 29 C-13.66 28.67 -14.32 28.34 -15 28 C-14.48050781 27.40574219 -13.96101562 26.81148438 -13.42578125 26.19921875 C-6.74746883 18.26177903 -2.46288928 10.07545614 0 0 Z " fill="#DDDEDD" transform="translate(803,255)"/>
<path d="M0 0 C6.01787253 0.58710951 10.30419956 2.73900609 14.9375 6.625 C16 8 16 8 16 10 C16.66 10 17.32 10 18 10 C18 10.66 18 11.32 18 12 C18.66 12 19.32 12 20 12 C22.29648649 14.5614657 23 15.47967572 23 19 C23.66 19 24.32 19 25 19 C24.67 20.32 24.34 21.64 24 23 C23.59910156 22.3709375 23.19820312 21.741875 22.78515625 21.09375 C16.72025742 11.96202024 10.10035138 5.40742605 0 1 C0 0.67 0 0.34 0 0 Z " fill="#DBDBDB" transform="translate(774,184)"/>
<path d="M0 0 C0.66 0 1.32 0 2 0 C5.42716548 8.91063025 5.13617832 18.16001222 5.0625 27.5625 C5.05798828 28.66658203 5.05347656 29.77066406 5.04882812 30.90820312 C5.0371514 33.605527 5.02077525 36.30273347 5 39 C4.67 39 4.34 39 4 39 C3.98541748 38.37134033 3.97083496 37.74268066 3.95581055 37.0949707 C3.61071156 21.0412511 3.61071156 21.0412511 0.62109375 5.328125 C0 3 0 3 0 0 Z " fill="#CDCDCD" transform="translate(682,209)"/>
<path d="M0 0 C2.45840605 -0.02691685 4.91651882 -0.04679802 7.375 -0.0625 C8.07367187 -0.07087891 8.77234375 -0.07925781 9.4921875 -0.08789062 C14.7734375 -0.11328125 14.7734375 -0.11328125 17 1 C17.09765625 7.15234375 17.09765625 7.15234375 17 9 C16.67 9.33 16.34 9.66 16 10 C15.71898054 12.31952569 15.55217375 14.63885514 15.37890625 16.96875 C15.25386719 17.6390625 15.12882813 18.309375 15 19 C14.34 19.33 13.68 19.66 13 20 C13.14139481 17.74971671 13.28828003 15.49977794 13.4375 13.25 C13.51871094 11.99703125 13.59992187 10.7440625 13.68359375 9.453125 C14 6 14 6 15 2 C10.05 1.67 5.1 1.34 0 1 C0 0.67 0 0.34 0 0 Z " fill="#D5D6D5" transform="translate(559,180)"/>
<path d="M0 0 C0.33 0 0.66 0 1 0 C0.8711321 8.11867744 -1.59329892 12.07782954 -7 18 C-7.4846875 18.55300781 -7.969375 19.10601562 -8.46875 19.67578125 C-9.75 21.0625 -9.75 21.0625 -12 23 C-12.99 23 -13.98 23 -15 23 C-14.23816406 22.34257812 -14.23816406 22.34257812 -13.4609375 21.671875 C-6.82576936 15.55857402 -2.84800323 8.5440097 0 0 Z " fill="#DEDEDE" transform="translate(378,261)"/>
<path d="M0 0 C0.66 0.33 1.32 0.66 2 1 C1.09507812 1.87011719 1.09507812 1.87011719 0.171875 2.7578125 C-4.09954668 6.93278273 -7.96004212 10.8452888 -11 16 C-12 13 -12 13 -10.6875 10.3125 C-10.130625 9.549375 -9.57375 8.78625 -9 8 C-8.34 8 -7.68 8 -7 8 C-7 7.34 -7 6.68 -7 6 C-6.34 6 -5.68 6 -5 6 C-4.731875 5.38125 -4.46375 4.7625 -4.1875 4.125 C-3 2 -3 2 0 0 Z " fill="#E0E0E0" transform="translate(284,153)"/>
<path d="M0 0 C0.33 3.63 0.66 7.26 1 11 C0.34 11 -0.32 11 -1 11 C-1.66 8.03 -2.32 5.06 -3 2 C-6.95820859 2.56545837 -9.6659053 3.80902348 -13 6 C-10.7550766 -0.7347702 -6.22920273 -0.31146014 0 0 Z " fill="#EED9DB" transform="translate(239,195)"/>
<path d="M0 0 C0.33 0 0.66 0 1 0 C1.2475 1.155 1.495 2.31 1.75 3.5 C3.17239825 9.22007296 5.74418599 14.11627899 9 19 C7.68 18.34 6.36 17.68 5 17 C5 16.34 5 15.68 5 15 C4.34 15 3.68 15 3 15 C-0.16727335 9.8531808 -0.35050464 5.841744 0 0 Z " fill="#D6D7D6" transform="translate(394,268)"/>
<path d="M0 0 C4.75 1.875 4.75 1.875 7 3 C7 3.66 7 4.32 7 5 C7.598125 5.226875 8.19625 5.45375 8.8125 5.6875 C11.62174735 7.37304841 12.63293699 9.05002192 14 12 C13.67 12.99 13.34 13.98 13 15 C12.16094435 13.87926138 11.32892169 12.75325453 10.5 11.625 C10.0359375 10.99851563 9.571875 10.37203125 9.09375 9.7265625 C8 8 8 8 8 6 C7.4225 5.7525 6.845 5.505 6.25 5.25 C3.6997003 3.83316683 1.98214299 2.12372463 0 0 Z " fill="#D3D3D3" transform="translate(473,187)"/>
<path d="M0 0 C0.66 0 1.32 0 2 0 C1.67 6.27 1.34 12.54 1 19 C0.67 19 0.34 19 0 19 C-0.19425873 16.20865148 -0.38069517 13.41716313 -0.5625 10.625 C-0.61857422 9.8309375 -0.67464844 9.036875 -0.73242188 8.21875 C-1.11328125 2.2265625 -1.11328125 2.2265625 0 0 Z " fill="#E6C8CB" transform="translate(41,196)"/>
<path d="M0 0 C2.58548628 2.58548628 2.97641847 4.29538385 3.09765625 7.91796875 C3.08605469 8.99691406 3.07445312 10.07585937 3.0625 11.1875 C3.05347656 12.27417969 3.04445313 13.36085937 3.03515625 14.48046875 C3.02355469 15.31191406 3.01195312 16.14335937 3 17 C2.67 17 2.34 17 2 17 C-0.29612756 5.47835991 -0.29612756 5.47835991 0 0 Z " fill="#E0E0E0" transform="translate(348,179)"/>
<path d="M0 0 C3.9036874 3.46994436 6.36588975 7.55224006 9 12 C7.68 11.67 6.36 11.34 5 11 C5 10.34 5 9.68 5 9 C4.34 9 3.68 9 3 9 C0 3.375 0 3.375 0 0 Z " fill="#EAD4D6" transform="translate(54,258)"/>
<path d="M0 0 C0.33 0.66 0.66 1.32 1 2 C0.67 2.99 0.34 3.98 0 5 C-0.66 5 -1.32 5 -2 5 C-1.2265625 6.423125 -1.2265625 6.423125 -0.4375 7.875 C0.036875 8.90625 0.51125 9.9375 1 11 C0.67 11.66 0.34 12.32 0 13 C-4.01866667 8.616 -4.01866667 8.616 -3.9375 5.9375 C-2.86392534 3.71877904 -1.56231572 1.90194957 0 0 Z " fill="#EBD3D6" transform="translate(84,203)"/>
<path d="M0 0 C0.66 0 1.32 0 2 0 C4.29648649 2.5614657 5 3.47967572 5 7 C5.66 7 6.32 7 7 7 C6.67 8.32 6.34 9.64 6 11 C4.9944239 9.54550599 3.99569565 8.08627557 3 6.625 C2.443125 5.81289062 1.88625 5.00078125 1.3125 4.1640625 C0 2 0 2 0 0 Z " fill="#E3E3E3" transform="translate(792,196)"/>
<path d="M0 0 C2.0343459 1.41519715 2.90410393 2.54982123 3.421875 4.98046875 C3.66273952 6.98176954 3.83532741 8.9909944 4 11 C1.82145293 7.7321794 0.50239966 4.61941735 -1 1 C-0.67 0.67 -0.34 0.34 0 0 Z " fill="#E0E0E0" transform="translate(375,165)"/>
<path d="M0 0 C0.66 0 1.32 0 2 0 C1.42415568 2.38564077 0.77772405 4.66682784 0 7 C-0.66 7 -1.32 7 -2 7 C-2.33 7.66 -2.66 8.32 -3 9 C-2.44271087 5.65626525 -1.64826111 2.96687001 0 0 Z " fill="#E4E4E4" transform="translate(799,267)"/>
<path d="M0 0 C1 2 1 2 0.1875 5 C-1 8 -1 8 -3 10 C-2.25 3.375 -2.25 3.375 0 0 Z " fill="#D4D4D4" transform="translate(431,206)"/>
</svg>
