<?xml version="1.0" encoding="UTF-8"?>
<svg version="1.1" xmlns="http://www.w3.org/2000/svg" width="646" height="250">
<path d="M0 0 C0.89876515 -0.00380567 1.79753031 -0.00761134 2.72353077 -0.01153234 C5.74492039 -0.02186526 8.76612274 -0.01793877 11.78752518 -0.01409245 C13.97172264 -0.01854391 16.1559185 -0.02385766 18.34011197 -0.02996117 C24.35009626 -0.04416239 30.36002888 -0.04580406 36.37002754 -0.04536426 C42.8487124 -0.04701058 49.32737585 -0.06007358 55.80604935 -0.07155704 C69.23794623 -0.09370209 82.66983058 -0.10181452 96.1017433 -0.10659205 C96.83175721 -0.10685322 97.56177112 -0.1071144 98.31390667 -0.10738349 C99.04538605 -0.10764376 99.77686544 -0.10790404 100.53051087 -0.1081722 C108.63660295 -0.11125452 116.74269176 -0.11775926 124.84878159 -0.12438488 C149.33164053 -0.14403211 173.81449595 -0.16043699 198.29736328 -0.16326141 C199.47196477 -0.16340251 199.47196477 -0.16340251 200.67029558 -0.16354645 C203.84373001 -0.16392493 207.01716444 -0.16428892 210.19059887 -0.16464943 C212.57912916 -0.16492115 214.96765944 -0.16519782 217.35618973 -0.16547489 C218.14545145 -0.16556291 218.93471317 -0.16565094 219.74789191 -0.16574163 C244.54769811 -0.16864716 269.34742638 -0.19074412 294.14720535 -0.22699833 C322.00751432 -0.26772559 349.86777018 -0.29141998 377.72811055 -0.29172093 C380.69901864 -0.29181775 383.66992672 -0.29198447 386.64083481 -0.29220104 C387.73810959 -0.29226721 387.73810959 -0.29226721 388.85755154 -0.29233472 C400.62882837 -0.29345451 412.4000271 -0.31086224 424.17127878 -0.33402036 C436.00238412 -0.35686442 447.83337501 -0.36066308 459.66449448 -0.34647106 C466.07381859 -0.33928906 472.48287216 -0.34021573 478.89216614 -0.36288166 C484.75968577 -0.38343307 490.62672621 -0.3809066 496.49424043 -0.36000682 C498.61670498 -0.35650465 500.73920384 -0.36145251 502.86162338 -0.37571125 C523.64262045 -0.50632182 523.64262045 -0.50632182 531.01243973 5.26006222 C533.26634598 7.57646847 533.26634598 7.57646847 534.57493973 9.82256222 C535.02997879 10.56635128 535.48501785 11.31014034 535.95384598 12.07646847 C537.84013736 15.96737948 538.13954568 19.39760454 538.15288162 23.69847775 C538.16144684 25.35538631 538.16144684 25.35538631 538.17018509 27.04576778 C538.17130295 28.25311581 538.17242081 29.46046383 538.17357254 30.70439816 C538.17853745 31.97960323 538.18350235 33.25480831 538.18861771 34.56865597 C538.20171897 38.06471202 538.20818237 41.56074888 538.21262836 45.05682564 C538.21556313 47.243249 538.21966873 49.42966717 538.22413254 51.61608791 C538.2378023 58.46328543 538.24747116 65.31047101 538.25133443 72.15768123 C538.25581221 80.04974728 538.27334916 87.94163988 538.30233502 95.83365321 C538.32398627 101.94166756 538.33404056 108.04963323 538.33537555 114.15768552 C538.33642124 117.80206525 538.34227831 121.44628182 538.36019516 125.09062099 C538.37981232 129.1599029 538.3753732 133.2288241 538.36888504 137.29814816 C538.38270721 139.0970248 538.38270721 139.0970248 538.39680862 140.93224239 C538.35649361 149.01011833 537.37928926 154.64017469 532.88743973 161.51006222 C526.73940494 167.39079115 519.94212222 168.85762236 511.65294266 168.76342678 C510.75041637 168.76924054 509.84789009 168.77505431 508.91801453 168.78104424 C505.90168882 168.79561165 502.88618101 168.78177401 499.8698616 168.76799679 C497.68235992 168.77260697 495.49486134 168.77896068 493.30736923 168.78690577 C487.30216039 168.80360586 481.29720577 168.79534943 475.291996 168.78296089 C468.81337638 168.77391561 462.33480065 168.78787756 455.85618973 168.79888058 C443.9002512 168.8164243 431.94439318 168.81418302 419.98844993 168.8032347 C408.94313381 168.79317 397.89784738 168.79054683 386.85252762 168.79532528 C386.1196886 168.79563082 385.38684959 168.79593636 384.63180333 168.79625116 C381.65692424 168.79749653 378.68204516 168.79877013 375.70716611 168.80009021 C347.80406189 168.81232451 319.90100926 168.80123508 291.997913 168.77970263 C267.21106094 168.76072039 242.42429107 168.7624189 217.63743973 168.78154659 C189.78517012 168.80296801 161.9329461 168.81145684 134.0806694 168.79909754 C131.11123022 168.79781468 128.14179103 168.79656332 125.17235184 168.79532528 C124.44120739 168.79500897 123.71006295 168.79469266 122.95676261 168.79436677 C111.9187499 168.78981807 100.88077014 168.79513575 89.84276199 168.80524349 C77.29125212 168.81667991 64.73984256 168.81343748 52.188344 168.79212052 C45.78321766 168.78160118 39.37825823 168.77750358 32.97313309 168.79071712 C27.11076448 168.80262817 21.24871766 168.79609925 15.38637829 168.77480692 C13.26470095 168.77033546 11.14299648 168.77261926 9.02133656 168.78231007 C6.13781662 168.79447131 3.25539925 168.78200105 0.3719368 168.76342678 C-0.8641942 168.77747378 -0.8641942 168.77747378 -2.12529755 168.79180455 C-8.7396631 168.70662692 -14.88793033 167.08026947 -19.87873411 162.53937224 C-24.54424903 157.54805264 -26.23140248 152.34373224 -26.25498581 145.51193905 C-26.26351578 144.38920086 -26.27204575 143.26646267 -26.2808342 142.10970211 C-26.27947464 140.28377026 -26.27947464 140.28377026 -26.27808762 138.42095089 C-26.28480484 137.12755291 -26.29152206 135.83415493 -26.29844284 134.50156307 C-26.31606028 130.96421774 -26.32079643 127.42696927 -26.32207441 123.8895843 C-26.32349908 121.67599823 -26.32777466 119.46243654 -26.33306885 117.24885654 C-26.35155562 109.51616645 -26.35974123 101.78354516 -26.35816574 94.0508337 C-26.35696497 86.85941076 -26.37805801 79.66828824 -26.40965307 72.47694129 C-26.43586414 66.28903081 -26.44653101 60.10121817 -26.44525492 53.91325265 C-26.44474667 50.22355912 -26.45035348 46.53413271 -26.47161102 42.84449482 C-26.49469718 38.72524236 -26.48544312 34.60665675 -26.47340012 30.48735714 C-26.48463913 29.27614193 -26.49587814 28.06492672 -26.50745773 26.81700802 C-26.45021639 19.09839389 -25.66709289 12.27169055 -20.26680183 6.38399696 C-14.24916794 0.70396639 -7.96565903 -0.03663293 0 0 Z " fill="#000000" transform="translate(66.9875602722168,40.7399377822876)"/>
<path d="M0 0 C0.89876515 -0.00380567 1.79753031 -0.00761134 2.72353077 -0.01153234 C5.74492039 -0.02186526 8.76612274 -0.01793877 11.78752518 -0.01409245 C13.97172264 -0.01854391 16.1559185 -0.02385766 18.34011197 -0.02996117 C24.35009626 -0.04416239 30.36002888 -0.04580406 36.37002754 -0.04536426 C42.8487124 -0.04701058 49.32737585 -0.06007358 55.80604935 -0.07155704 C69.23794623 -0.09370209 82.66983058 -0.10181452 96.1017433 -0.10659205 C96.83175721 -0.10685322 97.56177112 -0.1071144 98.31390667 -0.10738349 C99.04538605 -0.10764376 99.77686544 -0.10790404 100.53051087 -0.1081722 C108.63660295 -0.11125452 116.74269176 -0.11775926 124.84878159 -0.12438488 C149.33164053 -0.14403211 173.81449595 -0.16043699 198.29736328 -0.16326141 C199.47196477 -0.16340251 199.47196477 -0.16340251 200.67029558 -0.16354645 C203.84373001 -0.16392493 207.01716444 -0.16428892 210.19059887 -0.16464943 C212.57912916 -0.16492115 214.96765944 -0.16519782 217.35618973 -0.16547489 C218.14545145 -0.16556291 218.93471317 -0.16565094 219.74789191 -0.16574163 C244.54769811 -0.16864716 269.34742638 -0.19074412 294.14720535 -0.22699833 C322.00751432 -0.26772559 349.86777018 -0.29141998 377.72811055 -0.29172093 C380.69901864 -0.29181775 383.66992672 -0.29198447 386.64083481 -0.29220104 C387.73810959 -0.29226721 387.73810959 -0.29226721 388.85755154 -0.29233472 C400.62882837 -0.29345451 412.4000271 -0.31086224 424.17127878 -0.33402036 C436.00238412 -0.35686442 447.83337501 -0.36066308 459.66449448 -0.34647106 C466.07381859 -0.33928906 472.48287216 -0.34021573 478.89216614 -0.36288166 C484.75968577 -0.38343307 490.62672621 -0.3809066 496.49424043 -0.36000682 C498.61670498 -0.35650465 500.73920384 -0.36145251 502.86162338 -0.37571125 C523.64262045 -0.50632182 523.64262045 -0.50632182 531.01243973 5.26006222 C533.26634598 7.57646847 533.26634598 7.57646847 534.57493973 9.82256222 C535.02997879 10.56635128 535.48501785 11.31014034 535.95384598 12.07646847 C537.84013736 15.96737948 538.13954568 19.39760454 538.15288162 23.69847775 C538.16144684 25.35538631 538.16144684 25.35538631 538.17018509 27.04576778 C538.17130295 28.25311581 538.17242081 29.46046383 538.17357254 30.70439816 C538.17853745 31.97960323 538.18350235 33.25480831 538.18861771 34.56865597 C538.20171897 38.06471202 538.20818237 41.56074888 538.21262836 45.05682564 C538.21556313 47.243249 538.21966873 49.42966717 538.22413254 51.61608791 C538.2378023 58.46328543 538.24747116 65.31047101 538.25133443 72.15768123 C538.25581221 80.04974728 538.27334916 87.94163988 538.30233502 95.83365321 C538.32398627 101.94166756 538.33404056 108.04963323 538.33537555 114.15768552 C538.33642124 117.80206525 538.34227831 121.44628182 538.36019516 125.09062099 C538.37981232 129.1599029 538.3753732 133.2288241 538.36888504 137.29814816 C538.38270721 139.0970248 538.38270721 139.0970248 538.39680862 140.93224239 C538.35649361 149.01011833 537.37928926 154.64017469 532.88743973 161.51006222 C526.73940494 167.39079115 519.94212222 168.85762236 511.65294266 168.76342678 C510.75041637 168.76924054 509.84789009 168.77505431 508.91801453 168.78104424 C505.90168882 168.79561165 502.88618101 168.78177401 499.8698616 168.76799679 C497.68235992 168.77260697 495.49486134 168.77896068 493.30736923 168.78690577 C487.30216039 168.80360586 481.29720577 168.79534943 475.291996 168.78296089 C468.81337638 168.77391561 462.33480065 168.78787756 455.85618973 168.79888058 C443.9002512 168.8164243 431.94439318 168.81418302 419.98844993 168.8032347 C408.94313381 168.79317 397.89784738 168.79054683 386.85252762 168.79532528 C386.1196886 168.79563082 385.38684959 168.79593636 384.63180333 168.79625116 C381.65692424 168.79749653 378.68204516 168.79877013 375.70716611 168.80009021 C347.80406189 168.81232451 319.90100926 168.80123508 291.997913 168.77970263 C267.21106094 168.76072039 242.42429107 168.7624189 217.63743973 168.78154659 C189.78517012 168.80296801 161.9329461 168.81145684 134.0806694 168.79909754 C131.11123022 168.79781468 128.14179103 168.79656332 125.17235184 168.79532528 C124.44120739 168.79500897 123.71006295 168.79469266 122.95676261 168.79436677 C111.9187499 168.78981807 100.88077014 168.79513575 89.84276199 168.80524349 C77.29125212 168.81667991 64.73984256 168.81343748 52.188344 168.79212052 C45.78321766 168.78160118 39.37825823 168.77750358 32.97313309 168.79071712 C27.11076448 168.80262817 21.24871766 168.79609925 15.38637829 168.77480692 C13.26470095 168.77033546 11.14299648 168.77261926 9.02133656 168.78231007 C6.13781662 168.79447131 3.25539925 168.78200105 0.3719368 168.76342678 C-0.8641942 168.77747378 -0.8641942 168.77747378 -2.12529755 168.79180455 C-8.7396631 168.70662692 -14.88793033 167.08026947 -19.87873411 162.53937224 C-24.54424903 157.54805264 -26.23140248 152.34373224 -26.25498581 145.51193905 C-26.26351578 144.38920086 -26.27204575 143.26646267 -26.2808342 142.10970211 C-26.27947464 140.28377026 -26.27947464 140.28377026 -26.27808762 138.42095089 C-26.28480484 137.12755291 -26.29152206 135.83415493 -26.29844284 134.50156307 C-26.31606028 130.96421774 -26.32079643 127.42696927 -26.32207441 123.8895843 C-26.32349908 121.67599823 -26.32777466 119.46243654 -26.33306885 117.24885654 C-26.35155562 109.51616645 -26.35974123 101.78354516 -26.35816574 94.0508337 C-26.35696497 86.85941076 -26.37805801 79.66828824 -26.40965307 72.47694129 C-26.43586414 66.28903081 -26.44653101 60.10121817 -26.44525492 53.91325265 C-26.44474667 50.22355912 -26.45035348 46.53413271 -26.47161102 42.84449482 C-26.49469718 38.72524236 -26.48544312 34.60665675 -26.47340012 30.48735714 C-26.48463913 29.27614193 -26.49587814 28.06492672 -26.50745773 26.81700802 C-26.45021639 19.09839389 -25.66709289 12.27169055 -20.26680183 6.38399696 C-14.24916794 0.70396639 -7.96565903 -0.03663293 0 0 Z M-19.9481163 12.76067257 C-23.01939641 18.2843778 -22.67865749 24.08109902 -22.61866379 30.25029659 C-22.62581909 31.53583935 -22.6329744 32.8213821 -22.64034653 34.1458807 C-22.65877513 37.65229667 -22.64597719 41.15794692 -22.62625623 44.66433048 C-22.609797 48.34545979 -22.61869269 52.02654336 -22.62377548 55.70769405 C-22.62828838 61.88787129 -22.6124769 68.06774508 -22.5844841 74.24785519 C-22.55243559 81.37803569 -22.55245042 88.5076691 -22.56969887 95.63788843 C-22.58560022 102.5161101 -22.57880732 109.39413251 -22.56176186 116.27234554 C-22.55491554 119.19084683 -22.55589873 122.10918723 -22.56330681 125.02768612 C-22.57243873 129.1087055 -22.54835755 133.18888993 -22.52100754 137.26982784 C-22.52753342 138.4721455 -22.5340593 139.67446316 -22.54078293 140.91321468 C-22.46211514 147.82835294 -21.72436722 152.38697393 -17.98756027 158.26006222 C-15.6091345 160.66412606 -15.6091345 160.66412606 -12.98756027 162.26006222 C-12.19034526 162.7973764 -12.19034526 162.7973764 -11.37702489 163.34554541 C-7.73928051 164.73781477 -4.09773644 164.53622261 -0.2561264 164.51733112 C1.08692602 164.52259024 1.08692602 164.52259024 2.45711082 164.52795559 C5.47897161 164.53731269 8.5006415 164.53233517 11.52251053 164.52748775 C13.70228221 164.53122185 15.88205255 164.5358224 18.06182075 164.5412184 C24.06878623 164.5534937 30.07569622 164.55318261 36.0826714 164.55082965 C42.55453434 164.55042262 49.02637921 164.56144973 55.4982338 164.57094479 C68.18449328 164.58801669 80.87073692 164.59308139 93.55700669 164.59416954 C103.86624784 164.59508803 114.17548295 164.5992016 124.48472214 164.60557079 C127.45043619 164.60736584 130.41615025 164.60914547 133.38186431 164.61092055 C134.11911804 164.61136264 134.85637176 164.61180474 135.61596651 164.61226023 C156.35916824 164.62457201 177.10236788 164.63246103 197.84557343 164.63157368 C198.62794069 164.63154252 199.41030796 164.63151136 200.21638332 164.63147926 C204.18189089 164.63131304 208.14739845 164.63111496 212.11290601 164.63090985 C213.29428523 164.63085001 213.29428523 164.63085001 214.49953069 164.63078897 C216.0922229 164.63070809 217.6849151 164.6306245 219.2776073 164.63053818 C244.05691736 164.62931269 268.83617268 164.64432411 293.61546707 164.67168331 C321.4449773 164.70239752 349.27445157 164.71961618 377.10397983 164.71775687 C380.0709513 164.7176076 383.03792278 164.71751019 386.00489426 164.71744823 C386.73545548 164.71742493 387.46601669 164.71740162 388.21871613 164.7173776 C399.98118565 164.71731603 411.74360769 164.73009405 423.50606309 164.74731276 C435.32616568 164.76425807 447.1461929 164.76590831 458.96630105 164.75309412 C465.37127551 164.74654838 471.77607775 164.74650526 478.181036 164.76380062 C484.04230701 164.77946533 489.9032683 164.77673523 495.76453146 164.75923236 C497.887018 164.75614788 500.00952727 164.75984895 502.13198701 164.77095251 C505.01424835 164.78503443 507.89541741 164.77451776 510.7776413 164.75784016 C511.60418054 164.76777652 512.43071977 164.77771288 513.28230566 164.78795034 C519.69318922 164.70937532 525.2034387 163.03327979 529.85228348 158.44365597 C530.21451004 157.86744503 530.5767366 157.29123409 530.94993973 156.69756222 C531.52034988 155.82937862 531.52034988 155.82937862 532.10228348 154.94365597 C533.9408455 151.54271077 534.14275244 148.72998756 534.15961075 144.94190121 C534.16676605 143.83867016 534.17392136 142.73543911 534.18129349 141.59877682 C534.18398239 140.38783352 534.1866713 139.17689022 534.18944168 137.92925167 C534.19601288 136.65419262 534.20258408 135.37913357 534.2093544 134.06543636 C534.23037935 129.8347515 534.24075682 125.60406634 534.25072098 121.37334347 C534.25476943 119.91520004 534.25888637 118.45705681 534.26307106 116.99891376 C534.28212103 110.14637676 534.29635123 103.2938505 534.30468303 96.44129211 C534.3144485 88.54067483 534.34075054 80.64033824 534.38118392 72.73981982 C534.41138755 66.6275806 534.426156 60.51542163 534.42946404 54.40310925 C534.43181014 50.75530233 534.44071224 47.10779532 534.46592522 43.4600687 C534.4936311 39.38581598 534.4893619 35.31218649 534.48241043 31.23784542 C534.49522049 30.03702328 534.50803055 28.83620113 534.52122879 27.59899044 C534.47417434 20.02745445 533.75961538 14.05558853 528.19603348 8.42021847 C527.61982254 8.05799191 527.0436116 7.69576534 526.44993973 7.32256222 C525.87115067 6.94228878 525.2923616 6.56201534 524.69603348 6.17021847 C520.38806438 3.84131638 516.15484606 4.11626169 511.40405369 4.12304783 C510.06273203 4.11907009 510.06273203 4.11907009 508.69431296 4.11501199 C505.67040604 4.10729662 502.64653957 4.10675896 499.62262344 4.10616207 C497.44371563 4.10214893 495.26480856 4.09771096 493.08590239 4.09288251 C487.07669335 4.08089475 481.06749234 4.07526348 475.05827367 4.07070136 C468.58571492 4.06475367 462.11316581 4.05314181 455.64061356 4.04241085 C440.7385989 4.01873327 425.83658042 4.00447738 410.9345526 3.99218143 C405.77950406 3.98792745 400.62445589 3.98336175 395.4694078 3.97859812 C368.06675423 3.95333946 340.66410007 3.93128869 313.26143742 3.91886997 C306.91175522 3.91594859 300.56207305 3.91298108 294.2123909 3.90996456 C293.02907532 3.9094082 293.02907532 3.9094082 291.82185437 3.90884059 C266.24033088 3.89668308 240.65887615 3.86573584 215.07738496 3.82404304 C188.78395195 3.78126798 162.49055526 3.7546306 136.19708651 3.74939526 C132.48436554 3.7486548 128.77164463 3.74774411 125.05892372 3.74673748 C123.96286214 3.74645156 123.96286214 3.74645156 122.84465791 3.74615986 C111.07932523 3.74264462 99.31407862 3.72233914 87.54877757 3.69594084 C75.72518778 3.66981155 63.90170618 3.66247706 52.0780916 3.67304213 C45.67105713 3.67824089 39.26429666 3.67526259 32.85730171 3.65057659 C26.99409141 3.62817384 21.13135335 3.62875437 15.26813527 3.64778046 C13.14494082 3.65059305 11.02171495 3.64491258 8.89857123 3.62996753 C6.01514749 3.6109088 3.13341593 3.62261868 0.25003147 3.64202976 C-0.57679362 3.62918054 -1.4036187 3.61633132 -2.25549909 3.60309273 C-9.81101407 3.71506516 -15.32168402 6.7885774 -19.9481163 12.76067257 Z " fill="#979797" transform="translate(66.9875602722168,40.7399377822876)"/>
<path d="M0 0 C3.64129166 0.94948583 6.31700179 2.14397121 9.55029297 4.04956055 C10.6637207 4.69691162 11.77714844 5.3442627 12.92431641 6.01123047 C14.11480161 6.71792406 15.30523 7.42471337 16.49560547 8.1315918 C18.36151083 9.22267467 20.22969875 10.30978155 22.09790039 11.39692688 C23.37295038 12.13944338 24.64719726 12.88334061 25.9206543 13.62858582 C33.36502144 17.98147008 40.9059095 22.15698996 48.44824219 26.33740234 C53.9414915 29.39592323 59.32133944 32.55984489 64.62060547 35.9440918 C58.38734357 43.525086 51.5548277 50.60723423 44.08496094 56.97753906 C38.89666106 61.50471898 34.06779526 66.37205167 29.21435547 71.25268555 C28.23951902 72.2293919 27.26445798 73.20587413 26.28918457 74.18214417 C23.74874246 76.7263664 21.21132038 79.27357915 18.67456055 81.82147217 C16.0750942 84.43125062 13.47272053 87.03812662 10.87060547 89.64526367 C5.78445629 94.74207052 0.70150077 99.84204688 -4.37939453 104.9440918 C-5.36939453 104.6140918 -6.35939453 104.2840918 -7.37939453 103.9440918 C-7.47200344 90.9748553 -7.54311343 78.00569724 -7.58664322 65.03619766 C-7.60753351 59.01416612 -7.63587796 52.99236049 -7.68115234 46.97045898 C-7.72455793 41.16088383 -7.74852077 35.35152622 -7.7589035 29.54180145 C-7.76630433 27.32336756 -7.7807561 25.1049458 -7.80231476 22.88660431 C-7.83127787 19.78343308 -7.83535343 16.68116511 -7.83349609 13.57788086 C-7.8478772 12.65718811 -7.8622583 11.73649536 -7.8770752 10.78790283 C-7.8369004 4.6001012 -7.8369004 4.6001012 -5.56222534 1.33848572 C-3.37939453 -0.0559082 -3.37939453 -0.0559082 0 0 Z " fill="#00D2FE" transform="translate(90.37939453125,71.055908203125)"/>
<path d="M0 0 C4.02977796 1.59811451 7.65553058 3.72742899 11.36328125 5.9609375 C12.12640625 6.40824219 12.88953125 6.85554688 13.67578125 7.31640625 C20.33401003 11.27630021 20.33401003 11.27630021 22.73828125 14.0859375 C23.42578125 16.8984375 23.42578125 16.8984375 22.73828125 20.0859375 C17.26434877 25.49165899 9.85517498 28.99281284 3.17578125 32.6484375 C0.93336042 33.89020375 -1.30882205 35.13240051 -3.55078125 36.375 C-5.23929199 37.30747559 -5.23929199 37.30747559 -6.96191406 38.25878906 C-11.88936234 40.98718673 -16.79644682 43.75099836 -21.69921875 46.5234375 C-22.61823975 47.04284912 -23.53726074 47.56226074 -24.48413086 48.09741211 C-43.41730216 58.54507814 -43.41730216 58.54507814 -61.86279297 69.79248047 C-65.28114868 71.63559553 -67.58005329 71.00635386 -71.26171875 70.0859375 C-71.59171875 69.4259375 -71.92171875 68.7659375 -72.26171875 68.0859375 C-71.80168457 67.69736572 -71.34165039 67.30879395 -70.86767578 66.90844727 C-65.01083057 61.88135803 -59.56719511 56.50420509 -54.13671875 51.0234375 C-53.18112505 50.06342375 -52.22522691 49.10371297 -51.26904297 48.14428711 C-48.26374325 45.12767381 -45.26242263 42.10712154 -42.26171875 39.0859375 C-38.77878864 35.57923599 -35.29415373 32.07426284 -31.80523682 28.57351685 C-30.42518742 27.1870841 -29.04824131 25.79756452 -27.67138672 24.40795898 C-23.22578455 19.94517129 -18.73207765 15.62442916 -13.92851257 11.54724121 C-10.57305145 8.60545698 -7.65704758 5.22620181 -4.65625 1.9296875 C-2.26171875 0.0859375 -2.26171875 0.0859375 0 0 Z " fill="#EA334B" transform="translate(156.26171875,107.9140625)"/>
<path d="M0 0 C2.5625 1.5 2.5625 1.5 4 3 C4.33 2.34 4.66 1.68 5 1 C7.64 1 10.28 1 13 1 C13.09943082 6.26524445 13.17173199 11.52993343 13.21972656 16.79589844 C13.23974959 18.58440684 13.26697654 20.37285054 13.30175781 22.16113281 C13.35068955 24.74300162 13.37306165 27.3239995 13.390625 29.90625 C13.41127014 30.69616333 13.43191528 31.48607666 13.45318604 32.29992676 C13.45542505 37.93359201 12.24559424 42.3334873 9 47 C3.96701898 51.00584204 -0.25550318 52.4263148 -6.58203125 52.34375 C-10.7767878 51.74740335 -13.89205725 49.82341278 -17 47 C-19 43.6875 -19 43.6875 -20 41 C-17.69 40.01 -15.38 39.02 -13 38 C-12.525625 38.825 -12.05125 39.65 -11.5625 40.5 C-8.71641938 43.27666402 -8.20728775 43.38224252 -4.4375 43.4375 C-0.95772487 43.33774253 -0.0357225 43.023815 3 41 C3.57748803 39.03638136 3.57748803 39.03638136 3.6875 36.875 C3.790625 35.59625 3.89375 34.3175 4 33 C3.34 33.495 2.68 33.99 2 34.5 C-1.78347446 36.39173723 -4.89689277 36.79341852 -9 36 C-13.90702354 33.99622451 -17.98706353 31.02416056 -20.375 26.15234375 C-22.05860083 20.35444339 -22.19602795 13.56287845 -19.5 8.0625 C-14.25322032 1.63519489 -8.4115803 -1.58646701 0 0 Z " fill="#F3F3F3" transform="translate(368,132)"/>
<path d="M0 0 C2.37640192 1.43397719 4.58053608 2.90954957 6.73828125 4.65234375 C5.76103384 7.09546228 5.01997415 8.44521662 2.87890625 10.01953125 C0.73828125 10.65234375 0.73828125 10.65234375 -1.33984375 9.97265625 C-2.41492188 9.38097656 -2.41492188 9.38097656 -3.51171875 8.77734375 C-7.95131778 6.65184944 -11.37928824 5.59013558 -16.26171875 6.65234375 C-21.20910946 8.50351974 -25.076091 10.68864786 -27.76171875 15.33984375 C-28.25671875 16.43296875 -28.75171875 17.52609375 -29.26171875 18.65234375 C-29.59171875 19.31234375 -29.92171875 19.97234375 -30.26171875 20.65234375 C-30.91435179 26.70175005 -30.35962399 32.33833401 -27.26171875 37.65234375 C-23.4527575 42.07927807 -18.87031096 44.28823355 -13.09375 44.87109375 C-6.8945207 45.120309 -2.90690917 43.78319159 1.98828125 39.83984375 C4.06195169 37.24775569 4.759057 34.80046381 5.73828125 31.65234375 C4.52269531 31.66394531 3.30710938 31.67554688 2.0546875 31.6875 C0.47005361 31.69687653 -1.11458193 31.70597688 -2.69921875 31.71484375 C-3.90288086 31.72741211 -3.90288086 31.72741211 -5.13085938 31.74023438 C-7.17467096 31.74885805 -9.21855777 31.70462525 -11.26171875 31.65234375 C-12.26171875 30.65234375 -12.26171875 30.65234375 -12.38671875 27.15234375 C-12.26171875 23.65234375 -12.26171875 23.65234375 -11.26171875 22.65234375 C-9.40802264 22.5649673 -7.55104334 22.54536222 -5.6953125 22.5546875 C-4.57060547 22.55791016 -3.44589844 22.56113281 -2.28710938 22.56445312 C-1.10310547 22.57283203 0.08089844 22.58121094 1.30078125 22.58984375 C2.48865234 22.59435547 3.67652344 22.59886719 4.90039062 22.60351562 C7.84640351 22.615347 10.79231806 22.63183088 13.73828125 22.65234375 C14.49065146 32.32169419 14.02707384 39.01273652 7.73828125 46.65234375 C2.31242353 52.2209872 -4.09602491 53.83297319 -11.63671875 54.15234375 C-19.98618329 53.93007791 -26.0071453 50.97350267 -32.13671875 45.40234375 C-38.68905796 38.15294718 -40.05507191 31.00851442 -39.7734375 21.31640625 C-38.67307122 13.43744771 -34.23113124 7.91488306 -28.265625 2.90625 C-19.89235093 -2.33316711 -9.24398548 -3.81937125 0 0 Z " fill="#F3F3F3" transform="translate(252.26171875,114.34765625)"/>
<path d="M0 0 C25 0 25 0 31 4 C35.18958311 8.75574299 36.3046905 11.46420176 36.21484375 17.68359375 C35.78593078 22.30805537 33.93444402 25.11473724 30.625 28.25 C25.50404008 31.66397328 21.25814511 32.27485973 15.1875 32.125 C11.6296875 32.063125 11.6296875 32.063125 8 32 C8 38.6 8 45.2 8 52 C5.36 52 2.72 52 0 52 C0 34.84 0 17.68 0 0 Z " fill="#FCFCFC" transform="translate(447,115)"/>
<path d="M0 0 C3.75563548 0.83522186 6.31144822 1.9788628 9.61279297 3.92456055 C10.7262207 4.57191162 11.83964844 5.2192627 12.98681641 5.88623047 C14.17730161 6.59292406 15.36773 7.29971337 16.55810547 8.0065918 C18.42401083 9.09767467 20.29219875 10.18478155 22.16040039 11.27192688 C23.43545038 12.01444338 24.70969726 12.75834061 25.9831543 13.50358582 C33.42752144 17.85647008 40.9684095 22.03198996 48.51074219 26.21240234 C54.0039915 29.27092323 59.38383944 32.43484489 64.68310547 35.8190918 C59.41209133 42.22978467 53.59182395 48.00499692 47.68310547 53.8190918 C43.99698617 52.27275922 41.65911302 50.03701757 38.85449219 47.2175293 C38.38894928 46.75227844 37.92340637 46.28702759 37.4437561 45.80767822 C35.91197757 44.27451078 34.38739986 42.73438824 32.86279297 41.1940918 C31.79756718 40.12513314 30.73189694 39.05661722 29.665802 37.98852539 C26.86410411 35.17920283 24.06846207 32.36392847 21.27404785 29.54736328 C18.42834153 26.68121047 15.5769809 23.82069531 12.72607422 20.9597168 C7.71921944 15.93372611 2.71733367 10.90283648 -2.28103638 5.8684082 C-3.62412073 4.51644526 -4.96936357 3.16662276 -6.31689453 1.8190918 C-3.31689453 -0.1809082 -3.31689453 -0.1809082 0 0 Z " fill="#05EA78" transform="translate(90.31689453125,71.180908203125)"/>
<path d="M0 0 C5.124505 2.26138194 8.16136131 5.44361859 10.8125 10.34765625 C12.62270278 15.7782646 12.51347747 20.44509397 10.125 25.59765625 C7.47182948 30.37898829 3.79932296 33.20395822 -1.1875 35.34765625 C-7.98423348 36.32675019 -12.70443808 35.43307493 -18.1875 31.34765625 C-22.52586525 26.93041163 -24.35362092 23.7918026 -24.5 17.59765625 C-24.44946419 12.31666416 -23.88158863 9.34126558 -20.1875 5.34765625 C-14.00878861 -0.213184 -8.18613068 -2.44122111 0 0 Z " fill="#F2F2F2" transform="translate(293.1875,132.65234375)"/>
<path d="M0 0 C4.60326819 2.51876939 7.42075736 5.47488603 10.3125 9.8125 C12.07136244 15.8694277 11.23156273 20.88320615 8.69140625 26.57421875 C5.97211629 30.98825033 2.20806831 33.1806439 -2.6875 34.8125 C-8.37735711 35.3760668 -12.85658403 35.14046433 -17.6875 31.8125 C-22.51589158 27.01811118 -24.81746047 23.44610963 -25 16.5 C-24.93973253 11.41744353 -24.18555083 8.67876671 -20.6875 4.8125 C-14.35969355 -1.25095945 -8.33931798 -2.68554308 0 0 Z " fill="#F3F3F3" transform="translate(332.6875,133.1875)"/>
<path d="M0 0 C3.87850945 2.67801843 6.13291589 5.33624767 7.625 9.8125 C7.70739169 11.65860532 7.73243359 13.50755164 7.72265625 15.35546875 C7.71943359 16.42861328 7.71621094 17.50175781 7.71289062 18.60742188 C7.70451172 19.72697266 7.69613281 20.84652344 7.6875 22 C7.68298828 23.13115234 7.67847656 24.26230469 7.67382812 25.42773438 C7.66203498 28.22270927 7.6455765 31.0175782 7.625 33.8125 C4.985 33.8125 2.345 33.8125 -0.375 33.8125 C-0.705 33.1525 -1.035 32.4925 -1.375 31.8125 C-2.220625 32.3075 -3.06625 32.8025 -3.9375 33.3125 C-7.85583062 35.022317 -10.14313363 35.3414833 -14.375 34.8125 C-18.71926379 32.55682457 -21.43291513 30.34403136 -23.375 25.8125 C-23.79546396 22.44878832 -23.58053341 20.35202521 -22.375 17.1875 C-19.15051694 13.35842637 -15.17873936 11.17169793 -10.1796875 10.53125 C-7.00083246 10.48432963 -4.39494326 10.80585225 -1.375 11.8125 C-1.86205712 9.74847032 -1.86205712 9.74847032 -3.375 7.8125 C-7.29144812 6.86965138 -10.53923878 6.43162596 -14.375 7.8125 C-14.375 8.4725 -14.375 9.1325 -14.375 9.8125 C-17.13776177 9.28981534 -19.7010876 8.70380413 -22.375 7.8125 C-21.45125522 4.11752087 -20.43697106 2.86026936 -17.375 0.5 C-11.74959949 -2.38903659 -5.8452888 -2.05667569 0 0 Z " fill="#F5F5F5" transform="translate(522.375,133.1875)"/>
<path d="M0 0 C3.87189983 1.82791048 7.54821023 3.88891626 11.21484375 6.09765625 C11.97796875 6.54496094 12.74109375 6.99226563 13.52734375 7.453125 C20.18557253 11.41301896 20.18557253 11.41301896 22.58984375 14.22265625 C23.27734375 17.03515625 23.27734375 17.03515625 22.58984375 20.22265625 C20.29083184 22.77020999 17.49660702 24.43225859 14.58984375 26.22265625 C14.03264648 26.57215332 13.47544922 26.92165039 12.90136719 27.28173828 C11.05911667 28.42832415 9.20342259 29.54860741 7.33984375 30.66015625 C6.73769043 31.0267334 6.13553711 31.39331055 5.51513672 31.77099609 C1.16007959 34.28021726 1.16007959 34.28021726 -1.37890625 34.02392578 C-3.88217727 33.03645757 -5.20582621 31.76847758 -7.08203125 29.84375 C-7.74589844 29.17021484 -8.40976563 28.49667969 -9.09375 27.80273438 C-9.77566406 27.09568359 -10.45757812 26.38863281 -11.16015625 25.66015625 C-11.85753906 24.94923828 -12.55492187 24.23832031 -13.2734375 23.50585938 C-14.99262205 21.75134911 -16.70441497 19.99022273 -18.41015625 18.22265625 C-16.31570397 13.59991443 -13.12092169 10.49123938 -9.59765625 6.91015625 C-8.98083984 6.25208984 -8.36402344 5.59402344 -7.72851562 4.91601562 C-3.18391036 0.29413759 -3.18391036 0.29413759 0 0 Z " fill="#FCC901" transform="translate(156.41015625,107.77734375)"/>
<path d="M0 0 C4.37406801 2.2282988 7.30228616 4.90347157 10 9 C10.37720935 10.65728754 10.71739982 12.32398508 11 14 C7.54418685 15.50585523 4.08495247 17.00368289 0.625 18.5 C-0.35984375 18.92925781 -1.3446875 19.35851562 -2.359375 19.80078125 C-3.77089844 20.40986328 -3.77089844 20.40986328 -5.2109375 21.03125 C-6.08024902 21.40830078 -6.94956055 21.78535156 -7.84521484 22.17382812 C-10 23 -10 23 -12 23 C-10.83451625 25.07487687 -10.83451625 25.07487687 -9 27 C-6.60091217 27.59459504 -6.60091217 27.59459504 -4 27.4375 C-3.13375 27.43621094 -2.2675 27.43492187 -1.375 27.43359375 C1.37563053 26.93142272 2.2724894 26.14234045 4 24 C8.75 25.875 8.75 25.875 11 27 C9.49364535 31.21779303 6.75987578 32.7747674 3 35 C-1.77218558 36.59072853 -6.48142009 37.02510621 -11.2265625 35.09375 C-16.6826843 31.90590356 -19.9751412 28.07457639 -22 22 C-22.43553595 16.44691658 -21.79993328 11.81939735 -19 7 C-13.47786473 0.96873169 -8.12765575 -1.00203975 0 0 Z " fill="#F3F3F3" transform="translate(419,132)"/>
<path d="M0 0 C2.64 0 5.28 0 8 0 C11.21169637 6.92357497 14.23729682 13.88488175 17 21 C17.31453125 20.23816406 17.6290625 19.47632813 17.953125 18.69140625 C20.55214956 12.42086807 23.21451987 6.18995585 26 0 C28.97 0 31.94 0 35 0 C33.31833115 5.40595548 31.13527056 10.543967 28.90234375 15.73828125 C28.50801651 16.65965378 28.11368927 17.58102631 27.70741272 18.53031921 C26.87733618 20.46806859 26.04604942 22.40529993 25.21362305 24.34204102 C23.93501476 27.31828494 22.6616038 30.29671521 21.38867188 33.27539062 C20.58103896 35.15898703 19.77310681 37.04245516 18.96484375 38.92578125 C18.58255112 39.82049637 18.20025848 40.71521149 17.80638123 41.63703918 C17.4525386 42.45846909 17.09869598 43.27989899 16.73413086 44.1262207 C16.42261581 44.85202835 16.11110077 45.577836 15.79014587 46.32563782 C15 48 15 48 14 49 C11.32941149 49.14115161 8.67567762 49.04247107 6 49 C7.39252745 44.6446482 8.77213594 40.37890516 10.75 36.25 C12.44446937 31.84437963 11.59544841 29.49218001 9.87670898 25.18505859 C9.42110596 24.18297363 8.96550293 23.18088867 8.49609375 22.1484375 C7.75649414 20.50101563 7.75649414 20.50101563 7.00195312 18.8203125 C5.95537553 16.51548993 4.90849847 14.21080332 3.86132812 11.90625 C3.36955078 10.81054688 2.87777344 9.71484375 2.37109375 8.5859375 C1.91661865 7.5861084 1.46214355 6.5862793 0.99389648 5.55615234 C0 3 0 3 0 0 Z " fill="#F6F6F6" transform="translate(531,133)"/>
<path d="M0 0 C4.12385927 1.78075741 6.79644397 4.08256705 9 8 C9.84368791 12.65831102 10.11002416 17.00961185 7.75390625 21.234375 C5.29653573 24.20037832 3.70246418 25.76584527 0 27 C-4.73039335 27.38773716 -7.05546399 27.48117872 -11.3125 25.3125 C-14.66981719 22.42364567 -16.64419083 20.37206115 -17.31640625 15.890625 C-17.59953072 10.44732865 -16.70560114 7.20635805 -13 3 C-8.95711409 -0.36907159 -5.06753389 -0.75189019 0 0 Z " fill="#EDEDED" transform="translate(343,70)"/>
<path d="M0 0 C2.64 0 5.28 0 8 0 C8 17.49 8 34.98 8 53 C5.36 53 2.72 53 0 53 C0 35.51 0 18.02 0 0 Z " fill="#FBFBFB" transform="translate(487,114)"/>
<path d="M0 0 C2.64 0 5.28 0 8 0 C8 17.49 8 34.98 8 53 C5.36 53 2.72 53 0 53 C0 35.51 0 18.02 0 0 Z " fill="#F3F3F3" transform="translate(386,114)"/>
<path d="M0 0 C14.19642857 -0.66964286 14.19642857 -0.66964286 17.875 2.0625 C20 5 20 5 20.6875 8.5 C19.8403214 12.81290923 18.3720891 14.27021358 15 17 C10.73840618 19.13079691 4.59236298 18.04502317 0 18 C0 12.06 0 6.12 0 0 Z " fill="#0B0B0B" transform="translate(455,122)"/>
<path d="M0 0 C2.16015625 0.50390625 2.16015625 0.50390625 5.22265625 2.37890625 C7.95391709 6.78416567 8.16203063 10.45313459 7.16015625 15.50390625 C5.22265625 18.62890625 5.22265625 18.62890625 2.16015625 20.50390625 C-0.97007435 21.12215464 -3.71243502 21.14692487 -6.83984375 20.50390625 C-9.8720005 18.30559261 -10.65638773 17.05427431 -11.83984375 13.50390625 C-12.34010726 9.0849119 -12.10765044 6.97904715 -9.90234375 3.06640625 C-6.32490917 0.07304262 -4.54395197 -0.35653713 0 0 Z " fill="#040404" transform="translate(288.83984375,139.49609375)"/>
<path d="M0 0 C3.73716178 0.87853713 5.13010387 2.29902003 7.16015625 5.5078125 C7.95451348 10.25705466 7.75906946 14.36880258 5.16015625 18.5078125 C1.14470633 21.18477911 -2.123103 21.43298757 -6.83984375 20.5078125 C-9.99849401 17.92932249 -11.3749471 16.44424154 -12.3125 12.5390625 C-12.59027737 8.8353642 -11.99301427 6.0964686 -9.90234375 3.0078125 C-6.32530335 0.08777952 -4.5043027 -0.34590638 0 0 Z " fill="#030303" transform="translate(327.83984375,139.4921875)"/>
<path d="M0 0 C3.65050264 0.88318612 4.94055216 2.348519 6.9375 5.46875 C7.63289032 8.94570159 7.64519512 11.99305382 6.9375 15.46875 C4.52630495 18.94370757 2.92680657 20.13898114 -1.0625 21.46875 C-4.68853173 21.46875 -6.22314111 20.67714025 -9.0625 18.46875 C-11.89655067 14.217674 -11.81709637 10.45702918 -11.0625 5.46875 C-8.13820833 0.89954426 -5.25757474 -0.39830112 0 0 Z " fill="#050505" transform="translate(366.0625,139.53125)"/>
<path d="M0 0 C5 0 5 0 6.4855957 1.46875 C6.87835693 2.1390625 7.27111816 2.809375 7.67578125 3.5 C8.11083984 4.221875 8.54589844 4.94375 8.99414062 5.6875 C9.42919922 6.450625 9.86425781 7.21375 10.3125 8 C10.76689453 8.763125 11.22128906 9.52625 11.68945312 10.3125 C12.80937673 12.19868713 13.90686713 14.09816107 15 16 C15.33 10.72 15.66 5.44 16 0 C17.32 0 18.64 0 20 0 C20 8.58 20 17.16 20 26 C15 25 15 25 13.5144043 23.41772461 C13.12164307 22.75264893 12.72888184 22.08757324 12.32421875 21.40234375 C11.67163086 20.32436523 11.67163086 20.32436523 11.00585938 19.22460938 C10.57080078 18.46986328 10.13574219 17.71511719 9.6875 16.9375 C9.0059082 15.79958008 9.0059082 15.79958008 8.31054688 14.63867188 C7.19263539 12.76764107 6.09438329 10.88488927 5 9 C4.67 14.61 4.34 20.22 4 26 C2.68 26 1.36 26 0 26 C0 17.42 0 8.84 0 0 Z " fill="#EBEBEB" transform="translate(356,70)"/>
<path d="M0 0 C3 1.3125 3 1.3125 5 3 C5 3.99 5 4.98 5 6 C3.68 6 2.36 6 1 6 C0.67 5.67 0.34 5.34 0 5 C-4.31418769 4.50220911 -6.33461577 4.53281533 -9.9375 7.0625 C-12.23534372 9.8960646 -12.23534372 9.8960646 -12.625 13.5 C-11.82883761 17.95850936 -10.69186542 19.40783917 -7 22 C-3.45728358 22.75011367 -3.45728358 22.75011367 0 22 C2.36497439 20.13291495 3.66030715 18.67938569 5 16 C2.03 16 -0.94 16 -4 16 C-4 14.68 -4 13.36 -4 12 C0.29 12 4.58 12 9 12 C9.41851968 15.41791075 9.62620097 17.98813876 7.76953125 20.98828125 C5.26573269 23.97429286 3.76240969 25.74586344 0 27 C-4.73039335 27.38773716 -7.05546399 27.48117872 -11.3125 25.3125 C-14.66981719 22.42364567 -16.64419083 20.37206115 -17.31640625 15.890625 C-17.59953072 10.44732865 -16.70560114 7.20635805 -13 3 C-8.96533845 -0.36221796 -5.05987757 -0.76510246 0 0 Z " fill="#EDEDED" transform="translate(231,70)"/>
<path d="M0 0 C3.55956846 2.04345597 5.50243928 3.16565949 6.5859375 7.16015625 C6.81662528 10.4502034 6.73764431 12.91360549 4.8515625 15.69140625 C2.39115746 17.97606807 0.21237997 18.96099143 -3.0625 19.5625 C-6.67781108 18.87020639 -8.38108416 17.54408967 -11 15 C-12.55024464 11.89951072 -12.28992015 9.42105782 -12 6 C-8.62794354 0.82951342 -6.18928406 -0.71414816 0 0 Z " fill="#030303" transform="translate(342,74)"/>
<path d="M0 0 C4.95 0 9.9 0 15 0 C15.33 1.32 15.66 2.64 16 4 C15 5 15 5 12.49609375 5.09765625 C10.98208984 5.08025391 10.98208984 5.08025391 9.4375 5.0625 C8.42558594 5.05347656 7.41367188 5.04445313 6.37109375 5.03515625 C5.19740234 5.01775391 5.19740234 5.01775391 4 5 C4 6.98 4 8.96 4 11 C7.3 11 10.6 11 14 11 C14.33 12.32 14.66 13.64 15 15 C11.37 15 7.74 15 4 15 C4 17.31 4 19.62 4 22 C7.63 22 11.26 22 15 22 C15.33 23.32 15.66 24.64 16 26 C10.72 26 5.44 26 0 26 C0 17.42 0 8.84 0 0 Z " fill="#DFDFDF" transform="translate(243,70)"/>
<path d="M0 0 C1.58206057 0.00667536 3.16410534 0.0186375 4.74609375 0.03515625 C5.55240234 0.03966797 6.35871094 0.04417969 7.18945312 0.04882812 C9.18753131 0.06065107 11.18557158 0.07858711 13.18359375 0.09765625 C13.74609375 2.03515625 13.74609375 2.03515625 14.18359375 4.09765625 C13.85359375 4.42765625 13.52359375 4.75765625 13.18359375 5.09765625 C11.20359375 5.09765625 9.22359375 5.09765625 7.18359375 5.09765625 C7.18359375 12.02765625 7.18359375 18.95765625 7.18359375 26.09765625 C5.53359375 26.09765625 3.88359375 26.09765625 2.18359375 26.09765625 C2.18359375 19.16765625 2.18359375 12.23765625 2.18359375 5.09765625 C0.20359375 5.09765625 -1.77640625 5.09765625 -3.81640625 5.09765625 C-4.37890625 3.16015625 -4.37890625 3.16015625 -4.81640625 1.09765625 C-3.81640625 0.09765625 -3.81640625 0.09765625 0 0 Z " fill="#D0D0D0" transform="translate(302.81640625,69.90234375)"/>
<path d="M0 0 C1.58206057 0.00667536 3.16410534 0.0186375 4.74609375 0.03515625 C5.55240234 0.03966797 6.35871094 0.04417969 7.18945312 0.04882812 C9.18753131 0.06065107 11.18557158 0.07858711 13.18359375 0.09765625 C13.74609375 2.03515625 13.74609375 2.03515625 14.18359375 4.09765625 C13.85359375 4.42765625 13.52359375 4.75765625 13.18359375 5.09765625 C11.20359375 5.09765625 9.22359375 5.09765625 7.18359375 5.09765625 C7.18359375 12.02765625 7.18359375 18.95765625 7.18359375 26.09765625 C5.53359375 26.09765625 3.88359375 26.09765625 2.18359375 26.09765625 C2.18359375 19.16765625 2.18359375 12.23765625 2.18359375 5.09765625 C0.20359375 5.09765625 -1.77640625 5.09765625 -3.81640625 5.09765625 C-4.37890625 3.16015625 -4.37890625 3.16015625 -4.81640625 1.09765625 C-3.81640625 0.09765625 -3.81640625 0.09765625 0 0 Z " fill="#D0D0D0" transform="translate(265.81640625,69.90234375)"/>
<path d="M0 0 C0.78503906 0.00644531 1.57007813 0.01289063 2.37890625 0.01953125 C4.4375 0.1875 4.4375 0.1875 6.4375 1.1875 C6.12512196 4.07699684 5.79411121 5.77383099 3.875 8 C0.21468283 9.78323144 -2.50568473 9.51466252 -6.5625 9.1875 C-7.2225 8.5275 -7.8825 7.8675 -8.5625 7.1875 C-8.375 4.6875 -8.375 4.6875 -7.5625 2.1875 C-4.404724 0.082316 -3.60852866 -0.06539344 0 0 Z " fill="#0A0A0A" transform="translate(515.5625,150.8125)"/>
<path d="M0 0 C1.32 0 2.64 0 4 0 C4 8.58 4 17.16 4 26 C2.68 26 1.36 26 0 26 C0 17.42 0 8.84 0 0 Z " fill="#EDEDED" transform="translate(291,70)"/>
<path d="M0 0 C3.25 1 3.25 1 5.25 4 C3.14915791 5.00696568 1.04420511 6.0053589 -1.0625 7 C-2.23425781 7.556875 -3.40601563 8.11375 -4.61328125 8.6875 C-7.75 10 -7.75 10 -10.75 10 C-10.53422233 6.22389069 -9.72797898 4.97588174 -7.125 2.125 C-3.75 0 -3.75 0 0 0 Z " fill="#171717" transform="translate(415.75,139)"/>
<path d="M0 0 C1.9375 1.5625 1.9375 1.5625 3 3 C2.67 3.99 2.34 4.98 2 6 C1.01 5.67 0.02 5.34 -1 5 C-2.89470816 4.9314505 -4.7916834 4.91519628 -6.6875 4.9375 C-7.68136719 4.94652344 -8.67523438 4.95554688 -9.69921875 4.96484375 C-10.45847656 4.97644531 -11.21773438 4.98804688 -12 5 C-12.33 4.34 -12.66 3.68 -13 3 C-12.34 3 -11.68 3 -11 3 C-11 2.34 -11 1.68 -11 1 C-7.2263442 -1.56608594 -4.31804867 -1.02062969 0 0 Z " fill="#111111" transform="translate(519,140)"/>
<path d="M0 0 C0.99 0.33 1.98 0.66 3 1 C0.36 3.64 -2.28 6.28 -5 9 C-5 4.61031544 -2.87194899 3.23094261 0 0 Z " fill="#848484" transform="translate(49,45)"/>
</svg>
