<?xml version="1.0" encoding="UTF-8"?>
<svg version="1.1" xmlns="http://www.w3.org/2000/svg" width="128" height="128">
<path d="M0 0 C0.89460938 -0.00128906 1.78921875 -0.00257812 2.7109375 -0.00390625 C3.65195312 -0.00003906 4.59296875 0.00382813 5.5625 0.0078125 C6.97402344 0.00201172 6.97402344 0.00201172 8.4140625 -0.00390625 C9.75597656 -0.00197266 9.75597656 -0.00197266 11.125 0 C11.95128906 0.00112793 12.77757813 0.00225586 13.62890625 0.00341797 C15.5625 0.1328125 15.5625 0.1328125 16.5625 1.1328125 C16.65773905 4.02424401 16.68803027 6.89173314 16.67602539 9.78344727 C16.67617142 10.69067535 16.67631744 11.59790344 16.6764679 12.53262329 C16.67576841 15.54651235 16.66797434 18.56034043 16.66015625 21.57421875 C16.6582922 23.65787217 16.65686824 25.74152604 16.65586853 27.82518005 C16.65204234 33.32104696 16.6422112 38.81688763 16.63116455 44.31274414 C16.61915852 50.90060636 16.61454867 57.48847733 16.60871124 64.07634735 C16.59899949 74.09518734 16.57984364 84.1139697 16.5625 94.1328125 C32.7325 94.1328125 48.9025 94.1328125 65.5625 94.1328125 C65.5625 103.7028125 65.5625 113.2728125 65.5625 123.1328125 C42.1325 123.1328125 18.7025 123.1328125 -5.4375 123.1328125 C-6.58667977 102.44757661 -6.58667977 102.44757661 -6.47509766 93.55834961 C-6.46709641 92.54295609 -6.45909515 91.52756256 -6.45085144 90.48139954 C-6.42352064 87.20756955 -6.38786788 83.93389796 -6.3515625 80.66015625 C-6.32973968 78.35657593 -6.30829265 76.05299203 -6.28720093 73.74940491 C-6.24209427 68.96497052 -6.19290261 64.18060149 -6.140625 59.39624023 C-6.07376259 53.25157454 -6.01673802 47.10686274 -5.96259499 40.96207333 C-5.91991284 36.22591774 -5.87246328 31.48981949 -5.82349777 26.75372505 C-5.80056518 24.48541199 -5.77905997 22.21708403 -5.75899124 19.94874382 C-5.73037414 16.8016118 -5.69542986 13.65461459 -5.65869141 10.50756836 C-5.6513649 9.56696564 -5.64403839 8.62636292 -5.63648987 7.65725708 C-5.53543959 0.00755618 -5.53543959 0.00755618 0 0 Z " fill="#FB1616" transform="translate(15.4375,1.8671875)"/>
<path d="M0 0 C3 0.8125 3 0.8125 4.9375 1.875 C6.73742868 5.15722289 5.64959885 8.21017912 5 11.8125 C5.680625 12.080625 6.36125 12.34875 7.0625 12.625 C8.031875 13.016875 9.00125 13.40875 10 13.8125 C11.2375 14.204375 12.475 14.59625 13.75 15 C14.8225 15.598125 15.895 16.19625 17 16.8125 C18.22127778 21.84715534 17.8556924 26.06037064 17 31.125 C16.16151843 36.47361593 16.08193724 41.1864066 16.828125 46.54296875 C17.22845438 51.8291363 15.56175258 56.75162297 13.375 61.5 C11.9062624 65.0383224 11.34403839 67.04072076 12 70.8125 C15.64567213 75.6341954 20.72056691 78.10952227 26 80.8125 C26.02698189 82.43740954 26.04638757 84.06244633 26.0625 85.6875 C26.07410156 86.59242187 26.08570313 87.49734375 26.09765625 88.4296875 C26 90.8125 26 90.8125 25 92.8125 C21.49010705 92.16251982 19.02757788 90.65858407 16 88.8125 C14.34065709 88.12780785 12.67482946 87.45838582 11 86.8125 C10.96241577 87.80431274 10.96241577 87.80431274 10.92407227 88.81616211 C10.80846898 91.79432305 10.68558246 94.7721392 10.5625 97.75 C10.52318359 98.79091797 10.48386719 99.83183594 10.44335938 100.90429688 C10.38051758 102.38833008 10.38051758 102.38833008 10.31640625 103.90234375 C10.27974854 104.81878662 10.24309082 105.73522949 10.20532227 106.67944336 C10 108.8125 10 108.8125 9 109.8125 C7.31391034 109.88455511 5.62499341 109.89636068 3.9375 109.875 C2.55884766 109.86146484 2.55884766 109.86146484 1.15234375 109.84765625 C0.08693359 109.83025391 0.08693359 109.83025391 -1 109.8125 C-0.505 108.3275 -0.505 108.3275 0 106.8125 C-0.07898204 101.45994798 -0.52945468 96.14314405 -1 90.8125 C-1.07734375 89.80058594 -1.1546875 88.78867188 -1.234375 87.74609375 C-1.70499489 84.07637911 -2.07443175 81.69800036 -4.8046875 79.0859375 C-6.21150059 78.08107101 -7.64013052 77.10598144 -9.08984375 76.1640625 C-11.96352243 74.13074384 -12.93821122 72.13058994 -14 68.8125 C-15.29308243 59.92255832 -11.21051934 49.60392832 -7 41.8125 C-10.61787915 39.95802648 -14.32621744 38.38285734 -18.07421875 36.8125 C-20 35.8125 -20 35.8125 -21 33.8125 C-20.9129796 32.10016312 -20.75902838 30.39074594 -20.5625 28.6875 C-20.46066406 27.77742188 -20.35882813 26.86734375 -20.25390625 25.9296875 C-20.12822266 24.88167969 -20.12822266 24.88167969 -20 23.8125 C-20.99 23.1525 -21.98 22.4925 -23 21.8125 C-23.765625 19.46484375 -23.765625 19.46484375 -24.25 16.75 C-24.50523438 15.40228516 -24.50523438 15.40228516 -24.765625 14.02734375 C-24.84296875 13.29644531 -24.9203125 12.56554687 -25 11.8125 C-23.33657163 10.14907163 -21.2174291 10.45201903 -18.9375 10.25 C-18.01839844 10.16621094 -17.09929687 10.08242188 -16.15234375 9.99609375 C-15.44207031 9.93550781 -14.73179688 9.87492187 -14 9.8125 C-12.68 12.4525 -11.36 15.0925 -10 17.8125 C-7.87629964 16.19634835 -7.87629964 16.19634835 -6 13.8125 C-5.62919912 10.83039034 -5.62919912 10.83039034 -5.9375 7.6875 C-6.15234375 4.4921875 -6.15234375 4.4921875 -6 1.8125 C-3 -0.1875 -3 -0.1875 0 0 Z M-8 20.8125 C-8.33 22.1325 -8.66 23.4525 -9 24.8125 C-8.01 25.3075 -8.01 25.3075 -7 25.8125 C-7 24.1625 -7 22.5125 -7 20.8125 C-7.33 20.8125 -7.66 20.8125 -8 20.8125 Z M-19 25.8125 C-19 28.4525 -19 31.0925 -19 33.8125 C-17.02 34.8025 -17.02 34.8025 -15 35.8125 C-15.99 32.5125 -16.98 29.2125 -18 25.8125 C-18.33 25.8125 -18.66 25.8125 -19 25.8125 Z " fill="#020101" transform="translate(87,15.1875)"/>
<path d="M0 0 C1.206633 0.00990463 2.41326599 0.01980927 3.65646362 0.03001404 C7.47798636 0.06893079 11.2965456 0.1567206 15.1171875 0.24609375 C17.72131244 0.28123648 20.32548278 0.31317025 22.9296875 0.34179688 C29.28589027 0.41264627 35.63575657 0.54966226 41.9921875 0.68359375 C41.9921875 10.25359375 41.9921875 19.82359375 41.9921875 29.68359375 C18.5621875 29.68359375 -4.8678125 29.68359375 -29.0078125 29.68359375 C-29.3378125 23.74359375 -29.6678125 17.80359375 -30.0078125 11.68359375 C-27.6978125 10.36359375 -25.3878125 9.04359375 -23.0078125 7.68359375 C-21.45469957 6.4624576 -19.91217366 5.22767003 -18.38330078 3.97631836 C-12.38755312 -0.25591178 -7.15477683 -0.2244961 0 0 Z " fill="#FF1717" transform="translate(39.0078125,95.31640625)"/>
<path d="M0 0 C3 0.8125 3 0.8125 4.9375 1.875 C6.73742868 5.15722289 5.64959885 8.21017912 5 11.8125 C5.680625 12.080625 6.36125 12.34875 7.0625 12.625 C8.031875 13.016875 9.00125 13.40875 10 13.8125 C11.2375 14.204375 12.475 14.59625 13.75 15 C14.8225 15.598125 15.895 16.19625 17 16.8125 C18.17578708 21.76060398 17.95961569 26.12005902 17.25 31.125 C17.09015625 32.33800781 16.9303125 33.55101562 16.765625 34.80078125 C16 37.8125 16 37.8125 13 39.8125 C10.546875 40.19140625 10.546875 40.19140625 7.75 40.375 C4.4404356 40.60640754 1.39344441 40.92989786 -1.875 41.5625 C-5.74072323 41.87175786 -6.79016034 40.87596835 -10 38.8125 C-12.32803375 38.24775883 -14.64708087 37.81902141 -17.01171875 37.4375 C-19 36.8125 -19 36.8125 -21 33.8125 C-20.9765625 31.33203125 -20.9765625 31.33203125 -20.625 28.625 C-20.45871094 27.27341797 -20.45871094 27.27341797 -20.2890625 25.89453125 C-20.14597656 24.86392578 -20.14597656 24.86392578 -20 23.8125 C-20.99 23.1525 -21.98 22.4925 -23 21.8125 C-23.765625 19.46484375 -23.765625 19.46484375 -24.25 16.75 C-24.50523438 15.40228516 -24.50523438 15.40228516 -24.765625 14.02734375 C-24.84296875 13.29644531 -24.9203125 12.56554687 -25 11.8125 C-23.33657163 10.14907163 -21.2174291 10.45201903 -18.9375 10.25 C-18.01839844 10.16621094 -17.09929687 10.08242188 -16.15234375 9.99609375 C-15.44207031 9.93550781 -14.73179688 9.87492187 -14 9.8125 C-12.68 12.4525 -11.36 15.0925 -10 17.8125 C-7.87629964 16.19634835 -7.87629964 16.19634835 -6 13.8125 C-5.62919912 10.83039034 -5.62919912 10.83039034 -5.9375 7.6875 C-6.15234375 4.4921875 -6.15234375 4.4921875 -6 1.8125 C-3 -0.1875 -3 -0.1875 0 0 Z M-8 20.8125 C-8.33 22.1325 -8.66 23.4525 -9 24.8125 C-8.01 25.3075 -8.01 25.3075 -7 25.8125 C-7 24.1625 -7 22.5125 -7 20.8125 C-7.33 20.8125 -7.66 20.8125 -8 20.8125 Z M-19 25.8125 C-19 28.4525 -19 31.0925 -19 33.8125 C-17.02 34.8025 -17.02 34.8025 -15 35.8125 C-15.99 32.5125 -16.98 29.2125 -18 25.8125 C-18.33 25.8125 -18.66 25.8125 -19 25.8125 Z " fill="#C6BCBC" transform="translate(87,15.1875)"/>
<path d="M0 0 C0 8.91 0 17.82 0 27 C-11.55 27 -23.1 27 -35 27 C-35 22.05 -35 17.1 -35 12 C-33.80246094 12.05542969 -32.60492188 12.11085938 -31.37109375 12.16796875 C-18.69437832 12.35489083 -8.8884017 0 0 0 Z " fill="#D2D4D4" transform="translate(62,97)"/>
<path d="M0 0 C1.68873706 0.03517527 3.37754504 0.06710329 5.06640625 0.09570312 C9.17104655 0.17220452 13.27222697 0.29263257 17.375 0.4375 C16.58996094 1.22157227 15.80492187 2.00564453 14.99609375 2.81347656 C13.4690928 4.3421843 11.94698556 5.87586963 10.4375 7.421875 C2.03971119 14.61089118 -8.17230822 13.49410302 -18.625 13.4375 C-20.33855671 13.44836147 -22.05210184 13.46129874 -23.765625 13.4765625 C-27.71971068 13.50276986 -31.67113043 13.48413804 -35.625 13.4375 C-35.625 12.7775 -35.625 12.1175 -35.625 11.4375 C-34.201875 10.6640625 -34.201875 10.6640625 -32.75 9.875 C-30.48081876 8.62996251 -28.61299637 7.42662284 -26.68945312 5.68359375 C-18.56807419 -1.35738455 -10.12918956 -0.3684967 0 0 Z " fill="#090303" transform="translate(44.625,95.5625)"/>
<path d="M0 0 C6.27 0 12.54 0 19 0 C19 9.57 19 19.14 19 29 C-4.43 29 -27.86 29 -52 29 C-52 23.72 -52 18.44 -52 13 C-39.9695564 12.10885603 -28.06077953 11.8887838 -16 12 C-16 12.33 -16 12.66 -16 13 C-22.27 13 -28.54 13 -35 13 C-35 17.95 -35 22.9 -35 28 C-23.45 28 -11.9 28 0 28 C0 18.76 0 9.52 0 0 Z M1 1 C1 9.91 1 18.82 1 28 C6.61 28 12.22 28 18 28 C18 19.09 18 10.18 18 1 C12.39 1 6.78 1 1 1 Z " fill="#CA2323" transform="translate(62,96)"/>
<path d="M0 0 C3 0.8125 3 0.8125 4.9375 1.875 C6.73742868 5.15722289 5.64959885 8.21017912 5 11.8125 C5.721875 12.10125 6.44375 12.39 7.1875 12.6875 C11.09375 14.25 11.09375 14.25 15 15.8125 C12 16.8125 12 16.8125 10 17.25 C7.70962954 17.783124 7.70962954 17.783124 5 19.8125 C2.3125 19.9375 2.3125 19.9375 0 19.8125 C-0.66 18.4925 -1.32 17.1725 -2 15.8125 C-3.96161898 15.99983817 -3.96161898 15.99983817 -6 16.8125 C-7.13070444 18.65977567 -7.13070444 18.65977567 -7.75 20.875 C-7.99234375 21.60847656 -8.2346875 22.34195313 -8.484375 23.09765625 C-8.65453125 23.66355469 -8.8246875 24.22945312 -9 24.8125 C-9.66 23.4925 -10.32 22.1725 -11 20.8125 C-11.99 20.8125 -12.98 20.8125 -14 20.8125 C-15 19.47916667 -16 18.14583333 -17 16.8125 C-17.99 16.8125 -18.98 16.8125 -20 16.8125 C-20 18.4625 -20 20.1125 -20 21.8125 C-19.01 21.8125 -18.02 21.8125 -17 21.8125 C-16.72285156 22.71613281 -16.44570312 23.61976562 -16.16015625 24.55078125 C-15.79792969 25.73027344 -15.43570313 26.90976562 -15.0625 28.125 C-14.70285156 29.29675781 -14.34320313 30.46851563 -13.97265625 31.67578125 C-13.33627721 33.72803977 -12.67946621 35.77410137 -12 37.8125 C-15.375 37.5 -15.375 37.5 -19 36.8125 C-21.30143236 33.36035147 -21.13833854 32.57770676 -20.625 28.625 C-20.45871094 27.27341797 -20.45871094 27.27341797 -20.2890625 25.89453125 C-20.14597656 24.86392578 -20.14597656 24.86392578 -20 23.8125 C-20.99 23.1525 -21.98 22.4925 -23 21.8125 C-23.765625 19.46484375 -23.765625 19.46484375 -24.25 16.75 C-24.50523438 15.40228516 -24.50523438 15.40228516 -24.765625 14.02734375 C-24.84296875 13.29644531 -24.9203125 12.56554687 -25 11.8125 C-23.33657163 10.14907163 -21.2174291 10.45201903 -18.9375 10.25 C-18.01839844 10.16621094 -17.09929687 10.08242188 -16.15234375 9.99609375 C-15.44207031 9.93550781 -14.73179688 9.87492187 -14 9.8125 C-12.68 12.4525 -11.36 15.0925 -10 17.8125 C-7.87629964 16.19634835 -7.87629964 16.19634835 -6 13.8125 C-5.62919912 10.83039034 -5.62919912 10.83039034 -5.9375 7.6875 C-6.15234375 4.4921875 -6.15234375 4.4921875 -6 1.8125 C-3 -0.1875 -3 -0.1875 0 0 Z M-19 25.8125 C-19 28.4525 -19 31.0925 -19 33.8125 C-17.02 34.8025 -17.02 34.8025 -15 35.8125 C-15.99 32.5125 -16.98 29.2125 -18 25.8125 C-18.33 25.8125 -18.66 25.8125 -19 25.8125 Z " fill="#482525" transform="translate(87,15.1875)"/>
<path d="M0 0 C1.65 0 3.3 0 5 0 C5.90137111 5.01548641 5.9648679 9.27051507 5.25 14.3125 C5.09015625 15.52550781 4.9303125 16.73851563 4.765625 17.98828125 C4 21 4 21 1 23 C-1.453125 23.37890625 -1.453125 23.37890625 -4.25 23.5625 C-7.55087051 23.78834904 -10.50288984 24.10895947 -13.75 24.8125 C-17.29915219 25.01725878 -19.42427958 24.38088433 -22.41796875 22.44140625 C-25.23985379 19.87035543 -27.02236007 16.68052681 -28 13 C-27.59375 10.75 -27.59375 10.75 -27 9 C-26.61328125 9.61488281 -26.2265625 10.22976562 -25.828125 10.86328125 C-25.30734375 11.67152344 -24.7865625 12.47976562 -24.25 13.3125 C-23.73953125 14.11300781 -23.2290625 14.91351563 -22.703125 15.73828125 C-20.96528172 18.04610523 -19.46032327 19.49886709 -17 21 C-13.56475248 21.47658177 -13.56475248 21.47658177 -10 20 C-7.26355024 17.25793125 -5.13772091 14.22039093 -3 11 C-2.360625 10.113125 -1.72125 9.22625 -1.0625 8.3125 C0.26752186 5.41774654 0.21961326 3.14779012 0 0 Z " fill="#B3B6B6" transform="translate(99,32)"/>
<path d="M0 0 C2.625 0.375 2.625 0.375 5 1 C5 1.99 5 2.98 5 4 C6.65 4.33 8.3 4.66 10 5 C9.54300722 10.02692063 7.00758252 13.14896261 4 17 C2.68 16.67 1.36 16.34 0 16 C-2.46999277 5.87744035 -2.46999277 5.87744035 -2 2 C-1.34 1.34 -0.68 0.68 0 0 Z " fill="#D2D0D0" transform="translate(82,30)"/>
<path d="M0 0 C0.66 0.33 1.32 0.66 2 1 C1.21625 1.5775 0.4325 2.155 -0.375 2.75 C-3.4132124 5.35418205 -4.8316115 6.85526231 -5.1484375 10.890625 C-5.21332997 14.39481839 -5.11874581 17.64376258 -4 21 C-3.34 21 -2.68 21 -2 21 C-1.67 20.01 -1.34 19.02 -1 18 C1.0625 17.3125 1.0625 17.3125 3 17 C3.6875 18.75 3.6875 18.75 4 21 C2.75 23.25 2.75 23.25 1 25 C0.01 25 -0.98 25 -2 25 C-0.92598892 27.91517292 -0.22189824 29.77810176 2 32 C2.66 30.68 3.32 29.36 4 28 C4.99 28 5.98 28 7 28 C7 31 7 34 7 37 C8.41977909 39.22743787 8.41977909 39.22743787 10 41 C9.01 41 8.02 41 7 41 C4.64276511 38.46815512 4 37.52809907 4 34 C2.8553125 33.9071875 2.8553125 33.9071875 1.6875 33.8125 C-1 33 -1 33 -2.6875 30.875 C-4.16209937 27.64492519 -5.09412529 24.42938283 -6 21 C-6.33 20.34 -6.66 19.68 -7 19 C-7.5350086 13.63237273 -7.66175234 9.30068563 -5.1875 4.4375 C-3 2 -3 2 0 0 Z M1 19 C-0.485 20.98 -0.485 20.98 -2 23 C-0.68 22.67 0.64 22.34 2 22 C1.67 21.01 1.34 20.02 1 19 Z " fill="#FF1414" transform="translate(58,18)"/>
<path d="M0 0 C1.4540625 0.0309375 1.4540625 0.0309375 2.9375 0.0625 C3.5975 1.7125 4.2575 3.3625 4.9375 5.0625 C3.6175 5.3925 2.2975 5.7225 0.9375 6.0625 C0.9375 7.7125 0.9375 9.3625 0.9375 11.0625 C1.9275 11.0625 2.9175 11.0625 3.9375 11.0625 C4.21464844 11.96613281 4.49179688 12.86976562 4.77734375 13.80078125 C5.13957031 14.98027344 5.50179687 16.15976562 5.875 17.375 C6.23464844 18.54675781 6.59429687 19.71851563 6.96484375 20.92578125 C7.60122279 22.97803977 8.25803379 25.02410137 8.9375 27.0625 C5.5625 26.75 5.5625 26.75 1.9375 26.0625 C-0.36393236 22.61035147 -0.20083854 21.82770676 0.3125 17.875 C0.47878906 16.52341797 0.47878906 16.52341797 0.6484375 15.14453125 C0.79152344 14.11392578 0.79152344 14.11392578 0.9375 13.0625 C-0.0525 12.4025 -1.0425 11.7425 -2.0625 11.0625 C-2.828125 8.71484375 -2.828125 8.71484375 -3.3125 6 C-3.48265625 5.10152344 -3.6528125 4.20304687 -3.828125 3.27734375 C-3.90546875 2.54644531 -3.9828125 1.81554687 -4.0625 1.0625 C-3.0625 0.0625 -3.0625 0.0625 0 0 Z M1.9375 15.0625 C1.9375 17.7025 1.9375 20.3425 1.9375 23.0625 C3.9175 24.0525 3.9175 24.0525 5.9375 25.0625 C4.9475 21.7625 3.9575 18.4625 2.9375 15.0625 C2.6075 15.0625 2.2775 15.0625 1.9375 15.0625 Z " fill="#0D0A0A" transform="translate(66.0625,25.9375)"/>
<path d="M0 0 C6.09859495 0.23916059 6.09859495 0.23916059 8.578125 2.33203125 C12 6.37338362 12 6.37338362 12 9 C12.99 9.33 13.98 9.66 15 10 C16.0650015 11.96615661 17.06833174 13.96726926 18 16 C18.33 16.33 18.66 16.66 19 17 C19.35235847 22.28537708 19.48566759 25.70994759 16 30 C15.34 30 14.68 30 14 30 C14 29.34 14 28.68 14 28 C14.66 28 15.32 28 16 28 C16.33 24.37 16.66 20.74 17 17 C15.35 17.66 13.7 18.32 12 19 C12.165 18.401875 12.33 17.80375 12.5 17.1875 C13.1114124 14.88655664 13.1114124 14.88655664 13 12 C11.02 12.99 11.02 12.99 9 14 C9.226875 13.278125 9.45375 12.55625 9.6875 11.8125 C10.21960056 8.97542931 10.21960056 8.97542931 9 6.375 C6.31036011 3.18105264 3.90661021 2.40048291 0 1 C0 0.67 0 0.34 0 0 Z " fill="#FF1414" transform="translate(100,21)"/>
<path d="M0 0 C3 0.8125 3 0.8125 4.9375 1.875 C6.73742868 5.15722289 5.64959885 8.21017912 5 11.8125 C3.68 11.1525 2.36 10.4925 1 9.8125 C1.33 8.8225 1.66 7.8325 2 6.8125 C1.01 6.8125 0.02 6.8125 -1 6.8125 C-1 6.1525 -1 5.4925 -1 4.8125 C-1.99 4.8125 -2.98 4.8125 -4 4.8125 C-4.33 6.1325 -4.66 7.4525 -5 8.8125 C-5.33 6.5025 -5.66 4.1925 -6 1.8125 C-3 -0.1875 -3 -0.1875 0 0 Z " fill="#060606" transform="translate(87,15.1875)"/>
<path d="M0 0 C0.99 0 1.98 0 3 0 C3 0.66 3 1.32 3 2 C3.99 2 4.98 2 6 2 C6 2.99 6 3.98 6 5 C6.99 5.66 7.98 6.32 9 7 C8.34 8.32 7.68 9.64 7 11 C4.69 10.34 2.38 9.68 0 9 C-0.84454356 5.62182575 -1.10844919 3.32534757 0 0 Z " fill="#B7B8B8" transform="translate(83,20)"/>
<path d="M0 0 C0.33 0 0.66 0 1 0 C1.05391993 1.79133978 1.09275571 3.58313899 1.125 5.375 C1.14820312 6.37273438 1.17140625 7.37046875 1.1953125 8.3984375 C1 11 1 11 -1 13 C-3.68839385 13.26991906 -6.29141936 13.08737357 -9 13 C-8.60167969 12.56429687 -8.20335938 12.12859375 -7.79296875 11.6796875 C-4.51063169 7.99005314 -2.00600254 4.56922802 0 0 Z " fill="#D0D3D3" transform="translate(101,42)"/>
<path d="M0 0 C5 2 5 2 10 4 C7 5 7 5 5 5.4375 C2.70962954 5.970624 2.70962954 5.970624 0 8 C-2.6875 8.125 -2.6875 8.125 -5 8 C-5 6.68 -5 5.36 -5 4 C-4.360625 3.71125 -3.72125 3.4225 -3.0625 3.125 C-0.84793921 2.17176549 -0.84793921 2.17176549 0 0 Z " fill="#D52D2D" transform="translate(92,27)"/>
<path d="M0 0 C1.28317892 3.84953676 1.06643637 6.94738135 1 11 C3.8424854 12.57273568 3.8424854 12.57273568 7 13 C7 13.66 7 14.32 7 15 C3.625 14.6875 3.625 14.6875 0 14 C-2.28259205 10.57611192 -2.16215534 9.79805495 -1.6875 5.875 C-1.58824219 4.98554687 -1.48898438 4.09609375 -1.38671875 3.1796875 C-1 1 -1 1 0 0 Z " fill="#040404" transform="translate(68,38)"/>
<path d="M0 0 C1.98 0.495 1.98 0.495 4 1 C4.125 3.875 4.125 3.875 4 7 C3.34 7.66 2.68 8.32 2 9 C0.4375 6.1875 0.4375 6.1875 -1 3 C-0.67 2.01 -0.34 1.02 0 0 Z " fill="#717272" transform="translate(70,25)"/>
<path d="M0 0 C0.99 0 1.98 0 3 0 C4.32 4.62 5.64 9.24 7 14 C5.68 13.34 4.36 12.68 3 12 C2.4609375 9.43359375 2.4609375 9.43359375 2.375 6.4375 C2.31557884 3.52348029 2.31557884 3.52348029 2 1 C1.34 0.67 0.68 0.34 0 0 Z " fill="#7D3535" transform="translate(67,37)"/>
<path d="M0 0 C0.99 0.99 1.98 1.98 3 3 C1.6875 4.5 1.6875 4.5 0 6 C-0.99 6 -1.98 6 -3 6 C-3 4.35 -3 2.7 -3 1 C-2.01 0.67 -1.02 0.34 0 0 Z " fill="#CDD0D0" transform="translate(70,31)"/>
<path d="M0 0 C1.32 0.33 2.64 0.66 4 1 C4 3.64 4 6.28 4 9 C1.47740939 7.02579865 1.0070192 6.03254358 0.3125 2.8125 C0.209375 1.884375 0.10625 0.95625 0 0 Z " fill="#D1D4D4" transform="translate(99,32)"/>
<path d="M0 0 C0.66 0 1.32 0 2 0 C3 5.75 3 5.75 3 8 C2.01 7.67 1.02 7.34 0 7 C0 4.69 0 2.38 0 0 Z " fill="#DF1414" transform="translate(12,52)"/>
<path d="M0 0 C0.99 0 1.98 0 3 0 C3.125 5.75 3.125 5.75 2 8 C1.34 7.67 0.68 7.34 0 7 C0 4.69 0 2.38 0 0 Z " fill="#DF1414" transform="translate(12,9)"/>
<path d="M0 0 C0.66 0 1.32 0 2 0 C2 1.65 2 3.3 2 5 C1.34 4.67 0.68 4.34 0 4 C0 2.68 0 1.36 0 0 Z " fill="#FF1212" transform="translate(83,8)"/>
<path d="M0 0 C2 3.75 2 3.75 2 6 C1.34 6 0.68 6 0 6 C0 4.02 0 2.04 0 0 Z " fill="#FF1111" transform="translate(76,9)"/>
<path d="M0 0 C0.99 0.99 1.98 1.98 3 3 C2.67 3.66 2.34 4.32 2 5 C1.34 3.35 0.68 1.7 0 0 Z " fill="#FF1616" transform="translate(69,13)"/>
<path d="M0 0 C0.33 1.32 0.66 2.64 1 4 C0.34 4 -0.32 4 -1 4 C-0.67 2.68 -0.34 1.36 0 0 Z " fill="#FF1212" transform="translate(91,9)"/>
</svg>
