<?xml version="1.0" encoding="UTF-8"?>
<svg version="1.1" xmlns="http://www.w3.org/2000/svg" width="128" height="128">
<path d="M0 0 C3.28750379 3.06833687 5.19626396 6.25141004 7.3203125 10.1875 C8.73795569 12.71903606 8.73795569 12.71903606 10.95703125 14.7578125 C12.8125 16.625 12.8125 16.625 13.375 19.5 C12.5938211 23.83988275 10.91656819 25.52093181 7.8125 28.625 C7.1525 28.625 6.4925 28.625 5.8125 28.625 C5.503125 29.553125 5.503125 29.553125 5.1875 30.5 C3.26474112 33.47153645 1.14655473 33.75524659 -2.1875 34.625 C-2.1875 35.945 -2.1875 37.265 -2.1875 38.625 C-0.82625 39.058125 -0.82625 39.058125 0.5625 39.5 C3.8125 40.625 3.8125 40.625 5.734375 41.63671875 C7.94825608 42.68956069 9.90553231 43.1297404 12.3125 43.5625 C15.89462844 44.30585018 18.00514375 45.21869464 20.8125 47.625 C22.47066784 48.31253301 24.13709336 48.98061283 25.8125 49.625 C27.2975 50.615 27.2975 50.615 28.8125 51.625 C29.2146875 50.7896875 29.2146875 50.7896875 29.625 49.9375 C30.92149496 47.41274666 32.23726323 44.98785516 33.8125 42.625 C34.4725 42.625 35.1325 42.625 35.8125 42.625 C35.7196875 43.67558594 35.626875 44.72617188 35.53125 45.80859375 C34.88850311 53.98564722 34.88850311 53.98564722 37.5234375 61.515625 C39.62447408 63.81725065 39.62447408 63.81725065 41.8671875 65.73046875 C44.66946094 68.45959047 45.63618647 71.08744231 46.078125 74.94140625 C46.07296875 75.68261719 46.0678125 76.42382812 46.0625 77.1875 C46.07023437 78.30318359 46.07023437 78.30318359 46.078125 79.44140625 C45.78270118 81.86996383 45.01912778 83.51340139 43.8125 85.625 C46.4525 85.955 49.0925 86.285 51.8125 86.625 C51.8125 87.945 51.8125 89.265 51.8125 90.625 C11.5525 90.625 -28.7075 90.625 -70.1875 90.625 C-70.1875 89.305 -70.1875 87.985 -70.1875 86.625 C-67.2175 86.13 -67.2175 86.13 -64.1875 85.625 C-64.67089844 84.76648438 -64.67089844 84.76648438 -65.1640625 83.890625 C-67.1073547 79.58868044 -66.9148991 74.98578031 -65.53515625 70.5078125 C-63.75922039 66.59008275 -61.83209241 64.25696979 -58.5 61.5625 C-55.27140239 58.62364833 -54.70031386 56.10700522 -54.34643555 51.78540039 C-54.20582715 48.72654477 -54.15991177 45.68729307 -54.1875 42.625 C-53.5275 42.625 -52.8675 42.625 -52.1875 42.625 C-50.8984375 44.15625 -50.8984375 44.15625 -49.5625 46.125 C-49.11648437 46.7746875 -48.67046875 47.424375 -48.2109375 48.09375 C-47.87320313 48.5990625 -47.53546875 49.104375 -47.1875 49.625 C-45.74846954 49.00353192 -44.31133207 48.37767941 -42.875 47.75 C-41.67423828 47.22792969 -41.67423828 47.22792969 -40.44921875 46.6953125 C-37.9913166 45.59928106 -37.9913166 45.59928106 -35.1875 43.625 C-33.20703125 43.3515625 -33.20703125 43.3515625 -31 43.25 C-26.66643123 42.87470728 -23.57530886 41.59868543 -19.81640625 39.46484375 C-18.1875 38.625 -18.1875 38.625 -16.1875 38.625 C-16.1875 37.305 -16.1875 35.985 -16.1875 34.625 C-17.033125 34.41875 -17.87875 34.2125 -18.75 34 C-23.34059835 32.16376066 -27.91644274 29.16711452 -30.1875 24.625 C-30.9263136 19.45330478 -29.35541384 16.82509301 -26.546875 12.71484375 C-25.19583773 10.63781807 -24.19855737 8.57080437 -23.1875 6.3125 C-21.47808898 2.79717895 -19.87270895 1.1912138 -16.1875 -0.375 C-10.63759634 -1.98700521 -5.35698038 -2.31085428 0 0 Z M-43.1875 84.625 C-43.8475 85.285 -44.5075 85.945 -45.1875 86.625 C-43.8675 86.625 -42.5475 86.625 -41.1875 86.625 C-41.1875 85.965 -41.1875 85.305 -41.1875 84.625 C-41.8475 84.625 -42.5075 84.625 -43.1875 84.625 Z " fill="#291717" transform="translate(73.1875,19.375)"/>
<path d="M0 0 C7.6765949 -0.99052837 14.35255949 1.05923964 21 5 C22.34765625 7.171875 22.34765625 7.171875 23 9 C21.35 11.31 19.7 13.62 18 16 C17.67 24.58 17.34 33.16 17 42 C-3.46 42 -23.92 42 -45 42 C-45 33.42 -45 24.84 -45 16 C-27.51 16 -10.02 16 8 16 C7.505 13.03 7.505 13.03 7 10 C5.329375 10.061875 5.329375 10.061875 3.625 10.125 C0 10 0 10 -2 8 C-2.38286803 4.26703674 -2.14915785 3.22373677 0 0 Z " fill="#FEFDFD" transform="translate(78,64)"/>
<path d="M0 0 C5.96181723 6.16187821 11.78173875 14.24626719 11.6875 23 C11.38671875 25.9375 11.38671875 25.9375 11 28 C10.34 28.33 9.68 28.66 9 29 C11.76850823 30.38425411 14.00419184 30.11959962 17.10205078 30.11352539 C18.38322784 30.11344986 19.66440491 30.11337433 20.98440552 30.11329651 C22.38804157 30.10818948 23.79167723 30.10297348 25.1953125 30.09765625 C26.62734935 30.09579146 28.05938684 30.09436784 29.49142456 30.09336853 C33.26273354 30.08954819 37.03400407 30.07972202 40.80529785 30.06866455 C44.65274536 30.05844005 48.50019907 30.05386868 52.34765625 30.04882812 C59.89845503 30.03809933 67.44922213 30.02102869 75 30 C74.97208374 29.04330414 74.94416748 28.08660828 74.91540527 27.10092163 C74.89369263 25.84349152 74.87197998 24.5860614 74.84960938 23.29052734 C74.82169312 22.04508148 74.79377686 20.79963562 74.76501465 19.51644897 C75.11186329 14.32601677 77.15507038 11.43838414 80.5 7.625 C81.02464844 6.97273438 81.54929687 6.32046875 82.08984375 5.6484375 C83.36316022 4.07415532 84.67735198 2.53306929 86 1 C87.12075867 1.92930361 88.23708638 2.86395246 89.3515625 3.80078125 C90.28476318 4.58062378 90.28476318 4.58062378 91.23681641 5.3762207 C94.97777086 8.82140044 97.76046606 12.97518765 98.16796875 18.12109375 C98.17441406 18.88550781 98.18085937 19.64992188 98.1875 20.4375 C98.20167969 21.19933594 98.21585937 21.96117188 98.23046875 22.74609375 C97.97612666 25.23347315 97.24017196 26.84808106 96 29 C98.64 29.33 101.28 29.66 104 30 C104 31.32 104 32.64 104 34 C63.74 34 23.48 34 -18 34 C-18 32.68 -18 31.36 -18 30 C-16.02 29.67 -14.04 29.34 -12 29 C-12.32226562 28.42765625 -12.64453125 27.8553125 -12.9765625 27.265625 C-14.91519793 22.97398932 -14.71064667 18.39730807 -13.3828125 13.91796875 C-11.24234172 9.11611616 -5.73306903 0 0 0 Z " fill="#FA1616" transform="translate(21,76)"/>
<path d="M0 0 C3.28750379 3.06833687 5.19626396 6.25141004 7.3203125 10.1875 C8.73795569 12.71903606 8.73795569 12.71903606 10.95703125 14.7578125 C12.8125 16.625 12.8125 16.625 13.375 19.5 C12.5938211 23.83988275 10.91656819 25.52093181 7.8125 28.625 C7.1525 28.625 6.4925 28.625 5.8125 28.625 C5.565 29.24375 5.3175 29.8625 5.0625 30.5 C3.57999514 33.02025827 2.52862936 33.63731659 -0.1875 34.625 C-1.1775 34.625 -2.1675 34.625 -3.1875 34.625 C-2.54503223 29.64587479 -0.58732029 25.008068 1.8125 20.625 C2.4725 20.295 3.1325 19.965 3.8125 19.625 C4.46463292 17.60036745 4.46463292 17.60036745 4.8125 15.625 C3.8225 15.955 2.8325 16.285 1.8125 16.625 C-0.1675 13.655 -2.1475 10.685 -4.1875 7.625 C-5.6415625 9.0790625 -5.6415625 9.0790625 -7.125 10.5625 C-10.77928931 13.75346429 -13.59355745 14.32478422 -18.3671875 14.421875 C-18.96789063 14.48890625 -19.56859375 14.5559375 -20.1875 14.625 C-20.5175 15.285 -20.8475 15.945 -21.1875 16.625 C-21.8475 16.295 -22.5075 15.965 -23.1875 15.625 C-22.83963292 17.60036745 -22.83963292 17.60036745 -22.1875 19.625 C-21.5275 19.955 -20.8675 20.285 -20.1875 20.625 C-19.51171875 22.33203125 -19.51171875 22.33203125 -18.875 24.4375 C-17.43339543 28.43239425 -16.02845218 30.52993517 -12.1875 32.625 C-8.47809225 32.95965889 -8.47809225 32.95965889 -5.1875 32.625 C-7.3165142 34.96691563 -9.23158729 36.46054954 -12.1875 37.625 C-13.5075 37.625 -14.8275 37.625 -16.1875 37.625 C-16.1875 36.635 -16.1875 35.645 -16.1875 34.625 C-17.033125 34.41875 -17.87875 34.2125 -18.75 34 C-23.34059835 32.16376066 -27.91644274 29.16711452 -30.1875 24.625 C-30.9263136 19.45330478 -29.35541384 16.82509301 -26.546875 12.71484375 C-25.19583773 10.63781807 -24.19855737 8.57080437 -23.1875 6.3125 C-21.47808898 2.79717895 -19.87270895 1.1912138 -16.1875 -0.375 C-10.63759634 -1.98700521 -5.35698038 -2.31085428 0 0 Z " fill="#040404" transform="translate(73.1875,19.375)"/>
<path d="M0 0 C2.04388472 1.93631184 3.80858353 3.99250986 5.5625 6.1875 C6.366875 7.115625 7.17125 8.04375 8 9 C8.66 9 9.32 9 10 9 C9.67 10.65 9.34 12.3 9 14 C8.34 14 7.68 14 7 14 C6.896875 14.9075 6.79375 15.815 6.6875 16.75 C6 20 6 20 4.4375 21.8125 C2.21938105 25.1878984 2.22653472 29.07200967 3 33 C3.99 33.66 4.98 34.32 6 35 C5.39595249 40.43642763 5.39595249 40.43642763 3.828125 42.66796875 C-0.05742921 45.49910974 -5.44843628 44.67082275 -10 44 C-12.8125 41.8125 -12.8125 41.8125 -14 39 C-13.83083157 35.44746291 -13.00047767 34.0007165 -11 31 C-8.6171875 29.83203125 -8.6171875 29.83203125 -5.875 28.8125 C-4.96492188 28.46832031 -4.05484375 28.12414062 -3.1171875 27.76953125 C-2.41851562 27.51558594 -1.71984375 27.26164062 -1 27 C-1.845625 27.12375 -2.69125 27.2475 -3.5625 27.375 C-7.77530624 26.91542114 -9.5299182 25.62120435 -12.5859375 22.80078125 C-14.7497346 20.04522749 -14.93152577 17.42371163 -15 14 C-15.99 13.67 -16.98 13.34 -18 13 C-18 11.68 -18 10.36 -18 9 C-17.19175781 8.84144531 -16.38351563 8.68289062 -15.55078125 8.51953125 C-7.10375627 6.68973334 -7.10375627 6.68973334 -1 1 C-0.67 0.67 -0.34 0.34 0 0 Z " fill="#EBEBEB" transform="translate(68,26)"/>
<path d="M0 0 C7.6765949 -0.99052837 14.35255949 1.05923964 21 5 C22.34765625 7.171875 22.34765625 7.171875 23 9 C20.35751295 13.93264249 20.35751295 13.93264249 18 16 C14.59223158 16.61912129 11.42561087 16.41905531 8 16 C7.67 14.02 7.34 12.04 7 10 C5.329375 10.061875 5.329375 10.061875 3.625 10.125 C0 10 0 10 -2 8 C-2.38286803 4.26703674 -2.14915785 3.22373677 0 0 Z " fill="#E02626" transform="translate(78,64)"/>
<path d="M0 0 C0.66 0 1.32 0 2 0 C2.103125 1.11375 2.20625 2.2275 2.3125 3.375 C2.6528125 5.169375 2.6528125 5.169375 3 7 C3.99 7.66 4.98 8.32 6 9 C5.39595249 14.43642763 5.39595249 14.43642763 3.828125 16.66796875 C-0.05742921 19.49910974 -5.44843628 18.67082275 -10 18 C-12.8125 15.8125 -12.8125 15.8125 -14 13 C-13.83083157 9.44746291 -13.00047767 8.0007165 -11 5 C-8.65234375 3.8671875 -8.65234375 3.8671875 -5.9375 2.875 C-2.71252433 1.85620817 -2.71252433 1.85620817 0 0 Z " fill="#FCFBFB" transform="translate(68,52)"/>
<path d="M0 0 C0.66 0 1.32 0 2 0 C3.2244048 11.80190185 3.2244048 11.80190185 0.359375 16.9453125 C-1.66912615 19.40205278 -3.79695822 21.70007492 -6 24 C-6.84521415 25.1856807 -7.66525279 26.39055278 -8.4375 27.625 C-8.953125 28.40875 -9.46875 29.1925 -10 30 C-10.33 30 -10.66 30 -11 30 C-12.02748532 19.74145609 -10.17909762 14.13248977 -4 6 C-3.21998787 4.77663751 -2.44709333 3.54864428 -1.6875 2.3125 C-1.130625 1.549375 -0.57375 0.78625 0 0 Z " fill="#060000" transform="translate(107,62)"/>
<path d="M0 0 C0.66 0 1.32 0 2 0 C5.4546919 4.45473429 8.25849402 9.08419617 11 14 C11.99 15.485 11.99 15.485 13 17 C13.1953125 20.13671875 13.1953125 20.13671875 13.125 23.6875 C13.10695313 24.86699219 13.08890625 26.04648438 13.0703125 27.26171875 C13.03550781 28.61716797 13.03550781 28.61716797 13 30 C10.0253772 27.17015973 7.60002342 24.23934977 5.25 20.875 C4.32960938 19.57175781 4.32960938 19.57175781 3.390625 18.2421875 C2 16 2 16 2 14 C1.34 14 0.68 14 0 14 C0 9.38 0 4.76 0 0 Z " fill="#070000" transform="translate(19,62)"/>
<path d="M0 0 C1.65322266 0.01740234 1.65322266 0.01740234 3.33984375 0.03515625 C4.99693359 0.04869141 4.99693359 0.04869141 6.6875 0.0625 C7.54214844 0.07410156 8.39679687 0.08570313 9.27734375 0.09765625 C10.76840832 3.07978538 10.39675842 5.81375283 10.27734375 9.09765625 C9.27734375 10.09765625 9.27734375 10.09765625 6.27734375 10.22265625 C3.27734375 10.09765625 3.27734375 10.09765625 2.27734375 9.09765625 C0.6111726 9.05701793 -1.0565372 9.05493525 -2.72265625 9.09765625 C-4.11774105 6.79986952 -4.79704244 5.61835955 -4.41015625 2.91015625 C-3.32935561 0.06077274 -3.19389719 0.11455872 0 0 Z " fill="#F2F1F1" transform="translate(38.72265625,63.90234375)"/>
<path d="M0 0 C2.0234375 -0.36328125 2.0234375 -0.36328125 4.375 -0.3125 C5.14585938 -0.30863281 5.91671875 -0.30476563 6.7109375 -0.30078125 C9.24380993 0.03203646 10.86776539 0.59573095 13 2 C14 5 14 5 13.0625 7.1875 C12.711875 7.785625 12.36125 8.38375 12 9 C11.195625 8.979375 10.39125 8.95875 9.5625 8.9375 C7.06645115 8.70366379 7.06645115 8.70366379 6 10 C3.0625 10.1875 3.0625 10.1875 0 10 C-2 8 -2 8 -2.25 5.5625 C-2 3 -2 3 0 0 Z " fill="#F6F3F3" transform="translate(78,64)"/>
<path d="M0 0 C0.66 1.65 1.32 3.3 2 5 C3.98 5 5.96 5 8 5 C6.79618552 7.49361571 5.54571278 9.68143083 4 12 C0.6875 12.625 0.6875 12.625 -3 12 C-5.09799778 9.90200222 -6.56742201 7.58788282 -8 5 C-7.25 3.0625 -7.25 3.0625 -6 1 C-3.86997684 0.20124132 -2.26695035 0 0 0 Z " fill="#F32929" transform="translate(34,67)"/>
<path d="M0 0 C2.375 0.3125 2.375 0.3125 5 1 C7.82987779 5.24481668 7.36789905 8.8830297 7.375 13.875 C7.39949219 14.77347656 7.42398438 15.67195313 7.44921875 16.59765625 C7.46879283 21.01487291 7.42583098 23.34070184 4.9765625 27.1328125 C3.99816406 28.05707031 3.99816406 28.05707031 3 29 C2.01 28.67 1.02 28.34 0 28 C0.99 27.34 1.98 26.68 3 26 C2.01 25.67 1.02 25.34 0 25 C0 23.68 0 22.36 0 21 C1.98 20.67 3.96 20.34 6 20 C6 18.02 6 16.04 6 14 C4.02 15.32 2.04 16.64 0 18 C-0.33 16.68 -0.66 15.36 -1 14 C2.75 11 2.75 11 5 11 C4.88785352 5.37993278 4.88785352 5.37993278 1.9375 1 C1.298125 0.67 0.65875 0.34 0 0 Z M3 21 C2.01 22.485 2.01 22.485 1 24 C2.32 23.34 3.64 22.68 5 22 C4.34 21.67 3.68 21.34 3 21 Z " fill="#FF1515" transform="translate(91,31)"/>
<path d="M0 0 C0.66 0.33 1.32 0.66 2 1 C1.34 1.66 0.68 2.32 0 3 C0.32417863 6.80909895 0.85581442 8.78372163 3 12 C0.36 12 -2.28 12 -5 12 C-5.33 12.66 -5.66 13.32 -6 14 C-6.33 11.36 -6.66 8.72 -7 6 C-10.3 6 -13.6 6 -17 6 C-17 5.67 -17 5.34 -17 5 C-16.1646875 4.96132813 -16.1646875 4.96132813 -15.3125 4.921875 C-10.01683618 4.52827837 -6.2165321 3.42988749 -1.62890625 0.7421875 C-1.09136719 0.49726562 -0.55382812 0.25234375 0 0 Z " fill="#E23131" transform="translate(55,58)"/>
<path d="M0 0 C0.04125 0.61875 0.0825 1.2375 0.125 1.875 C0.41375 2.57625 0.7025 3.2775 1 4 C3.8371515 5.19595537 3.8371515 5.19595537 7 6 C7.6290625 6.32742187 8.258125 6.65484375 8.90625 6.9921875 C11.86190637 8.41487284 14.86574908 8.84936808 18.07421875 9.4375 C18.70972656 9.623125 19.34523438 9.80875 20 10 C20.33 10.66 20.66 11.32 21 12 C16.71 11.34 12.42 10.68 8 10 C7.34 11.98 6.68 13.96 6 16 C4.02 16 2.04 16 0 16 C0.7425 14.88625 0.7425 14.88625 1.5 13.75 C3.31923475 10.93681812 3.31923475 10.93681812 3 7 C2.01 6.34 1.02 5.68 0 5 C-0.1875 2.375 -0.1875 2.375 0 0 Z " fill="#D83131" transform="translate(70,54)"/>
<path d="M0 0 C0.99 0.33 1.98 0.66 3 1 C2.2884375 1.6496875 2.2884375 1.6496875 1.5625 2.3125 C-0.90850895 4.98118967 -1.15488107 7.57227408 -1.1875 11.0625 C-1.44214222 15.00630631 -1.44214222 15.00630631 1 17 C1.66 15.68 2.32 14.36 3 13 C3.99 13 4.98 13 6 13 C5.67 15.97 5.34 18.94 5 22 C5.66 22 6.32 22 7 22 C7 22.66 7 23.32 7 24 C2.51156168 22.17137698 -0.47891383 19.00506814 -3.375 15.1875 C-4.72183777 10.4735678 -3.62617152 6.20224932 -1.4375 2 C-0.963125 1.34 -0.48875 0.68 0 0 Z M4 14 C5 16 5 16 5 16 Z " fill="#FF1515" transform="translate(28,40)"/>
<path d="M0 0 C1.32 0.66 2.64 1.32 4 2 C4 6.29107948 3.70361469 7.75566237 1 11 C-2.1875 11.3125 -2.1875 11.3125 -5 11 C-4.360625 9.9275 -3.72125 8.855 -3.0625 7.75 C-1.59398727 5.19177818 -0.47145458 2.94659114 0 0 Z " fill="#FA1616" transform="translate(96,68)"/>
<path d="M0 0 C0.66 0 1.32 0 2 0 C1.67 0.66 1.34 1.32 1 2 C0.67 1.34 0.34 0.68 0 0 Z M-4 1 C-2.68 1.33 -1.36 1.66 0 2 C0.33 4.64 0.66 7.28 1 10 C2.65 10.33 4.3 10.66 6 11 C6 11.33 6 11.66 6 12 C2.8125 12.4375 2.8125 12.4375 -1 12 C-3.11158381 9.91454966 -4.56739143 7.58793807 -6 5 C-5.34 3.68 -4.68 2.36 -4 1 Z " fill="#F61515" transform="translate(32,67)"/>
<path d="M0 0 C0.7734375 0.495 0.7734375 0.495 1.5625 1 C4.78026512 2.32010877 7.5570528 2.13242105 11 2 C8.8709858 4.34191563 6.95591271 5.83554954 4 7 C2.68 7 1.36 7 0 7 C0 4.69 0 2.38 0 0 Z " fill="#252525" transform="translate(57,50)"/>
<path d="M0 0 C-1.375 1.5 -1.375 1.5 -3 3 C-3.66 3 -4.32 3 -5 3 C-5.66 4.32 -6.32 5.64 -7 7 C-6.67 4.69 -6.34 2.38 -6 0 C-3 -1 -3 -1 0 0 Z " fill="#FF4242" transform="translate(117,98)"/>
<path d="M0 0 C0.99 0 1.98 0 3 0 C3 1.65 3 3.3 3 5 C1.35 5 -0.3 5 -2 5 C-1 2 -1 2 0 0 Z " fill="#B4B4B4" transform="translate(80,69)"/>
<path d="M0 0 C0.99 0 1.98 0 3 0 C5 2 5 2 5 5 C3.35 5 1.7 5 0 5 C0 3.35 0 1.7 0 0 Z " fill="#B5B3B3" transform="translate(43,69)"/>
<path d="M0 0 C0.04125 0.61875 0.0825 1.2375 0.125 1.875 C0.41375 2.57625 0.7025 3.2775 1 4 C3.99615946 5.3045656 3.99615946 5.3045656 7 6 C6.01 6.495 6.01 6.495 5 7 C4.67 7.99 4.34 8.98 4 10 C3.67 9.01 3.34 8.02 3 7 C2.01 6.34 1.02 5.68 0 5 C-0.1875 2.375 -0.1875 2.375 0 0 Z " fill="#BB3E3E" transform="translate(70,54)"/>
<path d="M0 0 C1.32 0.33 2.64 0.66 4 1 C4 3.64 4 6.28 4 9 C2.47700477 6.06279492 1.19899698 3.0831351 0 0 Z " fill="#FF4141" transform="translate(10,96)"/>
<path d="M0 0 C0.33 0.66 0.66 1.32 1 2 C-0.65 4.31 -2.3 6.62 -4 9 C-4.33 8.34 -4.66 7.68 -5 7 C-3.35 4.69 -1.7 2.38 0 0 Z " fill="#FF1616" transform="translate(106,53)"/>
<path d="M0 0 C0.33 0.99 0.66 1.98 1 3 C-0.65 4.65 -2.3 6.3 -4 8 C-4.66 7.67 -5.32 7.34 -6 7 C-4.02 4.69 -2.04 2.38 0 0 Z " fill="#FF1414" transform="translate(112,53)"/>
<path d="M0 0 C0.66 0 1.32 0 2 0 C3.06775224 1.96466413 4.06553465 3.96855359 5 6 C4.67 6.66 4.34 7.32 4 8 C2.68 5.36 1.36 2.72 0 0 Z " fill="#FF1414" transform="translate(39,52)"/>
<path d="M0 0 C0.66 0 1.32 0 2 0 C2.66 1.98 3.32 3.96 4 6 C3.34 6 2.68 6 2 6 C1.34 4.02 0.68 2.04 0 0 Z " fill="#FF1212" transform="translate(46,52)"/>
<path d="M0 0 C0.99 0.33 1.98 0.66 3 1 C4.1875 3.5625 4.1875 3.5625 5 6 C3.31237149 4.3545622 1.6459651 2.68711423 0 1 C0 0.67 0 0.34 0 0 Z " fill="#FF1818" transform="translate(17,54)"/>
<path d="M0 0 C1.65 1.65 3.3 3.3 5 5 C3.0625 4.1875 3.0625 4.1875 1 3 C0.67 2.01 0.34 1.02 0 0 Z " fill="#FF1515" transform="translate(11,55)"/>
</svg>
