<?xml version="1.0" encoding="UTF-8"?>
<svg version="1.1" xmlns="http://www.w3.org/2000/svg" width="128" height="128">
<path d="M0 0 C0.91112045 -0.00960754 1.82224091 -0.01921509 2.76097107 -0.02911377 C3.74743118 -0.03336365 4.7338913 -0.03761353 5.75024414 -0.04199219 C7.26685387 -0.0505423 7.26685387 -0.0505423 8.81410217 -0.05926514 C10.95515901 -0.06872134 13.09623043 -0.07525158 15.23730469 -0.07910156 C18.51856734 -0.08881735 21.79920645 -0.11983931 25.08032227 -0.15136719 C27.15779249 -0.15789605 29.23526721 -0.16314698 31.31274414 -0.16699219 C32.29718002 -0.17933899 33.28161591 -0.19168579 34.29588318 -0.20440674 C35.21015579 -0.20140564 36.12442841 -0.19840454 37.06640625 -0.1953125 C37.87089706 -0.19895813 38.67538788 -0.20260376 39.5042572 -0.20635986 C42.1262935 0.25388052 42.98333951 1.08235991 44.59790039 3.16113281 C45.39746094 5.61303711 45.39746094 5.61303711 45.98461914 8.48535156 C46.20053711 9.51337891 46.41645508 10.54140625 46.63891602 11.60058594 C46.85225586 12.67244141 47.0655957 13.74429688 47.28540039 14.84863281 C47.6228125 16.47381836 47.6228125 16.47381836 47.96704102 18.13183594 C48.52079684 20.80635873 49.06396726 23.48259467 49.59790039 26.16113281 C51.01578404 26.47792021 52.43377368 26.7942332 53.85180664 27.11035156 C54.64143799 27.28655029 55.43106934 27.46274902 56.24462891 27.64428711 C57.71645565 27.96754234 59.19193272 28.27504437 60.671875 28.55883789 C62.53540039 28.97363281 62.53540039 28.97363281 65.59790039 30.16113281 C67.76397257 34.14083152 67.972252 38.00373658 68.22290039 42.47363281 C68.33504883 44.35501953 68.33504883 44.35501953 68.44946289 46.27441406 C68.49844727 47.22703125 68.54743164 48.17964844 68.59790039 49.16113281 C67.97270508 49.43828125 67.34750977 49.71542969 66.70336914 50.00097656 C63.93325016 51.52736865 63.07513994 53.41768794 61.59790039 56.16113281 C59.61322876 58.14580444 55.98497758 57.48057556 53.28540039 57.53613281 C52.26929687 57.59220703 52.26929687 57.59220703 51.23266602 57.64941406 C49.23461914 57.68457031 49.23461914 57.68457031 45.59790039 57.16113281 C43.11743164 54.76269531 43.11743164 54.76269531 41.59790039 52.16113281 C41.59790039 51.50113281 41.59790039 50.84113281 41.59790039 50.16113281 C40.60790039 50.16113281 39.61790039 50.16113281 38.59790039 50.16113281 C38.49477539 50.75925781 38.39165039 51.35738281 38.28540039 51.97363281 C37.4498989 54.63204666 36.84976772 55.50945326 34.59790039 57.16113281 C31.38305664 57.55957031 31.38305664 57.55957031 27.66040039 57.53613281 C26.43450195 57.54386719 25.20860352 57.55160156 23.94555664 57.55957031 C20.44602777 57.14305696 18.94835712 56.76489691 16.59790039 54.16113281 C16.59790039 52.84113281 16.59790039 51.52113281 16.59790039 50.16113281 C14.94790039 50.16113281 13.29790039 50.16113281 11.59790039 50.16113281 C11.44321289 51.33675781 11.44321289 51.33675781 11.28540039 52.53613281 C10.59790039 55.16113281 10.59790039 55.16113281 7.59790039 57.16113281 C4.38305664 57.49707031 4.38305664 57.49707031 0.66040039 57.53613281 C-0.56549805 57.56449219 -1.79139648 57.59285156 -3.05444336 57.62207031 C-6.40209961 57.16113281 -6.40209961 57.16113281 -8.84350586 55.32519531 C-10.40209961 53.16113281 -10.40209961 53.16113281 -10.40209961 50.16113281 C-14.17064184 51.41731356 -14.48168417 52.82127987 -16.40209961 56.16113281 C-19.33748414 57.62882508 -22.00986977 57.4478293 -25.27709961 57.53613281 C-26.51202148 57.58511719 -27.74694336 57.63410156 -29.01928711 57.68457031 C-32.40209961 57.16113281 -32.40209961 57.16113281 -34.84741211 54.76269531 C-36.40209961 52.16113281 -36.40209961 52.16113281 -36.40209961 50.16113281 C-38.71209961 50.16113281 -41.02209961 50.16113281 -43.40209961 50.16113281 C-43.40209961 44.22113281 -43.40209961 38.28113281 -43.40209961 32.16113281 C-42.08209961 31.83113281 -40.76209961 31.50113281 -39.40209961 31.16113281 C-39.41370117 30.54625 -39.42530273 29.93136719 -39.43725586 29.29785156 C-39.4462793 28.48960938 -39.45530273 27.68136719 -39.46459961 26.84863281 C-39.47620117 26.048125 -39.48780273 25.24761719 -39.49975586 24.42285156 C-39.40209961 22.16113281 -39.40209961 22.16113281 -38.40209961 19.16113281 C-34.44209961 18.66613281 -34.44209961 18.66613281 -30.40209961 18.16113281 C-30.4369043 17.3296875 -30.47170898 16.49824219 -30.50756836 15.64160156 C-30.53463867 14.55492187 -30.56170898 13.46824219 -30.58959961 12.34863281 C-30.64180664 10.73021484 -30.64180664 10.73021484 -30.69506836 9.07910156 C-30.40209961 6.16113281 -30.40209961 6.16113281 -29.13256836 4.34863281 C-25.21856441 1.66272491 -19.04062091 0.30666836 -14.40209961 1.16113281 C-12.19437968 2.67334193 -10.37291081 4.32782007 -8.40209961 6.16113281 C-8.11334961 5.35675781 -7.82459961 4.55238281 -7.52709961 3.72363281 C-5.80441312 -0.20026419 -3.96616046 0.03369555 0 0 Z " fill="#FA1717" transform="translate(51.402099609375,44.8388671875)"/>
<path d="M0 0 C2.43929614 0.45005464 4.87611777 0.90964876 7.3125 1.375 C8.34793945 1.56449219 8.34793945 1.56449219 9.40429688 1.7578125 C12.83703314 2.42114318 15.05246458 3.03497639 18 5 C18.73046875 7.609375 18.73046875 7.609375 19.1875 10.75 C19.34605469 11.77609375 19.50460938 12.8021875 19.66796875 13.859375 C19.99297414 16.93354367 20.06010763 19.9113924 20 23 C19.401875 23.226875 18.80375 23.45375 18.1875 23.6875 C15.42886244 25.34268253 14.50669981 27.20184321 13 30 C11.01532837 31.98467163 7.38707719 31.31944275 4.6875 31.375 C4.01009766 31.41238281 3.33269531 31.44976562 2.63476562 31.48828125 C0.63671875 31.5234375 0.63671875 31.5234375 -3 31 C-5.48046875 28.6015625 -5.48046875 28.6015625 -7 26 C-7 25.34 -7 24.68 -7 24 C-7.99 24 -8.98 24 -10 24 C-10.103125 24.598125 -10.20625 25.19625 -10.3125 25.8125 C-11.14800149 28.47091385 -11.74813267 29.34832045 -14 31 C-17.21484375 31.3984375 -17.21484375 31.3984375 -20.9375 31.375 C-22.16339844 31.38273437 -23.38929687 31.39046875 -24.65234375 31.3984375 C-28.15187262 30.98192415 -29.64954327 30.6037641 -32 28 C-32 26.68 -32 25.36 -32 24 C-33.65 24 -35.3 24 -37 24 C-37.103125 24.78375 -37.20625 25.5675 -37.3125 26.375 C-38 29 -38 29 -41 31 C-44.21484375 31.3359375 -44.21484375 31.3359375 -47.9375 31.375 C-49.16339844 31.40335938 -50.38929687 31.43171875 -51.65234375 31.4609375 C-55 31 -55 31 -57.44140625 29.1640625 C-59 27 -59 27 -59 24 C-62.76854223 25.25618074 -63.07958456 26.66014706 -65 30 C-67.93538453 31.46769227 -70.60777016 31.28669649 -73.875 31.375 C-75.10992187 31.42398438 -76.34484375 31.47296875 -77.6171875 31.5234375 C-81 31 -81 31 -83.4453125 28.6015625 C-85 26 -85 26 -85 24 C-87.31 24 -89.62 24 -92 24 C-92 23.01 -92 22.02 -92 21 C-90.39125 20.87625 -90.39125 20.87625 -88.75 20.75 C-84.55184393 19.91036879 -83.85820792 18.95040818 -81 16 C-78.0625 15 -78.0625 15 -75 15 C-72.125 16.8125 -72.125 16.8125 -70 19 C-70 19.66 -70 20.32 -70 21 C-57.46 21 -44.92 21 -32 21 C-31.34 19.68 -30.68 18.36 -30 17 C-28.12356239 15.12356239 -25.50194299 15.82015013 -23.0078125 15.76953125 C-21 16 -21 16 -18 18 C-18 18.66 -18 19.32 -18 20 C-13.38 19.67 -8.76 19.34 -4 19 C-4 17.68 -4 16.36 -4 15 C-5.65 15 -7.3 15 -9 15 C-9 13.35 -9 11.7 -9 10 C-7.02 10 -5.04 10 -3 10 C-3 11.65 -3 13.3 -3 15 C3.93 15 10.86 15 18 15 C17.01 10.545 17.01 10.545 16 6 C14.845 5.71125 13.69 5.4225 12.5 5.125 C8.33333333 4.08333333 4.16666667 3.04166667 0 2 C0 1.34 0 0.68 0 0 Z " fill="#1B0404" transform="translate(100,71)"/>
<path d="M0 0 C14.19 0 28.38 0 43 0 C44.32 6.27 45.64 12.54 47 19 C47.495 20.98 47.495 20.98 48 23 C43.71 23 39.42 23 35 23 C35.20625 21.906875 35.4125 20.81375 35.625 19.6875 C36.40346525 15.9161599 36.40346525 15.9161599 34 13 C31.5 12.5 31.5 12.5 29 13 C28.01 14.485 28.01 14.485 27 16 C27.66 16 28.32 16 29 16 C29 15.34 29 14.68 29 14 C30.65 14 32.3 14 34 14 C34.495 16.97 34.495 16.97 35 20 C32.18263828 20.78260048 30.54030762 21.19511109 27.75 20.1875 C26 19 26 19 25 17 C24.34 17.99 23.68 18.98 23 20 C22.34 20 21.68 20 21 20 C20.34 18.35 19.68 16.7 19 15 C17.02 15 15.04 15 13 15 C13.875 10.25 13.875 10.25 15 8 C15.99 8 16.98 8 18 8 C18.33 7.01 18.66 6.02 19 5 C16.08482708 6.07401108 14.22189824 6.77810176 12 9 C11.01 9.103125 10.02 9.20625 9 9.3125 C8.01 9.539375 7.02 9.76625 6 10 C4.84478498 12.47130918 4.84478498 12.47130918 4 15 C2.68 15.33 1.36 15.66 0 16 C0 10.72 0 5.44 0 0 Z " fill="#F5F2F2" transform="translate(52,50)"/>
<path d="M0 0 C1.50272339 1.23650666 2.93840629 2.55344117 4.36328125 3.87890625 C5.02328125 3.54890625 5.68328125 3.21890625 6.36328125 2.87890625 C6.47181048 5.7549308 6.55083275 8.62681457 6.61328125 11.50390625 C6.66355469 12.71626953 6.66355469 12.71626953 6.71484375 13.953125 C6.82143567 20.50852835 5.12493497 23.85755573 0.66015625 28.7421875 C-2.94014788 30.52397067 -6.43379002 30.19423728 -10.38671875 30.06640625 C-11.17949219 30.05287109 -11.97226562 30.03933594 -12.7890625 30.02539062 C-14.73857439 29.99015848 -16.68773501 29.93635446 -18.63671875 29.87890625 C-18.63671875 29.54890625 -18.63671875 29.21890625 -18.63671875 28.87890625 C-16.98671875 28.54890625 -15.33671875 28.21890625 -13.63671875 27.87890625 C-13.30671875 23.91890625 -12.97671875 19.95890625 -12.63671875 15.87890625 C-15.60671875 16.20890625 -18.57671875 16.53890625 -21.63671875 16.87890625 C-20.31671875 16.54890625 -18.99671875 16.21890625 -17.63671875 15.87890625 C-17.68892578 14.63173828 -17.68892578 14.63173828 -17.7421875 13.359375 C-17.76925781 12.27269531 -17.79632812 11.18601562 -17.82421875 10.06640625 C-17.87642578 8.44798828 -17.87642578 8.44798828 -17.9296875 6.796875 C-17.63671875 3.87890625 -17.63671875 3.87890625 -16.3671875 2.06640625 C-12.23660226 -0.76812629 -4.34811335 -2.97830199 0 0 Z " fill="#161616" transform="translate(38.63671875,47.12109375)"/>
<path d="M0 0 C30.21360739 -0.52426174 30.21360739 -0.52426174 37 4 C37.495 8.455 37.495 8.455 38 13 C31.07 13 24.14 13 17 13 C17 11.35 17 9.7 17 8 C16.34 8 15.68 8 15 8 C14.67 6.35 14.34 4.7 14 3 C9.38 2.34 4.76 1.68 0 1 C0 0.67 0 0.34 0 0 Z " fill="#F41616" transform="translate(80,73)"/>
<path d="M0 0 C14.19 0 28.38 0 43 0 C44.32 6.27 45.64 12.54 47 19 C47.495 20.98 47.495 20.98 48 23 C43.71 23 39.42 23 35 23 C35.20625 21.906875 35.4125 20.81375 35.625 19.6875 C36.40346525 15.9161599 36.40346525 15.9161599 34 13 C31.94996045 11.80767387 31.94996045 11.80767387 30 11 C30.61875 10.71125 31.2375 10.4225 31.875 10.125 C34.13325765 9.06279958 34.13325765 9.06279958 36 7 C36.66 7.33 37.32 7.66 38 8 C37.814375 7.21625 37.62875 6.4325 37.4375 5.625 C37 3 37 3 38 1 C32.72 1 27.44 1 22 1 C21.67 1.99 21.34 2.98 21 4 C21 3.01 21 2.02 21 1 C14.4 1 7.8 1 1 1 C1.33 5.95 1.66 10.9 2 16 C1.34 16 0.68 16 0 16 C0 10.72 0 5.44 0 0 Z " fill="#F6DBDB" transform="translate(52,50)"/>
<path d="M0 0 C5.28 0 10.56 0 16 0 C17 5 17 5 16 7 C14.67661368 7.68620031 13.34050052 8.34786461 12 9 C7.83488485 11.36398941 7.83488485 11.36398941 5 15 C5.66 15 6.32 15 7 15 C7 14.34 7 13.68 7 13 C8.65 13 10.3 13 12 13 C12.33 14.98 12.66 16.96 13 19 C10.33345547 19.74070681 8.59644942 20.19844064 5.93359375 19.3125 C2.24263135 16.80711946 1.91787566 12.15459511 1 8 C0.55430553 5.32583317 0.25022202 2.70239778 0 0 Z " fill="#FCFBFB" transform="translate(74,51)"/>
<path d="M0 0 C2.3125 -0.25 2.3125 -0.25 5 0 C6.875 1.625 6.875 1.625 8 4 C7.57446809 9.42553191 7.57446809 9.42553191 6 11 C4.00035018 11.08758003 1.9976389 11.10696576 -0.00390625 11.09765625 C-1.21884766 11.09443359 -2.43378906 11.09121094 -3.68554688 11.08789062 C-4.96494141 11.07951172 -6.24433594 11.07113281 -7.5625 11.0625 C-8.84576172 11.05798828 -10.12902344 11.05347656 -11.45117188 11.04882812 C-14.63416022 11.03699545 -17.81705762 11.02051068 -21 11 C-21.125 7.625 -21.125 7.625 -21 4 C-19 2 -19 2 -16.90625 1.734375 C-15.71515625 1.74210937 -15.71515625 1.74210937 -14.5 1.75 C-13.7059375 1.74484375 -12.911875 1.7396875 -12.09375 1.734375 C-10 2 -10 2 -8 4 C-8 5.32 -8 6.64 -8 8 C-7.34 7.67 -6.68 7.34 -6 7 C-5.34444881 4.47266765 -5.34444881 4.47266765 -5 2 C-3 5 -3 5 -3 7 C-0.36 7.33 2.28 7.66 5 8 C5 6.02 5 4.04 5 2 C3.35 2 1.7 2 0 2 C0 2.66 0 3.32 0 4 C-0.66 4 -1.32 4 -2 4 C-1.34 2.68 -0.68 1.36 0 0 Z " fill="#0F0606" transform="translate(81,62)"/>
<path d="M0 0 C1.8871875 0.0309375 1.8871875 0.0309375 3.8125 0.0625 C3.8125 4.0225 3.8125 7.9825 3.8125 12.0625 C-0.97519313 13.97757725 -4.17666329 14.55292339 -9.1875 15.0625 C-9.24187607 13.47955218 -9.28046271 11.89605744 -9.3125 10.3125 C-9.33570312 9.43078125 -9.35890625 8.5490625 -9.3828125 7.640625 C-9.17470489 4.89360453 -8.73227419 3.33362497 -7.1875 1.0625 C-4.43671116 0.14557039 -2.82801087 -0.04636083 0 0 Z " fill="#F3F1F1" transform="translate(31.1875,46.9375)"/>
<path d="M0 0 C0.02696365 1.79158489 0.04637917 3.58328473 0.0625 5.375 C0.07410156 6.37273437 0.08570313 7.37046875 0.09765625 8.3984375 C0 11 0 11 -1 13 C-3.72265625 13.6328125 -3.72265625 13.6328125 -7.0625 14.125 C-8.16722656 14.29257813 -9.27195313 14.46015625 -10.41015625 14.6328125 C-11.69212891 14.81457031 -11.69212891 14.81457031 -13 15 C-13 11.04 -13 7.08 -13 3 C-4.5 0 -4.5 0 0 0 Z " fill="#F8F6F6" transform="translate(42,60)"/>
<path d="M0 0 C0.02686553 1.97909398 0.04633375 3.95828971 0.0625 5.9375 C0.07410156 7.03964844 0.08570313 8.14179687 0.09765625 9.27734375 C0 12 0 12 -1 13 C-5.00220653 13.14355117 -8.99441683 13.04216403 -13 13 C-13 9.04 -13 5.08 -13 1 C-8.60587331 0.48304392 -4.42613977 0 0 0 Z " fill="#F5F3F3" transform="translate(26,63)"/>
<path d="M0 0 C3.93736123 -0.08696177 7.87447628 -0.14037835 11.8125 -0.1875 C13.49182617 -0.22520508 13.49182617 -0.22520508 15.20507812 -0.26367188 C16.27822266 -0.27333984 17.35136719 -0.28300781 18.45703125 -0.29296875 C19.9416687 -0.31653442 19.9416687 -0.31653442 21.45629883 -0.34057617 C24 0 24 0 25.77124023 1.2331543 C27.24495827 3.35222789 27.70453703 5.03198835 28.203125 7.5625 C28.3784375 8.44164062 28.55375 9.32078125 28.734375 10.2265625 C28.90453125 11.14179687 29.0746875 12.05703125 29.25 13 C29.435625 13.91523437 29.62125 14.83046875 29.8125 15.7734375 C31.13360969 22.59917092 31.13360969 22.59917092 30 26 C29.51293949 24.18960529 29.03582481 22.37653433 28.5625 20.5625 C28.29566406 19.55316406 28.02882813 18.54382813 27.75390625 17.50390625 C26.86055393 13.35190092 26.39812781 9.22395213 26 5 C25.37432129 5.00523682 24.74864258 5.01047363 24.10400391 5.01586914 C21.27767943 5.03661618 18.45137095 5.04965286 15.625 5.0625 C14.14773437 5.07506836 14.14773437 5.07506836 12.640625 5.08789062 C11.22910156 5.09272461 11.22910156 5.09272461 9.7890625 5.09765625 C8.48509521 5.10551147 8.48509521 5.10551147 7.15478516 5.11352539 C5 5 5 5 3 4 C3 3.34 3 2.68 3 2 C2.01 2 1.02 2 0 2 C0 1.34 0 0.68 0 0 Z " fill="#DE1F1F" transform="translate(69,45)"/>
<path d="M0 0 C1.32 0 2.64 0 4 0 C3.67 1.32 3.34 2.64 3 4 C2.01 3.67 1.02 3.34 0 3 C-0.2475 3.94875 -0.495 4.8975 -0.75 5.875 C-2 9 -2 9 -4.0625 9.9375 C-4.701875 10.288125 -5.34125 10.63875 -6 11 C-6.81870185 14.56206661 -6.81870185 14.56206661 -7 18 C-9.64 18 -12.28 18 -15 18 C-15 15.69 -15 13.38 -15 11 C-14.38125 10.773125 -13.7625 10.54625 -13.125 10.3125 C-10.75591379 9.16566379 -10.75591379 9.16566379 -10.1875 6.5 C-9.795625 5.675 -9.40375 4.85 -9 4 C-5.5 2.8125 -5.5 2.8125 -2 2 C-1.34 1.34 -0.68 0.68 0 0 Z " fill="#F62020" transform="translate(67,55)"/>
<path d="M0 0 C6.93 0 13.86 0 21 0 C21 1.65 21 3.3 21 5 C14.07 5 7.14 5 0 5 C0 3.35 0 1.7 0 0 Z " fill="#FEFBFB" transform="translate(97,81)"/>
<path d="M0 0 C6.93 0 13.86 0 21 0 C21.33 1.65 21.66 3.3 22 5 C15.07 5 8.14 5 1 5 C0.67 3.35 0.34 1.7 0 0 Z " fill="#FE1D1D" transform="translate(97,86)"/>
<path d="M0 0 C3.0625 0.4375 3.0625 0.4375 5.4375 2.25 C7.0625 4.4375 7.0625 4.4375 7.0625 7.4375 C7.92875 7.623125 7.92875 7.623125 8.8125 7.8125 C11.08585767 8.44398824 12.9878529 9.32608191 15.0625 10.4375 C15.0625 11.0975 15.0625 11.7575 15.0625 12.4375 C11.92989455 11.688827 8.96351821 10.85161641 6.0625 9.4375 C5.00003473 7.46997172 3.99112192 5.47162421 3.0625 3.4375 C-0.02711458 2.46275184 -0.02711458 2.46275184 -2.9375 2.4375 C-3.2675 4.0875 -3.5975 5.7375 -3.9375 7.4375 C-4.494375 7.1075 -5.05125 6.7775 -5.625 6.4375 C-8.24034522 5.3065399 -10.1181646 5.28087026 -12.9375 5.4375 C-13.164375 6.365625 -13.39125 7.29375 -13.625 8.25 C-14.9375 11.4375 -14.9375 11.4375 -17.0625 13.3125 C-20.9040098 14.81569949 -23.82799086 14.64645809 -27.9375 14.4375 C-27.9375 14.1075 -27.9375 13.7775 -27.9375 13.4375 C-25.2975 13.1075 -22.6575 12.7775 -19.9375 12.4375 C-19.9375 11.7775 -19.9375 11.1175 -19.9375 10.4375 C-18.9475 10.4375 -17.9575 10.4375 -16.9375 10.4375 C-16.855 9.48875 -16.7725 8.54 -16.6875 7.5625 C-15.9375 4.4375 -15.9375 4.4375 -14.25 3 C-11.9375 2.4375 -11.9375 2.4375 -8.875 3 C-7.905625 3.144375 -6.93625 3.28875 -5.9375 3.4375 C-2.78306407 0.4144989 -2.78306407 0.4144989 0 0 Z " fill="#FF1414" transform="translate(68.9375,25.5625)"/>
<path d="M0 0 C6.93 0 13.86 0 21 0 C20.01 0.66 19.02 1.32 18 2 C16.9590934 3.64142963 15.95495674 5.30712215 15 7 C14 8 14 8 12.15234375 8.09765625 C10.1015625 8.06510417 8.05078125 8.03255208 6 8 C7.32 5.69 8.64 3.38 10 1 C9.278125 1.350625 8.55625 1.70125 7.8125 2.0625 C4.6877295 3.10409017 3.11838004 2.89096572 0 2 C0 1.34 0 0.68 0 0 Z " fill="#FA1616" transform="translate(98,94)"/>
<path d="M0 0 C2.46928572 -0.06859127 4.61113993 -0.1093669 7 0.5625 C9.56009512 1.12252081 11.48326486 0.62918378 14 0 C13.6875 2.375 13.6875 2.375 13 5 C9.50875983 7.32749345 8.10777749 7.50299316 4 7 C1.625 5.1875 1.625 5.1875 0 3 C0 2.01 0 1.02 0 0 Z " fill="#0A0000" transform="translate(41,95)"/>
<path d="M0 0 C2.63312492 -0.07523214 4.92160446 -0.017639 7.5 0.5625 C10.29387237 1.05142767 12.27317724 0.70118299 15 0 C14.61502006 2.23288365 14.10506663 3.83656302 12.875 5.75 C9.83109498 7.77927002 7.54795112 7.49795805 4 7 C1.5625 4.625 1.5625 4.625 0 2 C0 1.34 0 0.68 0 0 Z " fill="#080000" transform="translate(93,95)"/>
<path d="M0 0 C2.3125 -0.25 2.3125 -0.25 5 0 C6.875 1.625 6.875 1.625 8 4 C7.57446809 9.42553191 7.57446809 9.42553191 6 11 C3.81360547 11.07258946 1.62499611 11.08373783 -0.5625 11.0625 C-2.35880859 11.04896484 -2.35880859 11.04896484 -4.19140625 11.03515625 C-5.11824219 11.02355469 -6.04507813 11.01195313 -7 11 C-6.01 10.67 -5.02 10.34 -4 10 C-4.33 7.36 -4.66 4.72 -5 2 C-3 5 -3 5 -3 7 C-0.36 7.33 2.28 7.66 5 8 C5 6.02 5 4.04 5 2 C3.35 2 1.7 2 0 2 C0 2.66 0 3.32 0 4 C-0.66 4 -1.32 4 -2 4 C-1.34 2.68 -0.68 1.36 0 0 Z " fill="#483C3C" transform="translate(81,62)"/>
<path d="M0 0 C0.33 0 0.66 0 1 0 C1 3.63 1 7.26 1 11 C2.4025 10.649375 3.805 10.29875 5.25 9.9375 C8.57052408 9.10736898 10.72814447 8.92689142 14 10 C11.42483378 12.63746863 9.45668604 13.21887499 5.890625 13.29296875 C4.34347769 13.27313353 2.79646604 13.2375101 1.25 13.1875 C0.45722656 13.17396484 -0.33554687 13.16042969 -1.15234375 13.14648438 C-3.10185564 13.11125223 -5.05101626 13.05744821 -7 13 C-7 12.67 -7 12.34 -7 12 C-5.35 11.67 -3.7 11.34 -2 11 C-1.93941406 10.28972656 -1.87882812 9.57945313 -1.81640625 8.84765625 C-1.73261719 7.92855469 -1.64882813 7.00945312 -1.5625 6.0625 C-1.48128906 5.14597656 -1.40007813 4.22945313 -1.31640625 3.28515625 C-1 1 -1 1 0 0 Z " fill="#201010" transform="translate(27,64)"/>
<path d="M0 0 C6.00993612 0.11557569 6.00993612 0.11557569 8.57421875 2.40625 C9.78815765 3.88106402 10.90236203 5.43669743 12 7 C11.01 7.33 10.02 7.66 9 8 C8.608125 7.195625 8.21625 6.39125 7.8125 5.5625 C6.23051809 2.76935262 6.23051809 2.76935262 3.3125 2.1875 C2.1678125 2.0946875 2.1678125 2.0946875 1 2 C0.7834375 2.8971875 0.7834375 2.8971875 0.5625 3.8125 C0.1127561 5.56150404 -0.42892341 7.28677023 -1 9 C-1.66 8.67 -2.32 8.34 -3 8 C-3 8.66 -3 9.32 -3 10 C-3.66 10 -4.32 10 -5 10 C-5.33 10.66 -5.66 11.32 -6 12 C-7.98 12 -9.96 12 -12 12 C-11.67 11.34 -11.34 10.68 -11 10 C-10.01 10 -9.02 10 -8 10 C-8 9.34 -8 8.68 -8 8 C-6.68 8 -5.36 8 -4 8 C-4 7.34 -4 6.68 -4 6 C-3.34 6 -2.68 6 -2 6 C-1.855625 5.195625 -1.71125 4.39125 -1.5625 3.5625 C-1 1 -1 1 0 0 Z " fill="#FF1515" transform="translate(21,34)"/>
<path d="M0 0 C0.66 0.33 1.32 0.66 2 1 C1.67 1.66 1.34 2.32 1 3 C0.77377919 4.70363822 0.59111527 6.41328701 0.4375 8.125 C0.293125 9.73375 0.14875 11.3425 0 13 C5.445 12.01 5.445 12.01 11 11 C11 11.66 11 12.32 11 13 C10.01 13.33 9.02 13.66 8 14 C7.67 17.96 7.34 21.92 7 26 C6.67 26 6.34 26 6 26 C5.93941406 25.30132812 5.87882812 24.60265625 5.81640625 23.8828125 C5.73261719 22.97273438 5.64882813 22.06265625 5.5625 21.125 C5.48128906 20.22007813 5.40007813 19.31515625 5.31640625 18.3828125 C5.13010715 15.98889139 5.13010715 15.98889139 4 14 C-0.455 14.495 -0.455 14.495 -5 15 C-3.68 14.67 -2.36 14.34 -1 14 C-1.01160156 13.15695313 -1.02320313 12.31390625 -1.03515625 11.4453125 C-1.04417969 10.34960938 -1.05320312 9.25390625 -1.0625 8.125 C-1.07410156 7.03445312 -1.08570313 5.94390625 -1.09765625 4.8203125 C-1 2 -1 2 0 0 Z " fill="#727272" transform="translate(22,49)"/>
<path d="M0 0 C2.64 0 5.28 0 8 0 C6.75023244 3.65316671 6.32901247 4.78065836 3 7 C0.95703125 7.1953125 0.95703125 7.1953125 -1.1875 7.125 C-3.0746875 7.063125 -3.0746875 7.063125 -5 7 C-4.0409375 6.1028125 -4.0409375 6.1028125 -3.0625 5.1875 C-0.79689611 3.09189663 -0.79689611 3.09189663 0 0 Z " fill="#FA1515" transform="translate(30,95)"/>
<path d="M0 0 C2.31 0 4.62 0 7 0 C6.6875 2.375 6.6875 2.375 6 5 C2.91111478 7.05925681 2.29064073 7.2390374 -1.1875 7.125 C-3.0746875 7.063125 -3.0746875 7.063125 -5 7 C-4.360625 6.21625 -3.72125 5.4325 -3.0625 4.625 C-1.01857687 2.20460719 -1.01857687 2.20460719 0 0 Z " fill="#FD1515" transform="translate(56,95)"/>
<path d="M0 0 C2.31 0 4.62 0 7 0 C6.62120265 2.19702465 6.09789619 3.83875922 4.9375 5.75 C1.76923229 7.79404368 -1.29162692 7.182379 -5 7 C-4.360625 6.21625 -3.72125 5.4325 -3.0625 4.625 C-1.01857687 2.20460719 -1.01857687 2.20460719 0 0 Z " fill="#FE1616" transform="translate(83,95)"/>
<path d="M0 0 C1.98 0 3.96 0 6 0 C6.33 3.63 6.66 7.26 7 11 C2.05 11 -2.9 11 -8 11 C-8 10.67 -8 10.34 -8 10 C-1.565 9.505 -1.565 9.505 5 9 C5 7.68 5 6.36 5 5 C3.35 5 1.7 5 0 5 C0 3.35 0 1.7 0 0 Z " fill="#A51A1A" transform="translate(91,81)"/>
<path d="M0 0 C1.65 0 3.3 0 5 0 C5.33 1.98 5.66 3.96 6 6 C3.08517222 6.80967438 1.53886783 7.21845993 -1.3125 6.0625 C-1.869375 5.711875 -2.42625 5.36125 -3 5 C-3 4.01 -3 3.02 -3 2 C-2.01 2 -1.02 2 0 2 C0 1.34 0 0.68 0 0 Z " fill="#EAE3E3" transform="translate(81,64)"/>
<path d="M0 0 C0.33 0 0.66 0 1 0 C1 2.97 1 5.94 1 9 C7.6 9.33 14.2 9.66 21 10 C21 10.33 21 10.66 21 11 C13.74 11 6.48 11 -1 11 C-0.67 7.37 -0.34 3.74 0 0 Z " fill="#973636" transform="translate(12,67)"/>
<path d="M0 0 C0.33 0 0.66 0 1 0 C1.08120751 2.89640118 1.14059421 5.79050912 1.1875 8.6875 C1.21263672 9.50412109 1.23777344 10.32074219 1.26367188 11.16210938 C1.32217012 15.97846486 1.07302376 19.03975154 -2 23 C-3.24834144 20.50331711 -2.95155125 19.18670849 -2.625 16.4375 C-2.53476562 15.63183594 -2.44453125 14.82617188 -2.3515625 13.99609375 C-2 12 -2 12 -1 11 C-0.76636119 9.15108054 -0.58696365 7.29511969 -0.4375 5.4375 C-0.35371094 4.42558594 -0.26992188 3.41367187 -0.18359375 2.37109375 C-0.12300781 1.58863281 -0.06242187 0.80617187 0 0 Z " fill="#4E0909" transform="translate(44,50)"/>
<path d="M0 0 C1.65 0.33 3.3 0.66 5 1 C5 1.66 5 2.32 5 3 C7.97 3.495 7.97 3.495 11 4 C10.67 4.66 10.34 5.32 10 6 C7.0625 5.1875 7.0625 5.1875 4 4 C3.67 3.01 3.34 2.02 3 1 C2.34 1 1.68 1 1 1 C0.67 2.32 0.34 3.64 0 5 C-2.64 5.33 -5.28 5.66 -8 6 C-6.68 5.67 -5.36 5.34 -4 5 C-4 4.34 -4 3.68 -4 3 C-3.01 3 -2.02 3 -1 3 C-0.67 2.01 -0.34 1.02 0 0 Z " fill="#FF1414" transform="translate(99,36)"/>
<path d="M0 0 C0.33 0.66 0.66 1.32 1 2 C2.65 1.34 4.3 0.68 6 0 C6 1.32 6 2.64 6 4 C2.43954823 5.18681726 -0.43808337 5.09689832 -4.1875 5.0625 C-5.45980469 5.05347656 -6.73210937 5.04445313 -8.04296875 5.03515625 C-9.50669922 5.01775391 -9.50669922 5.01775391 -11 5 C-11 4.67 -11 4.34 -11 4 C-5.555 3.505 -5.555 3.505 0 3 C0 2.01 0 1.02 0 0 Z " fill="#250D0D" transform="translate(71,68)"/>
<path d="M0 0 C7.26 0 14.52 0 22 0 C22 0.33 22 0.66 22 1 C18.04 1 14.08 1 10 1 C9.67 1.66 9.34 2.32 9 3 C9 2.34 9 1.68 9 1 C8.2575 1.350625 7.515 1.70125 6.75 2.0625 C3.8677274 3.04509293 2.78823655 3.0326802 0 2 C0 1.34 0 0.68 0 0 Z " fill="#700A0A" transform="translate(46,94)"/>
<path d="M0 0 C6.93 0 13.86 0 21 0 C21 0.33 21 0.66 21 1 C19.46279297 1.09087891 19.46279297 1.09087891 17.89453125 1.18359375 C16.53384305 1.26805026 15.17316657 1.35269567 13.8125 1.4375 C13.13896484 1.47681641 12.46542969 1.51613281 11.77148438 1.55664062 C8.10300898 1.78927565 4.58305794 2.17207011 1 3 C0.67 2.01 0.34 1.02 0 0 Z " fill="#990D0D" transform="translate(98,94)"/>
<path d="M0 0 C1.32 0.33 2.64 0.66 4 1 C3.67 2.65 3.34 4.3 3 6 C1.35 6.33 -0.3 6.66 -2 7 C-1.125 2.25 -1.125 2.25 0 0 Z " fill="#E3E3E3" transform="translate(67,58)"/>
<path d="M0 0 C1.65 0.33 3.3 0.66 5 1 C4.67 2.32 4.34 3.64 4 5 C2.35 4.67 0.7 4.34 -1 4 C-0.67 2.68 -0.34 1.36 0 0 Z " fill="#DFDFDF" transform="translate(21,92)"/>
<path d="M0 0 C1.65 0 3.3 0 5 0 C5 1.65 5 3.3 5 5 C3.35 5 1.7 5 0 5 C0 3.35 0 1.7 0 0 Z " fill="#040000" transform="translate(91,81)"/>
<path d="M0 0 C0 0.66 0 1.32 0 2 C-0.99 2.33 -1.98 2.66 -3 3 C-3.33 6.96 -3.66 10.92 -4 15 C-4.33 15 -4.66 15 -5 15 C-5.33 10.38 -5.66 5.76 -6 1 C-3 0 -3 0 0 0 Z " fill="#505050" transform="translate(33,60)"/>
<path d="M0 0 C0.99 0.33 1.98 0.66 3 1 C2.67 2.98 2.34 4.96 2 7 C-0.31 6.34 -2.62 5.68 -5 5 C-3.35 3.35 -1.7 1.7 0 0 Z " fill="#EDD6D6" transform="translate(87,57)"/>
<path d="M0 0 C-0.33 1.32 -0.66 2.64 -1 4 C-1.99 3.67 -2.98 3.34 -4 3 C-4.66 4.32 -5.32 5.64 -6 7 C-6.6875 5.1875 -6.6875 5.1875 -7 3 C-4.8243318 -0.20624788 -4.07796486 0 0 0 Z " fill="#423F3F" transform="translate(71,55)"/>
<path d="M0 0 C2.475 0.495 2.475 0.495 5 1 C4.67 2.32 4.34 3.64 4 5 C2.68 5 1.36 5 0 5 C0 3.35 0 1.7 0 0 Z " fill="#EFEFEF" transform="translate(73,92)"/>
<path d="M0 0 C0.33 0.66 0.66 1.32 1 2 C1.66 2 2.32 2 3 2 C2.625 4.4375 2.625 4.4375 2 7 C1.01 7.495 1.01 7.495 0 8 C0 7.01 0 6.02 0 5 C-0.66 5 -1.32 5 -2 5 C-1.34 3.35 -0.68 1.7 0 0 Z " fill="#FFE0E0" transform="translate(37,79)"/>
<path d="M0 0 C1.32 0 2.64 0 4 0 C3.39816251 2.02045442 2.72693904 4.02111039 2 6 C1.01 6.495 1.01 6.495 0 7 C-1.125 2.25 -1.125 2.25 0 0 Z " fill="#FFE5E5" transform="translate(90,51)"/>
<path d="M0 0 C0.99 0 1.98 0 3 0 C3 1.98 3 3.96 3 6 C2.01 6 1.02 6 0 6 C0 4.02 0 2.04 0 0 Z " fill="#210303" transform="translate(8,82)"/>
</svg>
