<?xml version="1.0" encoding="UTF-8"?>
<svg version="1.1" xmlns="http://www.w3.org/2000/svg" width="128" height="128">
<path d="M0 0 C3.0625 0.25 3.0625 0.25 6.0625 2.25 C6.7225 1.59 7.3825 0.93 8.0625 0.25 C10.5 0.3125 10.5 0.3125 13.0625 1.25 C16.80005387 5.38800607 17.02443687 10.87358226 17.0625 16.25 C16.7325 16.91 16.4025 17.57 16.0625 18.25 C17.0525 17.92 18.0425 17.59 19.0625 17.25 C23.30924388 17.01835942 26.41852463 16.91785576 30.0625 19.25 C30.0625 20.24 30.0625 21.23 30.0625 22.25 C31.3825 22.91 32.7025 23.57 34.0625 24.25 C33.7325 25.57 33.4025 26.89 33.0625 28.25 C32.0725 28.25 31.0825 28.25 30.0625 28.25 C30.11470703 29.22839844 30.11470703 29.22839844 30.16796875 30.2265625 C30.33795067 35.71455014 30.17912435 39.51734822 27.0625 44.25 C26.07938426 45.26660387 25.08229606 46.27019594 24.0625 47.25 C24.67996094 47.43433594 25.29742187 47.61867187 25.93359375 47.80859375 C33.40279894 50.36654073 37.87579121 54.38676398 43.0625 60.25 C45.62425539 57.43206907 47.00584521 55.44829176 48.0625 51.75 C49.0625 48.25 49.0625 48.25 51.08203125 45.94921875 C53.50904547 42.64139464 53.61574674 40.62250384 53.75 36.5625 C53.99484932 30.38530135 53.99484932 30.38530135 55.0625 28.25 C57.4375 28.5 57.4375 28.5 60.0625 29.25 C61.375 31.3125 61.375 31.3125 62.0625 33.25 C65.71293683 32.85646972 65.71293683 32.85646972 68.4375 30.625 C70.0625 29.25 70.0625 29.25 73.6875 29.4375 C74.80125 29.705625 75.915 29.97375 77.0625 30.25 C77.5575 31.24 77.5575 31.24 78.0625 32.25 C79.0525 32.25 80.0425 32.25 81.0625 32.25 C81.51625 31.59 81.97 30.93 82.4375 30.25 C82.97375 29.59 83.51 28.93 84.0625 28.25 C86.75 28 86.75 28 89.0625 28.25 C90.27941058 34.29316136 89.76885356 39.55495061 88.875 45.625 C88.73771484 46.58656006 88.60042969 47.54812012 88.45898438 48.53881836 C87.5439335 54.68033479 86.44878535 60.75970482 85.0625 66.8125 C84.90885986 67.49554199 84.75521973 68.17858398 84.59692383 68.88232422 C83.64632054 72.77817485 82.50986901 76.04867379 80.0625 79.25 C74.02720588 80.73235294 74.02720588 80.73235294 71.0625 79.25 C71.0625 78.59 71.0625 77.93 71.0625 77.25 C65.54643801 77.69128496 62.51384575 79.02987754 58.0625 82.25 C53.88938659 85.06442532 51.41469856 85.330958 46.5625 84.6875 C42.56753576 84.19355741 41.33790233 84.12213463 37.5625 85.875 C34.97209877 88.33588117 33.49594191 89.98193275 32.0625 93.25 C32.42563116 96.02110748 32.89676639 98.29578769 33.6875 100.9375 C33.97802246 101.99553833 33.97802246 101.99553833 34.27441406 103.07495117 C34.84770099 105.14072026 35.44846455 107.19601541 36.0625 109.25 C36.37445313 110.29414062 36.68640625 111.33828125 37.0078125 112.4140625 C37.50717557 114.05759727 38.01805033 115.69773799 38.546875 117.33203125 C39.0625 119.25 39.0625 119.25 39.0625 122.25 C23.2225 122.25 7.3825 122.25 -8.9375 122.25 C-11.88278941 111.94148706 -11.54774396 104.27637701 -7.9375 94.25 C-5.46313136 86.82689408 -5.43241075 78.93762706 -7.4453125 71.4375 C-8.64564813 66.10267499 -8.56125451 61.02277598 -6.75 55.875 C-3.36433037 50.97161639 0.32219447 48.71560992 6.0625 47.25 C7.3825 47.25 8.7025 47.25 10.0625 47.25 C10.31109197 43.18966448 10.20526474 40.57716921 8.5625 36.8125 C6.76174078 32.53569686 6.82129757 29.83284624 7.0625 25.25 C6.31484375 25.07984375 5.5671875 24.9096875 4.796875 24.734375 C3.81203125 24.49203125 2.8271875 24.2496875 1.8125 24 C0.83796875 23.76796875 -0.1365625 23.5359375 -1.140625 23.296875 C-4.29582348 22.11587892 -5.82895926 20.85350335 -7.9375 18.25 C-8.3125 15.625 -8.3125 15.625 -7.9375 13.25 C-7.2775 12.59 -6.6175 11.93 -5.9375 11.25 C-5.55155508 9.1125599 -5.55155508 9.1125599 -5.4375 6.75 C-5.15560614 2.40883453 -4.81501517 0.40978853 0 0 Z M12.0625 41.25 C11.11978998 44.50639659 11.11978998 44.50639659 11.0625 48.25 C13.0219012 51.3764113 13.0219012 51.3764113 16.0625 53.25 C18.822665 53.20020416 18.822665 53.20020416 21.0625 52.25 C21.0625 50.27 21.0625 48.29 21.0625 46.25 C18.0925 44.6 15.1225 42.95 12.0625 41.25 Z M50.0625 49.25 C49.7325 50.9 49.4025 52.55 49.0625 54.25 C50.0525 54.25 51.0425 54.25 52.0625 54.25 C52.0625 52.6 52.0625 50.95 52.0625 49.25 C51.4025 49.25 50.7425 49.25 50.0625 49.25 Z M48.0625 70.25 C47.7325 72.56 47.4025 74.87 47.0625 77.25 C48.18766085 75.41715557 48.18766085 75.41715557 49.0625 73.25 C48.7325 72.26 48.4025 71.27 48.0625 70.25 Z M44 79.25 C43.360625 79.91 42.72125 80.57 42.0625 81.25 C43.82386355 83.43331689 43.82386355 83.43331689 46.0078125 83.4453125 C49.03515625 83.34765625 49.03515625 83.34765625 52.0625 83.25 C50.42080472 81.22945196 48.75338222 79.22956942 47.0625 77.25 C45.70332319 77.13397569 45.70332319 77.13397569 44 79.25 Z " fill="#4B3E3E" transform="translate(25.9375,2.75)"/>
<path d="M0 0 C2.375 0.25 2.375 0.25 5 1 C6.3125 3.0625 6.3125 3.0625 7 5 C10.65043683 4.60646972 10.65043683 4.60646972 13.375 2.375 C15 1 15 1 18.625 1.1875 C19.73875 1.455625 20.8525 1.72375 22 2 C22.495 2.99 22.495 2.99 23 4 C23.99 4 24.98 4 26 4 C26.45375 3.34 26.9075 2.68 27.375 2 C27.91125 1.34 28.4475 0.68 29 0 C31.6875 -0.25 31.6875 -0.25 34 0 C35.21691058 6.04316136 34.70635356 11.30495061 33.8125 17.375 C33.60657227 18.81734009 33.60657227 18.81734009 33.39648438 20.28881836 C32.4814335 26.43033479 31.38628535 32.50970482 30 38.5625 C29.76953979 39.58706299 29.76953979 39.58706299 29.53442383 40.63232422 C28.58382054 44.52817485 27.44736901 47.79867379 25 51 C18.96470588 52.48235294 18.96470588 52.48235294 16 51 C16 50.34 16 49.68 16 49 C10.48393801 49.44128496 7.45134575 50.77987754 3 54 C-2.07641292 57.42362732 -5.61012684 57.00670137 -11.4140625 56.03125 C-14.65981114 55.99202645 -15.51979554 57.01880082 -18 59 C-22.33884218 59.95188885 -26.37476253 59.83145427 -30.359375 57.79296875 C-34.14397413 55.06501865 -35.86247189 53.27505622 -38 49 C-35.69 46.36 -33.38 43.72 -31 41 C-26.52148447 41.89570311 -25.22824944 42.25000973 -22 45 C-14.98963492 38.53946748 -9.57222999 32.54904704 -6.9375 23.25 C-6 20 -6 20 -3.984375 17.71484375 C-1.55902469 14.39669716 -1.44699376 12.37977673 -1.3125 8.3125 C-1.06765068 2.13530135 -1.06765068 2.13530135 0 0 Z M-5 21 C-5.33 22.65 -5.66 24.3 -6 26 C-5.01 26 -4.02 26 -3 26 C-3 24.35 -3 22.7 -3 21 C-3.66 21 -4.32 21 -5 21 Z M-7 42 C-7.33 44.31 -7.66 46.62 -8 49 C-6.87483915 47.16715557 -6.87483915 47.16715557 -6 45 C-6.33 44.01 -6.66 43.02 -7 42 Z M-11.0625 51 C-11.701875 51.66 -12.34125 52.32 -13 53 C-11.23863645 55.18331689 -11.23863645 55.18331689 -9.0546875 55.1953125 C-6.02734375 55.09765625 -6.02734375 55.09765625 -3 55 C-4.64169528 52.97945196 -6.30911778 50.97956942 -8 49 C-9.35917681 48.88397569 -9.35917681 48.88397569 -11.0625 51 Z " fill="#FB1B1B" transform="translate(81,31)"/>
<path d="M0 0 C0.84304687 0.32484375 0.84304687 0.32484375 1.703125 0.65625 C12.83988177 4.3457277 25.52541797 4.06020201 37 2 C38.34018305 6.26871471 39.67097109 10.54030064 41 14.8125 C41.3815625 16.02744141 41.763125 17.24238281 42.15625 18.49414062 C42.69765625 20.23920898 42.69765625 20.23920898 43.25 22.01953125 C43.58515625 23.09307861 43.9203125 24.16662598 44.265625 25.27270508 C45 28 45 28 45 31 C29.16 31 13.32 31 -3 31 C-5.85944585 20.99193954 -5.9530085 12.71932364 -2 3 C-1.34 2.01 -0.68 1.02 0 0 Z " fill="#FE1B1B" transform="translate(20,94)"/>
<path d="M0 0 C3.0625 0.25 3.0625 0.25 6.0625 2.25 C6.7225 1.59 7.3825 0.93 8.0625 0.25 C10.5 0.3125 10.5 0.3125 13.0625 1.25 C16.80005387 5.38800607 17.02443687 10.87358226 17.0625 16.25 C16.7325 16.91 16.4025 17.57 16.0625 18.25 C17.0525 17.92 18.0425 17.59 19.0625 17.25 C23.30924388 17.01835942 26.41852463 16.91785576 30.0625 19.25 C30.0625 20.24 30.0625 21.23 30.0625 22.25 C31.3825 22.91 32.7025 23.57 34.0625 24.25 C33.7325 25.57 33.4025 26.89 33.0625 28.25 C32.0725 28.25 31.0825 28.25 30.0625 28.25 C30.0625 31.55 30.0625 34.85 30.0625 38.25 C29.7325 38.25 29.4025 38.25 29.0625 38.25 C29.0625 34.95 29.0625 31.65 29.0625 28.25 C28.29164062 28.18941406 27.52078125 28.12882812 26.7265625 28.06640625 C25.72367188 27.98261719 24.72078125 27.89882813 23.6875 27.8125 C22.68976562 27.73128906 21.69203125 27.65007813 20.6640625 27.56640625 C18.0625 27.25 18.0625 27.25 16.0625 26.25 C15.93875 27.03375 15.815 27.8175 15.6875 28.625 C15.0625 31.25 15.0625 31.25 13.0625 33.25 C12.4025 32.92 11.7425 32.59 11.0625 32.25 C11.40023437 32.81203125 11.73796875 33.3740625 12.0859375 33.953125 C13.2314058 36.64726644 13.1095026 38.13038233 12.6875 41 C12.52121094 42.19882813 12.52121094 42.19882813 12.3515625 43.421875 C12.25617187 44.02515625 12.16078125 44.6284375 12.0625 45.25 C11.4025 44.92 10.7425 44.59 10.0625 44.25 C9.69979412 42.25511766 9.37080925 40.25401011 9.0625 38.25 C8.711875 37.46625 8.36125 36.6825 8 35.875 C6.69498555 32.22095954 6.93133116 29.11948068 7.0625 25.25 C6.31484375 25.07984375 5.5671875 24.9096875 4.796875 24.734375 C3.81203125 24.49203125 2.8271875 24.2496875 1.8125 24 C0.83796875 23.76796875 -0.1365625 23.5359375 -1.140625 23.296875 C-4.29582348 22.11587892 -5.82895926 20.85350335 -7.9375 18.25 C-8.3125 15.625 -8.3125 15.625 -7.9375 13.25 C-7.2775 12.59 -6.6175 11.93 -5.9375 11.25 C-5.55155508 9.1125599 -5.55155508 9.1125599 -5.4375 6.75 C-5.15560614 2.40883453 -4.81501517 0.40978853 0 0 Z " fill="#483F3F" transform="translate(25.9375,2.75)"/>
<path d="M0 0 C1.3479743 0.63654342 2.68596724 1.29605388 4 2 C3.125 8.875 3.125 8.875 2 10 C0.00041636 10.04080783 -2.00045254 10.04254356 -4 10 C-4.12375 10.86882812 -4.2475 11.73765625 -4.375 12.6328125 C-6.26893051 23.21514924 -6.26893051 23.21514924 -11.125 26.6875 C-12.18074219 27.31205078 -12.18074219 27.31205078 -13.2578125 27.94921875 C-15.16748019 28.88918579 -15.16748019 28.88918579 -16 31 C-21.63274431 31.62329548 -25.79996041 31.6886319 -30.5 28.25 C-33.41941559 25.88096604 -34.22587436 24.54825129 -36 21 C-33.69 18.36 -31.38 15.72 -29 13 C-24.52148447 13.89570311 -23.22824944 14.25000973 -20 17 C-14.91257781 12.21183794 -10.37366372 7.67500542 -6.97265625 1.53125 C-4.99939143 -1.57525526 -3.14555671 -1.01768011 0 0 Z " fill="#F9F7F7" transform="translate(79,59)"/>
<path d="M0 0 C2.70367274 1.66379861 3.71686725 2.860619 4.484375 5.94921875 C4.95578959 11.14384493 3.68816257 13.96251001 0.5 18.0625 C-0.64620005 19.39291077 -1.80636837 20.71197403 -3 22 C-6.87859399 21.46798047 -8.35686984 19.89198034 -10.75 16.875 C-13.06198301 13.74263592 -13.97238591 12.1506223 -14.6875 8.25 C-13.88676858 4.46472418 -12.7621037 2.68318645 -10 0 C-6.19426871 -1.2685771 -3.89430952 -0.88817586 0 0 Z " fill="#483C3C" transform="translate(95,11)"/>
<path d="M0 0 C4.86182168 -0.19447287 8.44102516 0.35980225 13 2 C13.08126087 4.08268593 13.13930839 6.16628658 13.1875 8.25 C13.23970703 9.99023438 13.23970703 9.99023438 13.29296875 11.765625 C12.97573176 15.26792136 12.63914734 16.68787744 10 19 C7.66015625 19.27734375 7.66015625 19.27734375 5.0625 18.9375 C3.78052734 18.79634766 3.78052734 18.79634766 2.47265625 18.65234375 C-0.31644515 17.91651447 -1.90460333 16.969866 -4 15 C-4.1875 12.5625 -4.1875 12.5625 -4 10 C-4.29044914 8.65667272 -4.60955794 7.31774196 -5 6 C-4.360625 5.7525 -3.72125 5.505 -3.0625 5.25 C-0.81258459 4.18437567 -0.81258459 4.18437567 -0.25 1.875 C-0.1675 1.25625 -0.085 0.6375 0 0 Z " fill="#EBE9E9" transform="translate(42,29)"/>
<path d="M0 0 C0.66 0.33 1.32 0.66 2 1 C1.21625 1.721875 0.4325 2.44375 -0.375 3.1875 C-2.84412438 5.83299041 -3.93260278 7.60373611 -5 11 C-5.66 10.34 -6.32 9.68 -7 9 C-7.99 11.64 -8.98 14.28 -10 17 C-10.66 16.67 -11.32 16.34 -12 16 C-10.08277831 8.18363463 -10.08277831 8.18363463 -7 6 C-6.34 6 -5.68 6 -5 6 C-4.731875 5.38125 -4.46375 4.7625 -4.1875 4.125 C-3 2 -3 2 0 0 Z " fill="#FF1414" transform="translate(24,42)"/>
<path d="M0 0 C0 3.66666667 0 7.33333333 0 11 C-1.98 11.66 -3.96 12.32 -6 13 C-5.63118644 6.85310727 -4.09949571 4.30972626 0 0 Z M-3 6 C-3.33 7.65 -3.66 9.3 -4 11 C-3.01 11 -2.02 11 -1 11 C-1 9.35 -1 7.7 -1 6 C-1.66 6 -2.32 6 -3 6 Z " fill="#504242" transform="translate(79,46)"/>
<path d="M0 0 C2.0625 0.4375 2.0625 0.4375 4 1 C4 2.65 4 4.3 4 6 C2.125 6.625 2.125 6.625 0 7 C-0.66 6.34 -1.32 5.68 -2 5 C-1.46428571 1.46428571 -1.46428571 1.46428571 0 0 Z " fill="#EF1A1A" transform="translate(89,16)"/>
<path d="M0 0 C0.33 0 0.66 0 1 0 C0.75 3.375 0.75 3.375 0 7 C-2.0625 8.4375 -2.0625 8.4375 -4 9 C-2.80100302 5.9168649 -1.52299523 2.93720508 0 0 Z " fill="#685959" transform="translate(72,75)"/>
<path d="M0 0 C0.86625 0.3403125 0.86625 0.3403125 1.75 0.6875 C-0.5625 2.25 -0.5625 2.25 -3.25 3.6875 C-4.24 3.3575 -5.23 3.0275 -6.25 2.6875 C-2.80384615 -0.38942308 -2.80384615 -0.38942308 0 0 Z " fill="#FF1414" transform="translate(70.25,20.3125)"/>
<path d="M0 0 C0.78375 0.04125 1.5675 0.0825 2.375 0.125 C0.375 2.125 0.375 2.125 -2.25 2.25 C-3.03375 2.20875 -3.8175 2.1675 -4.625 2.125 C-2.625 0.125 -2.625 0.125 0 0 Z " fill="#FF0E0E" transform="translate(71.625,31.875)"/>
<path d="M0 0 C0.66 0 1.32 0 2 0 C0.25 3.875 0.25 3.875 -2 5 C-1.34 3.35 -0.68 1.7 0 0 Z " fill="#FF1818" transform="translate(61,13)"/>
<path d="M0 0 C0.66 0 1.32 0 2 0 C2 1.65 2 3.3 2 5 C0 2 0 2 0 0 Z " fill="#FF1313" transform="translate(51,12)"/>
</svg>
